<?xml version="1.0" encoding="utf-8" standalone="no"?>
<!DOCTYPE svg PUBLIC "-//W3C//DTD SVG 1.1//EN"
  "http://www.w3.org/Graphics/SVG/1.1/DTD/svg11.dtd">
<svg xmlns:xlink="http://www.w3.org/1999/xlink" width="334.578359pt" height="228.584141pt" viewBox="0 0 334.578359 228.584141" xmlns="http://www.w3.org/2000/svg" version="1.1">
 <metadata>
  <rdf:RDF xmlns:dc="http://purl.org/dc/elements/1.1/" xmlns:cc="http://creativecommons.org/ns#" xmlns:rdf="http://www.w3.org/1999/02/22-rdf-syntax-ns#">
   <cc:Work>
    <dc:type rdf:resource="http://purl.org/dc/dcmitype/StillImage"/>
    <dc:date>2026-07-13T12:06:23.909611</dc:date>
    <dc:format>image/svg+xml</dc:format>
    <dc:creator>
     <cc:Agent>
      <dc:title>Matplotlib v3.10.9, https://matplotlib.org/</dc:title>
     </cc:Agent>
    </dc:creator>
   </cc:Work>
  </rdf:RDF>
 </metadata>
 <defs>
  <style type="text/css">*{stroke-linejoin: round; stroke-linecap: butt}</style>
 </defs>
 <g id="figure_1">
  <g id="patch_1">
   <path d="M 0 228.584141 
L 334.578359 228.584141 
L 334.578359 0 
L 0 0 
L 0 228.584141 
z
" style="fill: none"/>
  </g>
  <g id="axes_1">
   <g id="patch_2">
    <path d="M 53.958359 187.38 
L 327.378359 187.38 
L 327.378359 7.2 
L 53.958359 7.2 
L 53.958359 187.38 
z
" style="fill: none"/>
   </g>
   <g id="patch_3">
    <path d="M 53.958359 67.905465 
L 327.378359 67.905465 
L 327.378359 7.2 
L 53.958359 7.2 
z
" clip-path="url(#p82d70b7cba)" style="fill: #fbbf77; opacity: 0.08; stroke: #fbbf77; stroke-linejoin: miter"/>
   </g>
   <g id="matplotlib.axis_1">
    <g id="xtick_1">
     <g id="line2d_1"/>
     <g id="text_1">
      <!-- $0.10 -->
      <g style="fill: #8a98b8" transform="translate(70.219429 200.757969) scale(0.13 -0.13)">
       <defs>
        <path id="OpenSans-24" d="M 3238 1403 
Q 3238 978 2919 701 
Q 2600 425 2028 353 
L 2028 -372 
L 1625 -372 
L 1625 325 
Q 1275 325 947 379 
Q 619 434 409 531 
L 409 1019 
Q 669 903 1008 829 
Q 1347 756 1625 756 
L 1625 2131 
Q 984 2334 726 2603 
Q 469 2872 469 3297 
Q 469 3706 786 3968 
Q 1103 4231 1625 4288 
L 1625 4856 
L 2028 4856 
L 2028 4294 
Q 2603 4278 3138 4063 
L 2975 3653 
Q 2509 3838 2028 3872 
L 2028 2516 
Q 2519 2359 2762 2211 
Q 3006 2063 3122 1870 
Q 3238 1678 3238 1403 
z
M 2706 1363 
Q 2706 1588 2567 1727 
Q 2428 1866 2028 2003 
L 2028 788 
Q 2706 881 2706 1363 
z
M 997 3303 
Q 997 3066 1137 2922 
Q 1278 2778 1625 2650 
L 1625 3859 
Q 1316 3809 1156 3664 
Q 997 3519 997 3303 
z
" transform="scale(0.015625)"/>
        <path id="OpenSans-30" d="M 3341 2291 
Q 3341 1106 2967 521 
Q 2594 -63 1825 -63 
Q 1088 -63 703 535 
Q 319 1134 319 2291 
Q 319 3484 691 4062 
Q 1063 4641 1825 4641 
Q 2569 4641 2955 4037 
Q 3341 3434 3341 2291 
z
M 844 2291 
Q 844 1294 1078 839 
Q 1313 384 1825 384 
Q 2344 384 2576 845 
Q 2809 1306 2809 2291 
Q 2809 3275 2576 3733 
Q 2344 4191 1825 4191 
Q 1313 4191 1078 3739 
Q 844 3288 844 2291 
z
" transform="scale(0.015625)"/>
        <path id="OpenSans-2e" d="M 475 331 
Q 475 541 570 648 
Q 666 756 844 756 
Q 1025 756 1126 648 
Q 1228 541 1228 331 
Q 1228 128 1125 18 
Q 1022 -91 844 -91 
Q 684 -91 579 7 
Q 475 106 475 331 
z
" transform="scale(0.015625)"/>
        <path id="OpenSans-31" d="M 2234 0 
L 1728 0 
L 1728 3256 
Q 1728 3663 1753 4025 
Q 1688 3959 1606 3887 
Q 1525 3816 863 3278 
L 588 3634 
L 1797 4569 
L 2234 4569 
L 2234 0 
z
" transform="scale(0.015625)"/>
       </defs>
       <use xlink:href="#OpenSans-24"/>
       <use xlink:href="#OpenSans-30" transform="translate(57.177734 0)"/>
       <use xlink:href="#OpenSans-2e" transform="translate(114.355469 0)"/>
       <use xlink:href="#OpenSans-31" transform="translate(140.966797 0)"/>
       <use xlink:href="#OpenSans-30" transform="translate(198.144531 0)"/>
      </g>
     </g>
    </g>
    <g id="xtick_2">
     <g id="line2d_2"/>
     <g id="text_2">
      <!-- $0.30 -->
      <g style="fill: #8a98b8" transform="translate(122.293954 200.757969) scale(0.13 -0.13)">
       <defs>
        <path id="OpenSans-33" d="M 3144 3494 
Q 3144 3056 2898 2778 
Q 2653 2500 2203 2406 
L 2203 2381 
Q 2753 2313 3018 2031 
Q 3284 1750 3284 1294 
Q 3284 641 2831 289 
Q 2378 -63 1544 -63 
Q 1181 -63 879 -8 
Q 578 47 294 184 
L 294 678 
Q 591 531 927 454 
Q 1263 378 1563 378 
Q 2747 378 2747 1306 
Q 2747 2138 1441 2138 
L 991 2138 
L 991 2584 
L 1447 2584 
Q 1981 2584 2293 2820 
Q 2606 3056 2606 3475 
Q 2606 3809 2376 4000 
Q 2147 4191 1753 4191 
Q 1453 4191 1187 4109 
Q 922 4028 581 3809 
L 319 4159 
Q 600 4381 967 4507 
Q 1334 4634 1741 4634 
Q 2406 4634 2775 4329 
Q 3144 4025 3144 3494 
z
" transform="scale(0.015625)"/>
       </defs>
       <use xlink:href="#OpenSans-24"/>
       <use xlink:href="#OpenSans-30" transform="translate(57.177734 0)"/>
       <use xlink:href="#OpenSans-2e" transform="translate(114.355469 0)"/>
       <use xlink:href="#OpenSans-33" transform="translate(140.966797 0)"/>
       <use xlink:href="#OpenSans-30" transform="translate(198.144531 0)"/>
      </g>
     </g>
    </g>
    <g id="xtick_3">
     <g id="line2d_3"/>
     <g id="text_3">
      <!-- $1 -->
      <g style="fill: #8a98b8" transform="translate(188.524548 200.757969) scale(0.13 -0.13)">
       <use xlink:href="#OpenSans-24"/>
       <use xlink:href="#OpenSans-31" transform="translate(57.177734 0)"/>
      </g>
     </g>
    </g>
    <g id="xtick_4">
     <g id="line2d_4"/>
     <g id="text_4">
      <!-- $3 -->
      <g style="fill: #8a98b8" transform="translate(240.599073 200.757969) scale(0.13 -0.13)">
       <use xlink:href="#OpenSans-24"/>
       <use xlink:href="#OpenSans-33" transform="translate(57.177734 0)"/>
      </g>
     </g>
    </g>
    <g id="xtick_5">
     <g id="line2d_5"/>
     <g id="text_5">
      <!-- $7 -->
      <g style="fill: #8a98b8" transform="translate(280.761224 200.757969) scale(0.13 -0.13)">
       <defs>
        <path id="OpenSans-37" d="M 891 0 
L 2784 4091 
L 294 4091 
L 294 4569 
L 3334 4569 
L 3334 4153 
L 1466 0 
L 891 0 
z
" transform="scale(0.015625)"/>
       </defs>
       <use xlink:href="#OpenSans-24"/>
       <use xlink:href="#OpenSans-37" transform="translate(57.177734 0)"/>
      </g>
     </g>
    </g>
    <g id="xtick_6">
     <g id="line2d_6">
      <defs>
       <path id="ma9e1bf0b18" d="M 0 0 
L 0 2 
" style="stroke: #8a98b8; stroke-width: 0.6"/>
      </defs>
      <g>
       <use xlink:href="#ma9e1bf0b18" x="53.958359" y="187.38" style="fill: #8a98b8; stroke: #8a98b8; stroke-width: 0.6"/>
      </g>
     </g>
    </g>
    <g id="xtick_7">
     <g id="line2d_7">
      <g>
       <use xlink:href="#ma9e1bf0b18" x="62.600451" y="187.38" style="fill: #8a98b8; stroke: #8a98b8; stroke-width: 0.6"/>
      </g>
     </g>
    </g>
    <g id="xtick_8">
     <g id="line2d_8">
      <g>
       <use xlink:href="#ma9e1bf0b18" x="69.907236" y="187.38" style="fill: #8a98b8; stroke: #8a98b8; stroke-width: 0.6"/>
      </g>
     </g>
    </g>
    <g id="xtick_9">
     <g id="line2d_9">
      <g>
       <use xlink:href="#ma9e1bf0b18" x="76.236661" y="187.38" style="fill: #8a98b8; stroke: #8a98b8; stroke-width: 0.6"/>
      </g>
     </g>
    </g>
    <g id="xtick_10">
     <g id="line2d_10">
      <g>
       <use xlink:href="#ma9e1bf0b18" x="81.819609" y="187.38" style="fill: #8a98b8; stroke: #8a98b8; stroke-width: 0.6"/>
      </g>
     </g>
    </g>
    <g id="xtick_11">
     <g id="line2d_11">
      <g>
       <use xlink:href="#ma9e1bf0b18" x="119.669093" y="187.38" style="fill: #8a98b8; stroke: #8a98b8; stroke-width: 0.6"/>
      </g>
     </g>
    </g>
    <g id="xtick_12">
     <g id="line2d_12">
      <g>
       <use xlink:href="#ma9e1bf0b18" x="152.52446" y="187.38" style="fill: #8a98b8; stroke: #8a98b8; stroke-width: 0.6"/>
      </g>
     </g>
    </g>
    <g id="xtick_13">
     <g id="line2d_13">
      <g>
       <use xlink:href="#ma9e1bf0b18" x="163.101525" y="187.38" style="fill: #8a98b8; stroke: #8a98b8; stroke-width: 0.6"/>
      </g>
     </g>
    </g>
    <g id="xtick_14">
     <g id="line2d_14">
      <g>
       <use xlink:href="#ma9e1bf0b18" x="171.743617" y="187.38" style="fill: #8a98b8; stroke: #8a98b8; stroke-width: 0.6"/>
      </g>
     </g>
    </g>
    <g id="xtick_15">
     <g id="line2d_15">
      <g>
       <use xlink:href="#ma9e1bf0b18" x="179.050402" y="187.38" style="fill: #8a98b8; stroke: #8a98b8; stroke-width: 0.6"/>
      </g>
     </g>
    </g>
    <g id="xtick_16">
     <g id="line2d_16">
      <g>
       <use xlink:href="#ma9e1bf0b18" x="185.379827" y="187.38" style="fill: #8a98b8; stroke: #8a98b8; stroke-width: 0.6"/>
      </g>
     </g>
    </g>
    <g id="xtick_17">
     <g id="line2d_17">
      <g>
       <use xlink:href="#ma9e1bf0b18" x="190.962775" y="187.38" style="fill: #8a98b8; stroke: #8a98b8; stroke-width: 0.6"/>
      </g>
     </g>
    </g>
    <g id="xtick_18">
     <g id="line2d_18">
      <g>
       <use xlink:href="#ma9e1bf0b18" x="228.812259" y="187.38" style="fill: #8a98b8; stroke: #8a98b8; stroke-width: 0.6"/>
      </g>
     </g>
    </g>
    <g id="xtick_19">
     <g id="line2d_19">
      <g>
       <use xlink:href="#ma9e1bf0b18" x="261.667626" y="187.38" style="fill: #8a98b8; stroke: #8a98b8; stroke-width: 0.6"/>
      </g>
     </g>
    </g>
    <g id="xtick_20">
     <g id="line2d_20">
      <g>
       <use xlink:href="#ma9e1bf0b18" x="272.244691" y="187.38" style="fill: #8a98b8; stroke: #8a98b8; stroke-width: 0.6"/>
      </g>
     </g>
    </g>
    <g id="xtick_21">
     <g id="line2d_21">
      <g>
       <use xlink:href="#ma9e1bf0b18" x="280.886783" y="187.38" style="fill: #8a98b8; stroke: #8a98b8; stroke-width: 0.6"/>
      </g>
     </g>
    </g>
    <g id="xtick_22">
     <g id="line2d_22">
      <g>
       <use xlink:href="#ma9e1bf0b18" x="294.522993" y="187.38" style="fill: #8a98b8; stroke: #8a98b8; stroke-width: 0.6"/>
      </g>
     </g>
    </g>
    <g id="xtick_23">
     <g id="line2d_23">
      <g>
       <use xlink:href="#ma9e1bf0b18" x="300.105941" y="187.38" style="fill: #8a98b8; stroke: #8a98b8; stroke-width: 0.6"/>
      </g>
     </g>
    </g>
    <g id="text_6">
     <!-- cost per 1,000 explanations  (USD, log) -->
     <g style="fill: #8a98b8" transform="translate(67.370117 218.139922) scale(0.135 -0.135)">
      <defs>
       <path id="OpenSans-Semibold-63" d="M 1919 -63 
Q 1134 -63 726 395 
Q 319 853 319 1709 
Q 319 2581 745 3050 
Q 1172 3519 1978 3519 
Q 2525 3519 2963 3316 
L 2741 2725 
Q 2275 2906 1972 2906 
Q 1075 2906 1075 1716 
Q 1075 1134 1298 842 
Q 1522 550 1953 550 
Q 2444 550 2881 794 
L 2881 153 
Q 2684 38 2461 -12 
Q 2238 -63 1919 -63 
z
" transform="scale(0.015625)"/>
       <path id="OpenSans-Semibold-6f" d="M 3591 1734 
Q 3591 888 3156 412 
Q 2722 -63 1947 -63 
Q 1463 -63 1091 156 
Q 719 375 519 784 
Q 319 1194 319 1734 
Q 319 2575 750 3047 
Q 1181 3519 1966 3519 
Q 2716 3519 3153 3036 
Q 3591 2553 3591 1734 
z
M 1075 1734 
Q 1075 538 1959 538 
Q 2834 538 2834 1734 
Q 2834 2919 1953 2919 
Q 1491 2919 1283 2612 
Q 1075 2306 1075 1734 
z
" transform="scale(0.015625)"/>
       <path id="OpenSans-Semibold-73" d="M 2847 984 
Q 2847 478 2478 207 
Q 2109 -63 1422 -63 
Q 731 -63 313 147 
L 313 781 
Q 922 500 1447 500 
Q 2125 500 2125 909 
Q 2125 1041 2050 1128 
Q 1975 1216 1803 1309 
Q 1631 1403 1325 1522 
Q 728 1753 517 1984 
Q 306 2216 306 2584 
Q 306 3028 664 3273 
Q 1022 3519 1638 3519 
Q 2247 3519 2791 3272 
L 2553 2719 
Q 1994 2950 1613 2950 
Q 1031 2950 1031 2619 
Q 1031 2456 1182 2343 
Q 1334 2231 1844 2034 
Q 2272 1869 2465 1731 
Q 2659 1594 2753 1414 
Q 2847 1234 2847 984 
z
" transform="scale(0.015625)"/>
       <path id="OpenSans-Semibold-74" d="M 1813 531 
Q 2081 531 2350 616 
L 2350 63 
Q 2228 9 2036 -27 
Q 1844 -63 1638 -63 
Q 594 -63 594 1038 
L 594 2900 
L 122 2900 
L 122 3225 
L 628 3494 
L 878 4225 
L 1331 4225 
L 1331 3456 
L 2316 3456 
L 2316 2900 
L 1331 2900 
L 1331 1050 
Q 1331 784 1464 657 
Q 1597 531 1813 531 
z
" transform="scale(0.015625)"/>
       <path id="OpenSans-Semibold-20" transform="scale(0.015625)"/>
       <path id="OpenSans-Semibold-70" d="M 2278 -63 
Q 1622 -63 1259 409 
L 1216 409 
Q 1259 -28 1259 -122 
L 1259 -1538 
L 525 -1538 
L 525 3456 
L 1119 3456 
Q 1144 3359 1222 2994 
L 1259 2994 
Q 1603 3519 2291 3519 
Q 2938 3519 3298 3050 
Q 3659 2581 3659 1734 
Q 3659 888 3292 412 
Q 2925 -63 2278 -63 
z
M 2100 2919 
Q 1663 2919 1461 2662 
Q 1259 2406 1259 1844 
L 1259 1734 
Q 1259 1103 1459 820 
Q 1659 538 2113 538 
Q 2494 538 2700 850 
Q 2906 1163 2906 1741 
Q 2906 2322 2701 2620 
Q 2497 2919 2100 2919 
z
" transform="scale(0.015625)"/>
       <path id="OpenSans-Semibold-65" d="M 2034 -63 
Q 1228 -63 773 407 
Q 319 878 319 1703 
Q 319 2550 741 3034 
Q 1163 3519 1900 3519 
Q 2584 3519 2981 3103 
Q 3378 2688 3378 1959 
L 3378 1563 
L 1075 1563 
Q 1091 1059 1347 789 
Q 1603 519 2069 519 
Q 2375 519 2639 576 
Q 2903 634 3206 769 
L 3206 172 
Q 2938 44 2663 -9 
Q 2388 -63 2034 -63 
z
M 1900 2963 
Q 1550 2963 1339 2741 
Q 1128 2519 1088 2094 
L 2656 2094 
Q 2650 2522 2450 2742 
Q 2250 2963 1900 2963 
z
" transform="scale(0.015625)"/>
       <path id="OpenSans-Semibold-72" d="M 2278 3519 
Q 2500 3519 2644 3488 
L 2572 2803 
Q 2416 2841 2247 2841 
Q 1806 2841 1532 2553 
Q 1259 2266 1259 1806 
L 1259 0 
L 525 0 
L 525 3456 
L 1100 3456 
L 1197 2847 
L 1234 2847 
Q 1406 3156 1682 3337 
Q 1959 3519 2278 3519 
z
" transform="scale(0.015625)"/>
       <path id="OpenSans-Semibold-31" d="M 2438 0 
L 1703 0 
L 1703 2950 
Q 1703 3478 1728 3788 
Q 1656 3713 1551 3622 
Q 1447 3531 850 3047 
L 481 3513 
L 1825 4569 
L 2438 4569 
L 2438 0 
z
" transform="scale(0.015625)"/>
       <path id="OpenSans-Semibold-2c" d="M 1288 672 
Q 1138 91 738 -825 
L 197 -825 
Q 413 19 519 744 
L 1241 744 
L 1288 672 
z
" transform="scale(0.015625)"/>
       <path id="OpenSans-Semibold-30" d="M 3378 2284 
Q 3378 1094 2995 515 
Q 2613 -63 1825 -63 
Q 1063 -63 669 534 
Q 275 1131 275 2284 
Q 275 3494 658 4067 
Q 1041 4641 1825 4641 
Q 2591 4641 2984 4041 
Q 3378 3441 3378 2284 
z
M 1019 2284 
Q 1019 1350 1211 950 
Q 1403 550 1825 550 
Q 2247 550 2442 956 
Q 2638 1363 2638 2284 
Q 2638 3203 2442 3614 
Q 2247 4025 1825 4025 
Q 1403 4025 1211 3622 
Q 1019 3219 1019 2284 
z
" transform="scale(0.015625)"/>
       <path id="OpenSans-Semibold-78" d="M 1294 1766 
L 134 3456 
L 972 3456 
L 1759 2247 
L 2553 3456 
L 3384 3456 
L 2222 1766 
L 3444 0 
L 2613 0 
L 1759 1294 
L 909 0 
L 78 0 
L 1294 1766 
z
" transform="scale(0.015625)"/>
       <path id="OpenSans-Semibold-6c" d="M 1259 0 
L 525 0 
L 525 4863 
L 1259 4863 
L 1259 0 
z
" transform="scale(0.015625)"/>
       <path id="OpenSans-Semibold-61" d="M 2688 0 
L 2541 481 
L 2516 481 
Q 2266 166 2012 51 
Q 1759 -63 1363 -63 
Q 853 -63 567 212 
Q 281 488 281 991 
Q 281 1525 678 1797 
Q 1075 2069 1888 2094 
L 2484 2113 
L 2484 2297 
Q 2484 2628 2329 2792 
Q 2175 2956 1850 2956 
Q 1584 2956 1340 2878 
Q 1097 2800 872 2694 
L 634 3219 
Q 916 3366 1250 3442 
Q 1584 3519 1881 3519 
Q 2541 3519 2877 3231 
Q 3213 2944 3213 2328 
L 3213 0 
L 2688 0 
z
M 1594 500 
Q 1994 500 2236 723 
Q 2478 947 2478 1350 
L 2478 1650 
L 2034 1631 
Q 1516 1613 1280 1458 
Q 1044 1303 1044 984 
Q 1044 753 1181 626 
Q 1319 500 1594 500 
z
" transform="scale(0.015625)"/>
       <path id="OpenSans-Semibold-6e" d="M 3566 0 
L 2828 0 
L 2828 2125 
Q 2828 2525 2667 2722 
Q 2506 2919 2156 2919 
Q 1691 2919 1475 2644 
Q 1259 2369 1259 1722 
L 1259 0 
L 525 0 
L 525 3456 
L 1100 3456 
L 1203 3003 
L 1241 3003 
Q 1397 3250 1684 3384 
Q 1972 3519 2322 3519 
Q 3566 3519 3566 2253 
L 3566 0 
z
" transform="scale(0.015625)"/>
       <path id="OpenSans-Semibold-69" d="M 1259 0 
L 525 0 
L 525 3456 
L 1259 3456 
L 1259 0 
z
M 481 4372 
Q 481 4569 589 4675 
Q 697 4781 897 4781 
Q 1091 4781 1198 4675 
Q 1306 4569 1306 4372 
Q 1306 4184 1198 4076 
Q 1091 3969 897 3969 
Q 697 3969 589 4076 
Q 481 4184 481 4372 
z
" transform="scale(0.015625)"/>
       <path id="OpenSans-Semibold-28" d="M 256 1753 
Q 256 2581 498 3303 
Q 741 4025 1197 4569 
L 1838 4569 
Q 1403 3981 1172 3251 
Q 941 2522 941 1759 
Q 941 997 1172 281 
Q 1403 -434 1831 -1013 
L 1197 -1013 
Q 738 -481 497 228 
Q 256 938 256 1753 
z
" transform="scale(0.015625)"/>
       <path id="OpenSans-Semibold-55" d="M 4184 4569 
L 4184 1613 
Q 4184 1106 3967 726 
Q 3750 347 3339 142 
Q 2928 -63 2356 -63 
Q 1506 -63 1034 387 
Q 563 838 563 1625 
L 563 4569 
L 1313 4569 
L 1313 1678 
Q 1313 1113 1575 844 
Q 1838 575 2381 575 
Q 3438 575 3438 1684 
L 3438 4569 
L 4184 4569 
z
" transform="scale(0.015625)"/>
       <path id="OpenSans-Semibold-53" d="M 3238 1241 
Q 3238 631 2797 284 
Q 2356 -63 1581 -63 
Q 806 -63 313 178 
L 313 884 
Q 625 738 976 653 
Q 1328 569 1631 569 
Q 2075 569 2286 737 
Q 2497 906 2497 1191 
Q 2497 1447 2303 1625 
Q 2109 1803 1503 2047 
Q 878 2300 622 2625 
Q 366 2950 366 3406 
Q 366 3978 772 4306 
Q 1178 4634 1863 4634 
Q 2519 4634 3169 4347 
L 2931 3738 
Q 2322 3994 1844 3994 
Q 1481 3994 1293 3836 
Q 1106 3678 1106 3419 
Q 1106 3241 1181 3114 
Q 1256 2988 1428 2875 
Q 1600 2763 2047 2578 
Q 2550 2369 2784 2187 
Q 3019 2006 3128 1778 
Q 3238 1550 3238 1241 
z
" transform="scale(0.015625)"/>
       <path id="OpenSans-Semibold-44" d="M 4319 2328 
Q 4319 1197 3691 598 
Q 3063 0 1881 0 
L 603 0 
L 603 4569 
L 2016 4569 
Q 3106 4569 3712 3981 
Q 4319 3394 4319 2328 
z
M 3531 2303 
Q 3531 3944 1997 3944 
L 1350 3944 
L 1350 628 
L 1881 628 
Q 3531 628 3531 2303 
z
" transform="scale(0.015625)"/>
       <path id="OpenSans-Semibold-67" d="M 3444 3456 
L 3444 3053 
L 2853 2944 
Q 2934 2834 2987 2675 
Q 3041 2516 3041 2338 
Q 3041 1803 2672 1497 
Q 2303 1191 1656 1191 
Q 1491 1191 1356 1216 
Q 1119 1069 1119 872 
Q 1119 753 1230 693 
Q 1341 634 1638 634 
L 2241 634 
Q 2813 634 3109 390 
Q 3406 147 3406 -313 
Q 3406 -900 2922 -1219 
Q 2438 -1538 1522 -1538 
Q 816 -1538 444 -1288 
Q 72 -1038 72 -575 
Q 72 -256 273 -39 
Q 475 178 838 263 
Q 691 325 595 464 
Q 500 603 500 756 
Q 500 950 609 1084 
Q 719 1219 934 1350 
Q 666 1466 498 1727 
Q 331 1988 331 2338 
Q 331 2900 686 3209 
Q 1041 3519 1697 3519 
Q 1844 3519 2005 3498 
Q 2166 3478 2247 3456 
L 3444 3456 
z
M 728 -538 
Q 728 -775 942 -903 
Q 1156 -1031 1544 -1031 
Q 2144 -1031 2437 -859 
Q 2731 -688 2731 -403 
Q 2731 -178 2570 -82 
Q 2409 13 1972 13 
L 1416 13 
Q 1100 13 914 -135 
Q 728 -284 728 -538 
z
M 1044 2338 
Q 1044 2013 1211 1838 
Q 1378 1663 1691 1663 
Q 2328 1663 2328 2344 
Q 2328 2681 2170 2864 
Q 2013 3047 1691 3047 
Q 1372 3047 1208 2865 
Q 1044 2684 1044 2338 
z
" transform="scale(0.015625)"/>
       <path id="OpenSans-Semibold-29" d="M 1772 1753 
Q 1772 931 1530 221 
Q 1288 -488 831 -1013 
L 197 -1013 
Q 628 -428 858 284 
Q 1088 997 1088 1759 
Q 1088 2525 856 3251 
Q 625 3978 191 4569 
L 831 4569 
Q 1291 4022 1531 3298 
Q 1772 2575 1772 1753 
z
" transform="scale(0.015625)"/>
      </defs>
      <use xlink:href="#OpenSans-Semibold-63"/>
      <use xlink:href="#OpenSans-Semibold-6f" transform="translate(49.511719 0)"/>
      <use xlink:href="#OpenSans-Semibold-73" transform="translate(110.595703 0)"/>
      <use xlink:href="#OpenSans-Semibold-74" transform="translate(159.277344 0)"/>
      <use xlink:href="#OpenSans-Semibold-20" transform="translate(198.583984 0)"/>
      <use xlink:href="#OpenSans-Semibold-70" transform="translate(224.560547 0)"/>
      <use xlink:href="#OpenSans-Semibold-65" transform="translate(286.865234 0)"/>
      <use xlink:href="#OpenSans-Semibold-72" transform="translate(344.482422 0)"/>
      <use xlink:href="#OpenSans-Semibold-20" transform="translate(387.597656 0)"/>
      <use xlink:href="#OpenSans-Semibold-31" transform="translate(413.574219 0)"/>
      <use xlink:href="#OpenSans-Semibold-2c" transform="translate(470.654297 0)"/>
      <use xlink:href="#OpenSans-Semibold-30" transform="translate(497.363281 0)"/>
      <use xlink:href="#OpenSans-Semibold-30" transform="translate(554.443359 0)"/>
      <use xlink:href="#OpenSans-Semibold-30" transform="translate(611.523438 0)"/>
      <use xlink:href="#OpenSans-Semibold-20" transform="translate(668.603516 0)"/>
      <use xlink:href="#OpenSans-Semibold-65" transform="translate(694.580078 0)"/>
      <use xlink:href="#OpenSans-Semibold-78" transform="translate(750.197266 0)"/>
      <use xlink:href="#OpenSans-Semibold-70" transform="translate(805.275391 0)"/>
      <use xlink:href="#OpenSans-Semibold-6c" transform="translate(867.580078 0)"/>
      <use xlink:href="#OpenSans-Semibold-61" transform="translate(895.460938 0)"/>
      <use xlink:href="#OpenSans-Semibold-6e" transform="translate(953.46875 0)"/>
      <use xlink:href="#OpenSans-Semibold-61" transform="translate(1016.945312 0)"/>
      <use xlink:href="#OpenSans-Semibold-74" transform="translate(1074.953125 0)"/>
      <use xlink:href="#OpenSans-Semibold-69" transform="translate(1114.259766 0)"/>
      <use xlink:href="#OpenSans-Semibold-6f" transform="translate(1142.140625 0)"/>
      <use xlink:href="#OpenSans-Semibold-6e" transform="translate(1203.224609 0)"/>
      <use xlink:href="#OpenSans-Semibold-73" transform="translate(1266.701172 0)"/>
      <use xlink:href="#OpenSans-Semibold-20" transform="translate(1315.382812 0)"/>
      <use xlink:href="#OpenSans-Semibold-20" transform="translate(1341.359375 0)"/>
      <use xlink:href="#OpenSans-Semibold-28" transform="translate(1367.335938 0)"/>
      <use xlink:href="#OpenSans-Semibold-55" transform="translate(1399.025391 0)"/>
      <use xlink:href="#OpenSans-Semibold-53" transform="translate(1473.244141 0)"/>
      <use xlink:href="#OpenSans-Semibold-44" transform="translate(1528.224609 0)"/>
      <use xlink:href="#OpenSans-Semibold-2c" transform="translate(1597.613281 0)"/>
      <use xlink:href="#OpenSans-Semibold-20" transform="translate(1624.322266 0)"/>
      <use xlink:href="#OpenSans-Semibold-6c" transform="translate(1650.298828 0)"/>
      <use xlink:href="#OpenSans-Semibold-6f" transform="translate(1678.179688 0)"/>
      <use xlink:href="#OpenSans-Semibold-67" transform="translate(1739.263672 0)"/>
      <use xlink:href="#OpenSans-Semibold-29" transform="translate(1794.878906 0)"/>
     </g>
    </g>
   </g>
   <g id="matplotlib.axis_2">
    <g id="ytick_1">
     <g id="line2d_24">
      <path d="M 53.958359 180.706667 
L 327.378359 180.706667 
" clip-path="url(#p82d70b7cba)" style="fill: none; stroke: #ffffff; stroke-opacity: 0.09; stroke-width: 0.8; stroke-linecap: square"/>
     </g>
     <g id="line2d_25"/>
     <g id="text_7">
      <!-- 0.84 -->
      <g style="fill: #8a98b8" transform="translate(24.702109 185.645651) scale(0.13 -0.13)">
       <defs>
        <path id="OpenSans-38" d="M 1825 4634 
Q 2450 4634 2815 4343 
Q 3181 4053 3181 3541 
Q 3181 3203 2972 2925 
Q 2763 2647 2303 2419 
Q 2859 2153 3093 1861 
Q 3328 1569 3328 1184 
Q 3328 616 2931 276 
Q 2534 -63 1844 -63 
Q 1113 -63 719 257 
Q 325 578 325 1166 
Q 325 1950 1281 2388 
Q 850 2631 662 2914 
Q 475 3197 475 3547 
Q 475 4044 842 4339 
Q 1209 4634 1825 4634 
z
M 838 1153 
Q 838 778 1098 568 
Q 1359 359 1831 359 
Q 2297 359 2556 578 
Q 2816 797 2816 1178 
Q 2816 1481 2572 1717 
Q 2328 1953 1722 2175 
Q 1256 1975 1047 1733 
Q 838 1491 838 1153 
z
M 1819 4213 
Q 1428 4213 1206 4025 
Q 984 3838 984 3525 
Q 984 3238 1168 3031 
Q 1353 2825 1850 2619 
Q 2297 2806 2483 3022 
Q 2669 3238 2669 3525 
Q 2669 3841 2442 4027 
Q 2216 4213 1819 4213 
z
" transform="scale(0.015625)"/>
        <path id="OpenSans-34" d="M 3531 1050 
L 2853 1050 
L 2853 0 
L 2356 0 
L 2356 1050 
L 134 1050 
L 134 1503 
L 2303 4594 
L 2853 4594 
L 2853 1522 
L 3531 1522 
L 3531 1050 
z
M 2356 1522 
L 2356 3041 
Q 2356 3488 2388 4050 
L 2363 4050 
Q 2213 3750 2081 3553 
L 653 1522 
L 2356 1522 
z
" transform="scale(0.015625)"/>
       </defs>
       <use xlink:href="#OpenSans-30"/>
       <use xlink:href="#OpenSans-2e" transform="translate(57.177734 0)"/>
       <use xlink:href="#OpenSans-38" transform="translate(83.789062 0)"/>
       <use xlink:href="#OpenSans-34" transform="translate(140.966797 0)"/>
      </g>
     </g>
    </g>
    <g id="ytick_2">
     <g id="line2d_26">
      <path d="M 53.958359 147.34 
L 327.378359 147.34 
" clip-path="url(#p82d70b7cba)" style="fill: none; stroke: #ffffff; stroke-opacity: 0.09; stroke-width: 0.8; stroke-linecap: square"/>
     </g>
     <g id="line2d_27"/>
     <g id="text_8">
      <!-- 0.85 -->
      <g style="fill: #8a98b8" transform="translate(24.702109 152.278984) scale(0.13 -0.13)">
       <defs>
        <path id="OpenSans-35" d="M 1741 2791 
Q 2463 2791 2877 2433 
Q 3291 2075 3291 1453 
Q 3291 744 2839 340 
Q 2388 -63 1594 -63 
Q 822 -63 416 184 
L 416 684 
Q 634 544 959 464 
Q 1284 384 1600 384 
Q 2150 384 2454 643 
Q 2759 903 2759 1394 
Q 2759 2350 1588 2350 
Q 1291 2350 794 2259 
L 525 2431 
L 697 4569 
L 2969 4569 
L 2969 4091 
L 1141 4091 
L 1025 2719 
Q 1384 2791 1741 2791 
z
" transform="scale(0.015625)"/>
       </defs>
       <use xlink:href="#OpenSans-30"/>
       <use xlink:href="#OpenSans-2e" transform="translate(57.177734 0)"/>
       <use xlink:href="#OpenSans-38" transform="translate(83.789062 0)"/>
       <use xlink:href="#OpenSans-35" transform="translate(140.966797 0)"/>
      </g>
     </g>
    </g>
    <g id="ytick_3">
     <g id="line2d_28">
      <path d="M 53.958359 113.973333 
L 327.378359 113.973333 
" clip-path="url(#p82d70b7cba)" style="fill: none; stroke: #ffffff; stroke-opacity: 0.09; stroke-width: 0.8; stroke-linecap: square"/>
     </g>
     <g id="line2d_29"/>
     <g id="text_9">
      <!-- 0.86 -->
      <g style="fill: #8a98b8" transform="translate(24.702109 118.912318) scale(0.13 -0.13)">
       <defs>
        <path id="OpenSans-36" d="M 366 1953 
Q 366 3300 889 3967 
Q 1413 4634 2438 4634 
Q 2791 4634 2994 4575 
L 2994 4128 
Q 2753 4206 2444 4206 
Q 1709 4206 1321 3748 
Q 934 3291 897 2309 
L 934 2309 
Q 1278 2847 2022 2847 
Q 2638 2847 2992 2475 
Q 3347 2103 3347 1466 
Q 3347 753 2958 345 
Q 2569 -63 1906 -63 
Q 1197 -63 781 470 
Q 366 1003 366 1953 
z
M 1900 378 
Q 2344 378 2589 658 
Q 2834 938 2834 1466 
Q 2834 1919 2606 2178 
Q 2378 2438 1925 2438 
Q 1644 2438 1409 2322 
Q 1175 2206 1036 2003 
Q 897 1800 897 1581 
Q 897 1259 1022 981 
Q 1147 703 1376 540 
Q 1606 378 1900 378 
z
" transform="scale(0.015625)"/>
       </defs>
       <use xlink:href="#OpenSans-30"/>
       <use xlink:href="#OpenSans-2e" transform="translate(57.177734 0)"/>
       <use xlink:href="#OpenSans-38" transform="translate(83.789062 0)"/>
       <use xlink:href="#OpenSans-36" transform="translate(140.966797 0)"/>
      </g>
     </g>
    </g>
    <g id="ytick_4">
     <g id="line2d_30">
      <path d="M 53.958359 80.606667 
L 327.378359 80.606667 
" clip-path="url(#p82d70b7cba)" style="fill: none; stroke: #ffffff; stroke-opacity: 0.09; stroke-width: 0.8; stroke-linecap: square"/>
     </g>
     <g id="line2d_31"/>
     <g id="text_10">
      <!-- 0.87 -->
      <g style="fill: #8a98b8" transform="translate(24.702109 85.545651) scale(0.13 -0.13)">
       <use xlink:href="#OpenSans-30"/>
       <use xlink:href="#OpenSans-2e" transform="translate(57.177734 0)"/>
       <use xlink:href="#OpenSans-38" transform="translate(83.789062 0)"/>
       <use xlink:href="#OpenSans-37" transform="translate(140.966797 0)"/>
      </g>
     </g>
    </g>
    <g id="ytick_5">
     <g id="line2d_32">
      <path d="M 53.958359 47.24 
L 327.378359 47.24 
" clip-path="url(#p82d70b7cba)" style="fill: none; stroke: #ffffff; stroke-opacity: 0.09; stroke-width: 0.8; stroke-linecap: square"/>
     </g>
     <g id="line2d_33"/>
     <g id="text_11">
      <!-- 0.88 -->
      <g style="fill: #8a98b8" transform="translate(24.702109 52.178984) scale(0.13 -0.13)">
       <use xlink:href="#OpenSans-30"/>
       <use xlink:href="#OpenSans-2e" transform="translate(57.177734 0)"/>
       <use xlink:href="#OpenSans-38" transform="translate(83.789062 0)"/>
       <use xlink:href="#OpenSans-38" transform="translate(140.966797 0)"/>
      </g>
     </g>
    </g>
    <g id="text_12">
     <!-- quality (BERTScore F1) -->
     <g style="fill: #8a98b8" transform="translate(17.457891 169.162734) rotate(-90) scale(0.135 -0.135)">
      <defs>
       <path id="OpenSans-Semibold-71" d="M 1894 525 
Q 2356 525 2557 792 
Q 2759 1059 2759 1600 
L 2759 1716 
Q 2759 2356 2551 2637 
Q 2344 2919 1881 2919 
Q 1488 2919 1281 2606 
Q 1075 2294 1075 1709 
Q 1075 525 1894 525 
z
M 1684 -63 
Q 1044 -63 681 407 
Q 319 878 319 1722 
Q 319 2566 687 3042 
Q 1056 3519 1703 3519 
Q 2028 3519 2286 3398 
Q 2544 3278 2747 3003 
L 2772 3003 
L 2853 3456 
L 3463 3456 
L 3463 -1538 
L 2725 -1538 
L 2725 -72 
Q 2725 66 2737 219 
Q 2750 372 2759 453 
L 2719 453 
Q 2394 -63 1684 -63 
z
" transform="scale(0.015625)"/>
       <path id="OpenSans-Semibold-75" d="M 2963 0 
L 2859 453 
L 2822 453 
Q 2669 213 2386 75 
Q 2103 -63 1741 -63 
Q 1113 -63 803 250 
Q 494 563 494 1197 
L 494 3456 
L 1234 3456 
L 1234 1325 
Q 1234 928 1396 729 
Q 1559 531 1906 531 
Q 2369 531 2586 807 
Q 2803 1084 2803 1734 
L 2803 3456 
L 3541 3456 
L 3541 0 
L 2963 0 
z
" transform="scale(0.015625)"/>
       <path id="OpenSans-Semibold-79" d="M 0 3456 
L 800 3456 
L 1503 1497 
Q 1663 1078 1716 709 
L 1741 709 
Q 1769 881 1844 1126 
Q 1919 1372 2638 3456 
L 3431 3456 
L 1953 -459 
Q 1550 -1538 609 -1538 
Q 366 -1538 134 -1484 
L 134 -903 
Q 300 -941 513 -941 
Q 1044 -941 1259 -325 
L 1388 0 
L 0 3456 
z
" transform="scale(0.015625)"/>
       <path id="OpenSans-Semibold-42" d="M 603 4569 
L 1959 4569 
Q 2903 4569 3323 4294 
Q 3744 4019 3744 3425 
Q 3744 3025 3537 2759 
Q 3331 2494 2944 2425 
L 2944 2394 
Q 3425 2303 3651 2036 
Q 3878 1769 3878 1313 
Q 3878 697 3448 348 
Q 3019 0 2253 0 
L 603 0 
L 603 4569 
z
M 1350 2681 
L 2069 2681 
Q 2538 2681 2753 2829 
Q 2969 2978 2969 3334 
Q 2969 3656 2736 3800 
Q 2503 3944 1997 3944 
L 1350 3944 
L 1350 2681 
z
M 1350 2075 
L 1350 628 
L 2144 628 
Q 2613 628 2852 808 
Q 3091 988 3091 1375 
Q 3091 1731 2847 1903 
Q 2603 2075 2106 2075 
L 1350 2075 
z
" transform="scale(0.015625)"/>
       <path id="OpenSans-Semibold-45" d="M 3188 0 
L 603 0 
L 603 4569 
L 3188 4569 
L 3188 3938 
L 1350 3938 
L 1350 2694 
L 3072 2694 
L 3072 2069 
L 1350 2069 
L 1350 634 
L 3188 634 
L 3188 0 
z
" transform="scale(0.015625)"/>
       <path id="OpenSans-Semibold-52" d="M 1350 2444 
L 1869 2444 
Q 2391 2444 2625 2637 
Q 2859 2831 2859 3213 
Q 2859 3600 2606 3769 
Q 2353 3938 1844 3938 
L 1350 3938 
L 1350 2444 
z
M 1350 1825 
L 1350 0 
L 603 0 
L 603 4569 
L 1894 4569 
Q 2778 4569 3203 4237 
Q 3628 3906 3628 3238 
Q 3628 2384 2741 2022 
L 4031 0 
L 3181 0 
L 2088 1825 
L 1350 1825 
z
" transform="scale(0.015625)"/>
       <path id="OpenSans-Semibold-54" d="M 2181 0 
L 1434 0 
L 1434 3928 
L 91 3928 
L 91 4569 
L 3525 4569 
L 3525 3928 
L 2181 3928 
L 2181 0 
z
" transform="scale(0.015625)"/>
       <path id="OpenSans-Semibold-46" d="M 1344 0 
L 603 0 
L 603 4569 
L 3181 4569 
L 3181 3938 
L 1344 3938 
L 1344 2509 
L 3066 2509 
L 3066 1875 
L 1344 1875 
L 1344 0 
z
" transform="scale(0.015625)"/>
      </defs>
      <use xlink:href="#OpenSans-Semibold-71"/>
      <use xlink:href="#OpenSans-Semibold-75" transform="translate(62.304688 0)"/>
      <use xlink:href="#OpenSans-Semibold-61" transform="translate(125.78125 0)"/>
      <use xlink:href="#OpenSans-Semibold-6c" transform="translate(183.789062 0)"/>
      <use xlink:href="#OpenSans-Semibold-69" transform="translate(211.669922 0)"/>
      <use xlink:href="#OpenSans-Semibold-74" transform="translate(239.550781 0)"/>
      <use xlink:href="#OpenSans-Semibold-79" transform="translate(278.857422 0)"/>
      <use xlink:href="#OpenSans-Semibold-20" transform="translate(332.470703 0)"/>
      <use xlink:href="#OpenSans-Semibold-28" transform="translate(358.447266 0)"/>
      <use xlink:href="#OpenSans-Semibold-42" transform="translate(390.136719 0)"/>
      <use xlink:href="#OpenSans-Semibold-45" transform="translate(456.152344 0)"/>
      <use xlink:href="#OpenSans-Semibold-52" transform="translate(511.962891 0)"/>
      <use xlink:href="#OpenSans-Semibold-54" transform="translate(575.878906 0)"/>
      <use xlink:href="#OpenSans-Semibold-53" transform="translate(632.470703 0)"/>
      <use xlink:href="#OpenSans-Semibold-63" transform="translate(687.451172 0)"/>
      <use xlink:href="#OpenSans-Semibold-6f" transform="translate(736.962891 0)"/>
      <use xlink:href="#OpenSans-Semibold-72" transform="translate(798.046875 0)"/>
      <use xlink:href="#OpenSans-Semibold-65" transform="translate(839.162109 0)"/>
      <use xlink:href="#OpenSans-Semibold-20" transform="translate(896.779297 0)"/>
      <use xlink:href="#OpenSans-Semibold-46" transform="translate(922.755859 0)"/>
      <use xlink:href="#OpenSans-Semibold-31" transform="translate(975.978516 0)"/>
      <use xlink:href="#OpenSans-Semibold-29" transform="translate(1033.058594 0)"/>
     </g>
    </g>
   </g>
   <g id="line2d_34">
    <path d="M 53.958359 62.900465 
L 327.378359 62.900465 
" clip-path="url(#p82d70b7cba)" style="fill: none; stroke-dasharray: 4.4,3.3; stroke-dashoffset: 0; stroke: #fbbf77; stroke-opacity: 0.8; stroke-width: 1.1"/>
   </g>
   <g id="patch_4">
    <path d="M 53.958359 187.38 
L 53.958359 7.2 
" style="fill: none; opacity: 0.18; stroke: #ffffff; stroke-linejoin: miter; stroke-linecap: square"/>
   </g>
   <g id="patch_5">
    <path d="M 53.958359 187.38 
L 327.378359 187.38 
" style="fill: none; opacity: 0.18; stroke: #ffffff; stroke-linejoin: miter; stroke-linecap: square"/>
   </g>
   <g id="text_13">
    <!-- quality frontier -->
    <g style="fill: #fbbf77" transform="translate(244.871587 55.612496) scale(0.095 -0.095)">
     <defs>
      <path id="OpenSans-Bold-71" d="M 1947 684 
Q 2309 684 2478 892 
Q 2647 1100 2663 1619 
L 2663 1734 
Q 2663 2297 2489 2540 
Q 2316 2784 1931 2784 
Q 1259 2784 1259 1728 
Q 1259 1203 1426 943 
Q 1594 684 1947 684 
z
M 1606 -63 
Q 988 -63 638 414 
Q 288 891 288 1741 
Q 288 2597 645 3078 
Q 1003 3559 1625 3559 
Q 1956 3559 2203 3434 
Q 2450 3309 2638 3047 
L 2663 3047 
L 2747 3494 
L 3553 3494 
L 3553 -1538 
L 2597 -1538 
L 2597 -72 
Q 2597 119 2638 453 
L 2597 453 
Q 2444 200 2191 68 
Q 1938 -63 1606 -63 
z
" transform="scale(0.015625)"/>
      <path id="OpenSans-Bold-75" d="M 2975 0 
L 2847 447 
L 2797 447 
Q 2644 203 2362 70 
Q 2081 -63 1722 -63 
Q 1106 -63 793 267 
Q 481 597 481 1216 
L 481 3494 
L 1434 3494 
L 1434 1453 
Q 1434 1075 1568 886 
Q 1703 697 1997 697 
Q 2397 697 2575 964 
Q 2753 1231 2753 1850 
L 2753 3494 
L 3706 3494 
L 3706 0 
L 2975 0 
z
" transform="scale(0.015625)"/>
      <path id="OpenSans-Bold-61" d="M 2719 0 
L 2534 475 
L 2509 475 
Q 2269 172 2014 54 
Q 1759 -63 1350 -63 
Q 847 -63 558 225 
Q 269 513 269 1044 
Q 269 1600 658 1864 
Q 1047 2128 1831 2156 
L 2438 2175 
L 2438 2328 
Q 2438 2859 1894 2859 
Q 1475 2859 909 2606 
L 594 3250 
Q 1197 3566 1931 3566 
Q 2634 3566 3009 3259 
Q 3384 2953 3384 2328 
L 3384 0 
L 2719 0 
z
M 2438 1619 
L 2069 1606 
Q 1653 1594 1450 1456 
Q 1247 1319 1247 1038 
Q 1247 634 1709 634 
Q 2041 634 2239 825 
Q 2438 1016 2438 1331 
L 2438 1619 
z
" transform="scale(0.015625)"/>
      <path id="OpenSans-Bold-6c" d="M 1453 0 
L 500 0 
L 500 4863 
L 1453 4863 
L 1453 0 
z
" transform="scale(0.015625)"/>
      <path id="OpenSans-Bold-69" d="M 459 4397 
Q 459 4863 978 4863 
Q 1497 4863 1497 4397 
Q 1497 4175 1367 4051 
Q 1238 3928 978 3928 
Q 459 3928 459 4397 
z
M 1453 0 
L 500 0 
L 500 3494 
L 1453 3494 
L 1453 0 
z
" transform="scale(0.015625)"/>
      <path id="OpenSans-Bold-74" d="M 1972 697 
Q 2222 697 2572 806 
L 2572 97 
Q 2216 -63 1697 -63 
Q 1125 -63 864 226 
Q 603 516 603 1094 
L 603 2778 
L 147 2778 
L 147 3181 
L 672 3500 
L 947 4238 
L 1556 4238 
L 1556 3494 
L 2534 3494 
L 2534 2778 
L 1556 2778 
L 1556 1094 
Q 1556 891 1670 794 
Q 1784 697 1972 697 
z
" transform="scale(0.015625)"/>
      <path id="OpenSans-Bold-79" d="M 0 3494 
L 1044 3494 
L 1703 1528 
Q 1788 1272 1819 922 
L 1838 922 
Q 1872 1244 1972 1528 
L 2619 3494 
L 3641 3494 
L 2163 -447 
Q 1959 -994 1582 -1266 
Q 1206 -1538 703 -1538 
Q 456 -1538 219 -1484 
L 219 -728 
Q 391 -769 594 -769 
Q 847 -769 1036 -614 
Q 1225 -459 1331 -147 
L 1388 25 
L 0 3494 
z
" transform="scale(0.015625)"/>
      <path id="OpenSans-Bold-20" transform="scale(0.015625)"/>
      <path id="OpenSans-Bold-66" d="M 2431 2778 
L 1606 2778 
L 1606 0 
L 653 0 
L 653 2778 
L 128 2778 
L 128 3238 
L 653 3494 
L 653 3750 
Q 653 4347 947 4622 
Q 1241 4897 1888 4897 
Q 2381 4897 2766 4750 
L 2522 4050 
Q 2234 4141 1991 4141 
Q 1788 4141 1697 4020 
Q 1606 3900 1606 3713 
L 1606 3494 
L 2431 3494 
L 2431 2778 
z
" transform="scale(0.015625)"/>
      <path id="OpenSans-Bold-72" d="M 2450 3559 
Q 2644 3559 2772 3531 
L 2700 2638 
Q 2584 2669 2419 2669 
Q 1963 2669 1708 2434 
Q 1453 2200 1453 1778 
L 1453 0 
L 500 0 
L 500 3494 
L 1222 3494 
L 1363 2906 
L 1409 2906 
Q 1572 3200 1848 3379 
Q 2125 3559 2450 3559 
z
" transform="scale(0.015625)"/>
      <path id="OpenSans-Bold-6f" d="M 1259 1753 
Q 1259 1234 1429 968 
Q 1600 703 1984 703 
Q 2366 703 2533 967 
Q 2700 1231 2700 1753 
Q 2700 2272 2531 2531 
Q 2363 2791 1978 2791 
Q 1597 2791 1428 2533 
Q 1259 2275 1259 1753 
z
M 3675 1753 
Q 3675 900 3225 418 
Q 2775 -63 1972 -63 
Q 1469 -63 1084 157 
Q 700 378 494 790 
Q 288 1203 288 1753 
Q 288 2609 734 3084 
Q 1181 3559 1991 3559 
Q 2494 3559 2878 3340 
Q 3263 3122 3469 2712 
Q 3675 2303 3675 1753 
z
" transform="scale(0.015625)"/>
      <path id="OpenSans-Bold-6e" d="M 3725 0 
L 2772 0 
L 2772 2041 
Q 2772 2419 2637 2608 
Q 2503 2797 2209 2797 
Q 1809 2797 1631 2530 
Q 1453 2263 1453 1644 
L 1453 0 
L 500 0 
L 500 3494 
L 1228 3494 
L 1356 3047 
L 1409 3047 
Q 1569 3300 1848 3429 
Q 2128 3559 2484 3559 
Q 3094 3559 3409 3229 
Q 3725 2900 3725 2278 
L 3725 0 
z
" transform="scale(0.015625)"/>
      <path id="OpenSans-Bold-65" d="M 1947 2881 
Q 1644 2881 1472 2689 
Q 1300 2497 1275 2144 
L 2613 2144 
Q 2606 2497 2428 2689 
Q 2250 2881 1947 2881 
z
M 2081 -63 
Q 1238 -63 763 403 
Q 288 869 288 1722 
Q 288 2600 727 3079 
Q 1166 3559 1941 3559 
Q 2681 3559 3093 3137 
Q 3506 2716 3506 1972 
L 3506 1509 
L 1253 1509 
Q 1269 1103 1494 875 
Q 1719 647 2125 647 
Q 2441 647 2722 712 
Q 3003 778 3309 922 
L 3309 184 
Q 3059 59 2775 -2 
Q 2491 -63 2081 -63 
z
" transform="scale(0.015625)"/>
     </defs>
     <use xlink:href="#OpenSans-Bold-71"/>
     <use xlink:href="#OpenSans-Bold-75" transform="translate(63.28125 0)"/>
     <use xlink:href="#OpenSans-Bold-61" transform="translate(129.003906 0)"/>
     <use xlink:href="#OpenSans-Bold-6c" transform="translate(189.404297 0)"/>
     <use xlink:href="#OpenSans-Bold-69" transform="translate(219.921875 0)"/>
     <use xlink:href="#OpenSans-Bold-74" transform="translate(250.439453 0)"/>
     <use xlink:href="#OpenSans-Bold-79" transform="translate(293.847656 0)"/>
     <use xlink:href="#OpenSans-Bold-20" transform="translate(350.732422 0)"/>
     <use xlink:href="#OpenSans-Bold-66" transform="translate(376.708984 0)"/>
     <use xlink:href="#OpenSans-Bold-72" transform="translate(415.429688 0)"/>
     <use xlink:href="#OpenSans-Bold-6f" transform="translate(458.839844 0)"/>
     <use xlink:href="#OpenSans-Bold-6e" transform="translate(520.753906 0)"/>
     <use xlink:href="#OpenSans-Bold-74" transform="translate(586.476562 0)"/>
     <use xlink:href="#OpenSans-Bold-69" transform="translate(629.884766 0)"/>
     <use xlink:href="#OpenSans-Bold-65" transform="translate(660.402344 0)"/>
     <use xlink:href="#OpenSans-Bold-72" transform="translate(719.484375 0)"/>
    </g>
   </g>
   <g id="text_14">
    <!-- Claude -->
    <g style="fill: #ff9e5e" transform="translate(270.495848 88.287048) scale(0.12 -0.12)">
     <defs>
      <path id="OpenSans-Bold-43" d="M 2516 3828 
Q 1969 3828 1669 3417 
Q 1369 3006 1369 2272 
Q 1369 744 2516 744 
Q 2997 744 3681 984 
L 3681 172 
Q 3119 -63 2425 -63 
Q 1428 -63 900 542 
Q 372 1147 372 2278 
Q 372 2991 631 3527 
Q 891 4063 1377 4348 
Q 1863 4634 2516 4634 
Q 3181 4634 3853 4313 
L 3541 3525 
Q 3284 3647 3025 3737 
Q 2766 3828 2516 3828 
z
" transform="scale(0.015625)"/>
      <path id="OpenSans-Bold-64" d="M 1606 -63 
Q 991 -63 639 415 
Q 288 894 288 1741 
Q 288 2600 645 3079 
Q 1003 3559 1631 3559 
Q 2291 3559 2638 3047 
L 2669 3047 
Q 2597 3438 2597 3744 
L 2597 4863 
L 3553 4863 
L 3553 0 
L 2822 0 
L 2638 453 
L 2597 453 
Q 2272 -63 1606 -63 
z
M 1941 697 
Q 2306 697 2476 909 
Q 2647 1122 2663 1631 
L 2663 1734 
Q 2663 2297 2489 2540 
Q 2316 2784 1925 2784 
Q 1606 2784 1429 2514 
Q 1253 2244 1253 1728 
Q 1253 1213 1431 955 
Q 1609 697 1941 697 
z
" transform="scale(0.015625)"/>
     </defs>
     <use xlink:href="#OpenSans-Bold-43"/>
     <use xlink:href="#OpenSans-Bold-6c" transform="translate(63.720703 0)"/>
     <use xlink:href="#OpenSans-Bold-61" transform="translate(94.238281 0)"/>
     <use xlink:href="#OpenSans-Bold-75" transform="translate(154.638672 0)"/>
     <use xlink:href="#OpenSans-Bold-64" transform="translate(220.361328 0)"/>
     <use xlink:href="#OpenSans-Bold-65" transform="translate(283.642578 0)"/>
    </g>
   </g>
   <g id="text_15">
    <!-- DeepSeek -->
    <g style="fill: #fbbf77" transform="translate(116.249206 39.232631) scale(0.12 -0.12)">
     <defs>
      <path id="OpenSans-Bold-44" d="M 4366 2328 
Q 4366 1200 3723 600 
Q 3081 0 1869 0 
L 575 0 
L 575 4569 
L 2009 4569 
Q 3128 4569 3747 3978 
Q 4366 3388 4366 2328 
z
M 3359 2303 
Q 3359 3775 2059 3775 
L 1544 3775 
L 1544 800 
L 1959 800 
Q 3359 800 3359 2303 
z
" transform="scale(0.015625)"/>
      <path id="OpenSans-Bold-70" d="M 2419 -63 
Q 1803 -63 1453 384 
L 1403 384 
Q 1453 -53 1453 -122 
L 1453 -1538 
L 500 -1538 
L 500 3494 
L 1275 3494 
L 1409 3041 
L 1453 3041 
Q 1788 3559 2444 3559 
Q 3063 3559 3413 3081 
Q 3763 2603 3763 1753 
Q 3763 1194 3598 781 
Q 3434 369 3131 153 
Q 2828 -63 2419 -63 
z
M 2138 2797 
Q 1784 2797 1621 2580 
Q 1459 2363 1453 1863 
L 1453 1759 
Q 1453 1197 1620 953 
Q 1788 709 2150 709 
Q 2791 709 2791 1766 
Q 2791 2281 2633 2539 
Q 2475 2797 2138 2797 
z
" transform="scale(0.015625)"/>
      <path id="OpenSans-Bold-53" d="M 3272 1269 
Q 3272 650 2826 293 
Q 2381 -63 1588 -63 
Q 856 -63 294 213 
L 294 1113 
Q 756 906 1076 822 
Q 1397 738 1663 738 
Q 1981 738 2151 859 
Q 2322 981 2322 1222 
Q 2322 1356 2247 1461 
Q 2172 1566 2026 1662 
Q 1881 1759 1434 1972 
Q 1016 2169 806 2350 
Q 597 2531 472 2772 
Q 347 3013 347 3334 
Q 347 3941 758 4287 
Q 1169 4634 1894 4634 
Q 2250 4634 2573 4550 
Q 2897 4466 3250 4313 
L 2938 3559 
Q 2572 3709 2333 3768 
Q 2094 3828 1863 3828 
Q 1588 3828 1441 3700 
Q 1294 3572 1294 3366 
Q 1294 3238 1353 3142 
Q 1413 3047 1542 2958 
Q 1672 2869 2156 2638 
Q 2797 2331 3034 2023 
Q 3272 1716 3272 1269 
z
" transform="scale(0.015625)"/>
      <path id="OpenSans-Bold-6b" d="M 1416 1900 
L 1831 2431 
L 2809 3494 
L 3884 3494 
L 2497 1978 
L 3969 0 
L 2869 0 
L 1863 1416 
L 1453 1088 
L 1453 0 
L 500 0 
L 500 4863 
L 1453 4863 
L 1453 2694 
L 1403 1900 
L 1416 1900 
z
" transform="scale(0.015625)"/>
     </defs>
     <use xlink:href="#OpenSans-Bold-44"/>
     <use xlink:href="#OpenSans-Bold-65" transform="translate(74.023438 0)"/>
     <use xlink:href="#OpenSans-Bold-65" transform="translate(133.105469 0)"/>
     <use xlink:href="#OpenSans-Bold-70" transform="translate(192.1875 0)"/>
     <use xlink:href="#OpenSans-Bold-53" transform="translate(255.46875 0)"/>
     <use xlink:href="#OpenSans-Bold-65" transform="translate(310.546875 0)"/>
     <use xlink:href="#OpenSans-Bold-65" transform="translate(369.628906 0)"/>
     <use xlink:href="#OpenSans-Bold-6b" transform="translate(428.710938 0)"/>
    </g>
   </g>
   <g id="text_16">
    <!-- GPT-4o -->
    <g style="fill: #34d399" transform="translate(114.072933 88.534215) scale(0.12 -0.12)">
     <defs>
      <path id="OpenSans-Bold-47" d="M 2309 2566 
L 4122 2566 
L 4122 197 
Q 3681 53 3292 -5 
Q 2903 -63 2497 -63 
Q 1463 -63 917 545 
Q 372 1153 372 2291 
Q 372 3397 1005 4015 
Q 1638 4634 2759 4634 
Q 3463 4634 4116 4353 
L 3794 3578 
Q 3294 3828 2753 3828 
Q 2125 3828 1747 3406 
Q 1369 2984 1369 2272 
Q 1369 1528 1673 1136 
Q 1978 744 2559 744 
Q 2863 744 3175 806 
L 3175 1759 
L 2309 1759 
L 2309 2566 
z
" transform="scale(0.015625)"/>
      <path id="OpenSans-Bold-50" d="M 1544 2419 
L 1863 2419 
Q 2309 2419 2531 2595 
Q 2753 2772 2753 3109 
Q 2753 3450 2567 3612 
Q 2381 3775 1984 3775 
L 1544 3775 
L 1544 2419 
z
M 3731 3144 
Q 3731 2406 3270 2015 
Q 2809 1625 1959 1625 
L 1544 1625 
L 1544 0 
L 575 0 
L 575 4569 
L 2034 4569 
Q 2866 4569 3298 4211 
Q 3731 3853 3731 3144 
z
" transform="scale(0.015625)"/>
      <path id="OpenSans-Bold-54" d="M 2338 0 
L 1369 0 
L 1369 3763 
L 128 3763 
L 128 4569 
L 3578 4569 
L 3578 3763 
L 2338 3763 
L 2338 0 
z
" transform="scale(0.015625)"/>
      <path id="OpenSans-Bold-2d" d="M 191 1325 
L 191 2106 
L 1869 2106 
L 1869 1325 
L 191 1325 
z
" transform="scale(0.015625)"/>
      <path id="OpenSans-Bold-34" d="M 3553 947 
L 3003 947 
L 3003 0 
L 2059 0 
L 2059 947 
L 109 947 
L 109 1619 
L 2113 4569 
L 3003 4569 
L 3003 1697 
L 3553 1697 
L 3553 947 
z
M 2059 1697 
L 2059 2472 
Q 2059 2666 2075 3034 
Q 2091 3403 2100 3463 
L 2075 3463 
Q 1959 3206 1797 2963 
L 959 1697 
L 2059 1697 
z
" transform="scale(0.015625)"/>
     </defs>
     <use xlink:href="#OpenSans-Bold-47"/>
     <use xlink:href="#OpenSans-Bold-50" transform="translate(72.412109 0)"/>
     <use xlink:href="#OpenSans-Bold-54" transform="translate(135.205078 0)"/>
     <use xlink:href="#OpenSans-Bold-2d" transform="translate(189.115234 0)"/>
     <use xlink:href="#OpenSans-Bold-34" transform="translate(221.292969 0)"/>
     <use xlink:href="#OpenSans-Bold-6f" transform="translate(278.373047 0)"/>
    </g>
   </g>
   <g id="text_17">
    <!-- Gemma -->
    <g style="fill: #e879c7" transform="translate(89.112595 160.503033) scale(0.12 -0.12)">
     <defs>
      <path id="OpenSans-Bold-6d" d="M 3628 0 
L 2675 0 
L 2675 2041 
Q 2675 2419 2548 2608 
Q 2422 2797 2150 2797 
Q 1784 2797 1618 2528 
Q 1453 2259 1453 1644 
L 1453 0 
L 500 0 
L 500 3494 
L 1228 3494 
L 1356 3047 
L 1409 3047 
Q 1550 3288 1815 3423 
Q 2081 3559 2425 3559 
Q 3209 3559 3488 3047 
L 3572 3047 
Q 3713 3291 3986 3425 
Q 4259 3559 4603 3559 
Q 5197 3559 5501 3254 
Q 5806 2950 5806 2278 
L 5806 0 
L 4850 0 
L 4850 2041 
Q 4850 2419 4723 2608 
Q 4597 2797 4325 2797 
Q 3975 2797 3801 2547 
Q 3628 2297 3628 1753 
L 3628 0 
z
" transform="scale(0.015625)"/>
     </defs>
     <use xlink:href="#OpenSans-Bold-47"/>
     <use xlink:href="#OpenSans-Bold-65" transform="translate(72.412109 0)"/>
     <use xlink:href="#OpenSans-Bold-6d" transform="translate(131.494141 0)"/>
     <use xlink:href="#OpenSans-Bold-6d" transform="translate(229.6875 0)"/>
     <use xlink:href="#OpenSans-Bold-61" transform="translate(327.880859 0)"/>
    </g>
   </g>
   <g id="PathCollection_1">
    <path d="M 145.692331 42.332333 
L 142.597619 51.856876 
L 132.582921 51.856876 
L 140.684982 57.743368 
L 137.59027 67.267911 
L 145.692331 61.381419 
L 153.794391 67.267911 
L 150.699679 57.743368 
L 158.80174 51.856876 
L 148.787042 51.856876 
z
" clip-path="url(#p82d70b7cba)" style="fill: #fbbf77; fill-opacity: 0.2"/>
   </g>
   <g id="PathCollection_2">
    <defs>
     <path id="mfd26ffcd53" d="M 0 7.245688 
C 1.921579 7.245688 3.764714 6.482237 5.123475 5.123475 
C 6.482237 3.764714 7.245688 1.921579 7.245688 0 
C 7.245688 -1.921579 6.482237 -3.764714 5.123475 -5.123475 
C 3.764714 -6.482237 1.921579 -7.245688 0 -7.245688 
C -1.921579 -7.245688 -3.764714 -6.482237 -5.123475 -5.123475 
C -6.482237 -3.764714 -7.245688 -1.921579 -7.245688 0 
C -7.245688 1.921579 -6.482237 3.764714 -5.123475 5.123475 
C -3.764714 6.482237 -1.921579 7.245688 0 7.245688 
z
" style="stroke: #121826; stroke-width: 1.4"/>
    </defs>
    <g clip-path="url(#p82d70b7cba)">
     <use xlink:href="#mfd26ffcd53" x="291.058973" y="66.168923" style="fill: #ff9e5e; stroke: #121826; stroke-width: 1.4"/>
    </g>
   </g>
   <g id="PathCollection_3">
    <defs>
     <path id="m044278e3e0" d="M 0 -10.488088 
L -2.354723 -3.240997 
L -9.974765 -3.240998 
L -3.810021 1.237951 
L -6.164744 8.485042 
L -0 4.006093 
L 6.164744 8.485042 
L 3.810021 1.237951 
L 9.974765 -3.240998 
L 2.354723 -3.240997 
z
" style="stroke: #121826; stroke-width: 1.4"/>
    </defs>
    <g clip-path="url(#p82d70b7cba)">
     <use xlink:href="#m044278e3e0" x="145.692331" y="56.116381" style="fill: #fbbf77; stroke: #121826; stroke-width: 1.4"/>
    </g>
   </g>
   <g id="PathCollection_4">
    <defs>
     <path id="mc72d3e3cd8" d="M 0 7.245688 
C 1.921579 7.245688 3.764714 6.482237 5.123475 5.123475 
C 6.482237 3.764714 7.245688 1.921579 7.245688 0 
C 7.245688 -1.921579 6.482237 -3.764714 5.123475 -5.123475 
C 3.764714 -6.482237 1.921579 -7.245688 0 -7.245688 
C -1.921579 -7.245688 -3.764714 -6.482237 -5.123475 -5.123475 
C -6.482237 -3.764714 -7.245688 -1.921579 -7.245688 0 
C -7.245688 1.921579 -6.482237 3.764714 -5.123475 5.123475 
C -3.764714 6.482237 -1.921579 7.245688 0 7.245688 
z
" style="stroke: #121826; stroke-width: 1.4"/>
    </defs>
    <g clip-path="url(#p82d70b7cba)">
     <use xlink:href="#mc72d3e3cd8" x="134.489808" y="66.41609" style="fill: #34d399; stroke: #121826; stroke-width: 1.4"/>
    </g>
   </g>
   <g id="PathCollection_5">
    <defs>
     <path id="mb7f781fffc" d="M 0 7.245688 
C 1.921579 7.245688 3.764714 6.482237 5.123475 5.123475 
C 6.482237 3.764714 7.245688 1.921579 7.245688 0 
C 7.245688 -1.921579 6.482237 -3.764714 5.123475 -5.123475 
C 3.764714 -6.482237 1.921579 -7.245688 0 -7.245688 
C -1.921579 -7.245688 -3.764714 -6.482237 -5.123475 -5.123475 
C -6.482237 -3.764714 -7.245688 -1.921579 -7.245688 0 
C -7.245688 1.921579 -6.482237 3.764714 -5.123475 5.123475 
C -3.764714 6.482237 -1.921579 7.245688 0 7.245688 
z
" style="stroke: #121826; stroke-width: 1.4"/>
    </defs>
    <g clip-path="url(#p82d70b7cba)">
     <use xlink:href="#mb7f781fffc" x="77.112595" y="158.385846" style="fill: #e879c7; stroke: #121826; stroke-width: 1.4"/>
    </g>
   </g>
  </g>
 </g>
 <defs>
  <clipPath id="p82d70b7cba">
   <rect x="53.958359" y="7.2" width="273.42" height="180.18"/>
  </clipPath>
 </defs>
</svg>
