<?xml version="1.0" encoding="utf-8" standalone="no"?>
<!DOCTYPE svg PUBLIC "-//W3C//DTD SVG 1.1//EN"
  "http://www.w3.org/Graphics/SVG/1.1/DTD/svg11.dtd">
<svg xmlns:xlink="http://www.w3.org/1999/xlink" width="323.686797pt" height="228.584141pt" viewBox="0 0 323.686797 228.584141" xmlns="http://www.w3.org/2000/svg" version="1.1">
 <metadata>
  <rdf:RDF xmlns:dc="http://purl.org/dc/elements/1.1/" xmlns:cc="http://creativecommons.org/ns#" xmlns:rdf="http://www.w3.org/1999/02/22-rdf-syntax-ns#">
   <cc:Work>
    <dc:type rdf:resource="http://purl.org/dc/dcmitype/StillImage"/>
    <dc:date>2026-06-27T14:21:55.516813</dc:date>
    <dc:format>image/svg+xml</dc:format>
    <dc:creator>
     <cc:Agent>
      <dc:title>Matplotlib v3.10.9, https://matplotlib.org/</dc:title>
     </cc:Agent>
    </dc:creator>
   </cc:Work>
  </rdf:RDF>
 </metadata>
 <defs>
  <style type="text/css">*{stroke-linejoin: round; stroke-linecap: butt}</style>
 </defs>
 <g id="figure_1">
  <g id="patch_1">
   <path d="M 0 228.584141 
L 323.686797 228.584141 
L 323.686797 0 
L 0 0 
L 0 228.584141 
z
" style="fill: none"/>
  </g>
  <g id="axes_1">
   <g id="patch_2">
    <path d="M 43.066797 187.38 
L 316.486797 187.38 
L 316.486797 7.2 
L 43.066797 7.2 
L 43.066797 187.38 
z
" style="fill: none"/>
   </g>
   <g id="matplotlib.axis_1">
    <g id="xtick_1">
     <g id="line2d_1">
      <path d="M 62.609171 187.38 
L 62.609171 7.2 
" clip-path="url(#pff64bf8201)" style="fill: none; stroke: #1f2933; stroke-opacity: 0.1; stroke-width: 0.8; stroke-linecap: square"/>
     </g>
     <g id="line2d_2"/>
     <g id="text_1">
      <!-- 0.80 -->
      <g style="fill: #6b7a8d" transform="translate(49.731046 200.757969) scale(0.13 -0.13)">
       <defs>
        <path id="OpenSans-30" d="M 3341 2291 
Q 3341 1106 2967 521 
Q 2594 -63 1825 -63 
Q 1088 -63 703 535 
Q 319 1134 319 2291 
Q 319 3484 691 4062 
Q 1063 4641 1825 4641 
Q 2569 4641 2955 4037 
Q 3341 3434 3341 2291 
z
M 844 2291 
Q 844 1294 1078 839 
Q 1313 384 1825 384 
Q 2344 384 2576 845 
Q 2809 1306 2809 2291 
Q 2809 3275 2576 3733 
Q 2344 4191 1825 4191 
Q 1313 4191 1078 3739 
Q 844 3288 844 2291 
z
" transform="scale(0.015625)"/>
        <path id="OpenSans-2e" d="M 475 331 
Q 475 541 570 648 
Q 666 756 844 756 
Q 1025 756 1126 648 
Q 1228 541 1228 331 
Q 1228 128 1125 18 
Q 1022 -91 844 -91 
Q 684 -91 579 7 
Q 475 106 475 331 
z
" transform="scale(0.015625)"/>
        <path id="OpenSans-38" d="M 1825 4634 
Q 2450 4634 2815 4343 
Q 3181 4053 3181 3541 
Q 3181 3203 2972 2925 
Q 2763 2647 2303 2419 
Q 2859 2153 3093 1861 
Q 3328 1569 3328 1184 
Q 3328 616 2931 276 
Q 2534 -63 1844 -63 
Q 1113 -63 719 257 
Q 325 578 325 1166 
Q 325 1950 1281 2388 
Q 850 2631 662 2914 
Q 475 3197 475 3547 
Q 475 4044 842 4339 
Q 1209 4634 1825 4634 
z
M 838 1153 
Q 838 778 1098 568 
Q 1359 359 1831 359 
Q 2297 359 2556 578 
Q 2816 797 2816 1178 
Q 2816 1481 2572 1717 
Q 2328 1953 1722 2175 
Q 1256 1975 1047 1733 
Q 838 1491 838 1153 
z
M 1819 4213 
Q 1428 4213 1206 4025 
Q 984 3838 984 3525 
Q 984 3238 1168 3031 
Q 1353 2825 1850 2619 
Q 2297 2806 2483 3022 
Q 2669 3238 2669 3525 
Q 2669 3841 2442 4027 
Q 2216 4213 1819 4213 
z
" transform="scale(0.015625)"/>
       </defs>
       <use xlink:href="#OpenSans-30"/>
       <use xlink:href="#OpenSans-2e" transform="translate(57.177734 0)"/>
       <use xlink:href="#OpenSans-38" transform="translate(83.789062 0)"/>
       <use xlink:href="#OpenSans-30" transform="translate(140.966797 0)"/>
      </g>
     </g>
    </g>
    <g id="xtick_2">
     <g id="line2d_3">
      <path d="M 106.861279 187.38 
L 106.861279 7.2 
" clip-path="url(#pff64bf8201)" style="fill: none; stroke: #1f2933; stroke-opacity: 0.1; stroke-width: 0.8; stroke-linecap: square"/>
     </g>
     <g id="line2d_4"/>
     <g id="text_2">
      <!-- 0.82 -->
      <g style="fill: #6b7a8d" transform="translate(93.983154 200.757969) scale(0.13 -0.13)">
       <defs>
        <path id="OpenSans-32" d="M 3316 0 
L 313 0 
L 313 447 
L 1516 1656 
Q 2066 2213 2241 2450 
Q 2416 2688 2503 2913 
Q 2591 3138 2591 3397 
Q 2591 3763 2369 3977 
Q 2147 4191 1753 4191 
Q 1469 4191 1214 4097 
Q 959 4003 647 3756 
L 372 4109 
Q 1003 4634 1747 4634 
Q 2391 4634 2756 4304 
Q 3122 3975 3122 3419 
Q 3122 2984 2878 2559 
Q 2634 2134 1966 1484 
L 966 506 
L 966 481 
L 3316 481 
L 3316 0 
z
" transform="scale(0.015625)"/>
       </defs>
       <use xlink:href="#OpenSans-30"/>
       <use xlink:href="#OpenSans-2e" transform="translate(57.177734 0)"/>
       <use xlink:href="#OpenSans-38" transform="translate(83.789062 0)"/>
       <use xlink:href="#OpenSans-32" transform="translate(140.966797 0)"/>
      </g>
     </g>
    </g>
    <g id="xtick_3">
     <g id="line2d_5">
      <path d="M 151.113387 187.38 
L 151.113387 7.2 
" clip-path="url(#pff64bf8201)" style="fill: none; stroke: #1f2933; stroke-opacity: 0.1; stroke-width: 0.8; stroke-linecap: square"/>
     </g>
     <g id="line2d_6"/>
     <g id="text_3">
      <!-- 0.84 -->
      <g style="fill: #6b7a8d" transform="translate(138.235262 200.757969) scale(0.13 -0.13)">
       <defs>
        <path id="OpenSans-34" d="M 3531 1050 
L 2853 1050 
L 2853 0 
L 2356 0 
L 2356 1050 
L 134 1050 
L 134 1503 
L 2303 4594 
L 2853 4594 
L 2853 1522 
L 3531 1522 
L 3531 1050 
z
M 2356 1522 
L 2356 3041 
Q 2356 3488 2388 4050 
L 2363 4050 
Q 2213 3750 2081 3553 
L 653 1522 
L 2356 1522 
z
" transform="scale(0.015625)"/>
       </defs>
       <use xlink:href="#OpenSans-30"/>
       <use xlink:href="#OpenSans-2e" transform="translate(57.177734 0)"/>
       <use xlink:href="#OpenSans-38" transform="translate(83.789062 0)"/>
       <use xlink:href="#OpenSans-34" transform="translate(140.966797 0)"/>
      </g>
     </g>
    </g>
    <g id="xtick_4">
     <g id="line2d_7">
      <path d="M 195.365495 187.38 
L 195.365495 7.2 
" clip-path="url(#pff64bf8201)" style="fill: none; stroke: #1f2933; stroke-opacity: 0.1; stroke-width: 0.8; stroke-linecap: square"/>
     </g>
     <g id="line2d_8"/>
     <g id="text_4">
      <!-- 0.86 -->
      <g style="fill: #6b7a8d" transform="translate(182.48737 200.757969) scale(0.13 -0.13)">
       <defs>
        <path id="OpenSans-36" d="M 366 1953 
Q 366 3300 889 3967 
Q 1413 4634 2438 4634 
Q 2791 4634 2994 4575 
L 2994 4128 
Q 2753 4206 2444 4206 
Q 1709 4206 1321 3748 
Q 934 3291 897 2309 
L 934 2309 
Q 1278 2847 2022 2847 
Q 2638 2847 2992 2475 
Q 3347 2103 3347 1466 
Q 3347 753 2958 345 
Q 2569 -63 1906 -63 
Q 1197 -63 781 470 
Q 366 1003 366 1953 
z
M 1900 378 
Q 2344 378 2589 658 
Q 2834 938 2834 1466 
Q 2834 1919 2606 2178 
Q 2378 2438 1925 2438 
Q 1644 2438 1409 2322 
Q 1175 2206 1036 2003 
Q 897 1800 897 1581 
Q 897 1259 1022 981 
Q 1147 703 1376 540 
Q 1606 378 1900 378 
z
" transform="scale(0.015625)"/>
       </defs>
       <use xlink:href="#OpenSans-30"/>
       <use xlink:href="#OpenSans-2e" transform="translate(57.177734 0)"/>
       <use xlink:href="#OpenSans-38" transform="translate(83.789062 0)"/>
       <use xlink:href="#OpenSans-36" transform="translate(140.966797 0)"/>
      </g>
     </g>
    </g>
    <g id="xtick_5">
     <g id="line2d_9">
      <path d="M 239.617603 187.38 
L 239.617603 7.2 
" clip-path="url(#pff64bf8201)" style="fill: none; stroke: #1f2933; stroke-opacity: 0.1; stroke-width: 0.8; stroke-linecap: square"/>
     </g>
     <g id="line2d_10"/>
     <g id="text_5">
      <!-- 0.88 -->
      <g style="fill: #6b7a8d" transform="translate(226.739478 200.757969) scale(0.13 -0.13)">
       <use xlink:href="#OpenSans-30"/>
       <use xlink:href="#OpenSans-2e" transform="translate(57.177734 0)"/>
       <use xlink:href="#OpenSans-38" transform="translate(83.789062 0)"/>
       <use xlink:href="#OpenSans-38" transform="translate(140.966797 0)"/>
      </g>
     </g>
    </g>
    <g id="xtick_6">
     <g id="line2d_11">
      <path d="M 283.869711 187.38 
L 283.869711 7.2 
" clip-path="url(#pff64bf8201)" style="fill: none; stroke: #1f2933; stroke-opacity: 0.1; stroke-width: 0.8; stroke-linecap: square"/>
     </g>
     <g id="line2d_12"/>
     <g id="text_6">
      <!-- 0.90 -->
      <g style="fill: #6b7a8d" transform="translate(270.991586 200.757969) scale(0.13 -0.13)">
       <defs>
        <path id="OpenSans-39" d="M 3316 2619 
Q 3316 -63 1241 -63 
Q 878 -63 666 0 
L 666 447 
Q 916 366 1234 366 
Q 1984 366 2367 830 
Q 2750 1294 2784 2253 
L 2747 2253 
Q 2575 1994 2290 1858 
Q 2006 1722 1650 1722 
Q 1044 1722 687 2084 
Q 331 2447 331 3097 
Q 331 3809 729 4221 
Q 1128 4634 1778 4634 
Q 2244 4634 2592 4395 
Q 2941 4156 3128 3698 
Q 3316 3241 3316 2619 
z
M 1778 4191 
Q 1331 4191 1087 3903 
Q 844 3616 844 3103 
Q 844 2653 1069 2395 
Q 1294 2138 1753 2138 
Q 2038 2138 2277 2253 
Q 2516 2369 2653 2569 
Q 2791 2769 2791 2988 
Q 2791 3316 2662 3594 
Q 2534 3872 2304 4031 
Q 2075 4191 1778 4191 
z
" transform="scale(0.015625)"/>
       </defs>
       <use xlink:href="#OpenSans-30"/>
       <use xlink:href="#OpenSans-2e" transform="translate(57.177734 0)"/>
       <use xlink:href="#OpenSans-39" transform="translate(83.789062 0)"/>
       <use xlink:href="#OpenSans-30" transform="translate(140.966797 0)"/>
      </g>
     </g>
    </g>
    <g id="text_7">
     <!-- automatic score  (BERTScore F1) -->
     <g style="fill: #6b7a8d" transform="translate(76.198047 218.139922) scale(0.135 -0.135)">
      <defs>
       <path id="OpenSans-Semibold-61" d="M 2688 0 
L 2541 481 
L 2516 481 
Q 2266 166 2012 51 
Q 1759 -63 1363 -63 
Q 853 -63 567 212 
Q 281 488 281 991 
Q 281 1525 678 1797 
Q 1075 2069 1888 2094 
L 2484 2113 
L 2484 2297 
Q 2484 2628 2329 2792 
Q 2175 2956 1850 2956 
Q 1584 2956 1340 2878 
Q 1097 2800 872 2694 
L 634 3219 
Q 916 3366 1250 3442 
Q 1584 3519 1881 3519 
Q 2541 3519 2877 3231 
Q 3213 2944 3213 2328 
L 3213 0 
L 2688 0 
z
M 1594 500 
Q 1994 500 2236 723 
Q 2478 947 2478 1350 
L 2478 1650 
L 2034 1631 
Q 1516 1613 1280 1458 
Q 1044 1303 1044 984 
Q 1044 753 1181 626 
Q 1319 500 1594 500 
z
" transform="scale(0.015625)"/>
       <path id="OpenSans-Semibold-75" d="M 2963 0 
L 2859 453 
L 2822 453 
Q 2669 213 2386 75 
Q 2103 -63 1741 -63 
Q 1113 -63 803 250 
Q 494 563 494 1197 
L 494 3456 
L 1234 3456 
L 1234 1325 
Q 1234 928 1396 729 
Q 1559 531 1906 531 
Q 2369 531 2586 807 
Q 2803 1084 2803 1734 
L 2803 3456 
L 3541 3456 
L 3541 0 
L 2963 0 
z
" transform="scale(0.015625)"/>
       <path id="OpenSans-Semibold-74" d="M 1813 531 
Q 2081 531 2350 616 
L 2350 63 
Q 2228 9 2036 -27 
Q 1844 -63 1638 -63 
Q 594 -63 594 1038 
L 594 2900 
L 122 2900 
L 122 3225 
L 628 3494 
L 878 4225 
L 1331 4225 
L 1331 3456 
L 2316 3456 
L 2316 2900 
L 1331 2900 
L 1331 1050 
Q 1331 784 1464 657 
Q 1597 531 1813 531 
z
" transform="scale(0.015625)"/>
       <path id="OpenSans-Semibold-6f" d="M 3591 1734 
Q 3591 888 3156 412 
Q 2722 -63 1947 -63 
Q 1463 -63 1091 156 
Q 719 375 519 784 
Q 319 1194 319 1734 
Q 319 2575 750 3047 
Q 1181 3519 1966 3519 
Q 2716 3519 3153 3036 
Q 3591 2553 3591 1734 
z
M 1075 1734 
Q 1075 538 1959 538 
Q 2834 538 2834 1734 
Q 2834 2919 1953 2919 
Q 1491 2919 1283 2612 
Q 1075 2306 1075 1734 
z
" transform="scale(0.015625)"/>
       <path id="OpenSans-Semibold-6d" d="M 3438 0 
L 2700 0 
L 2700 2131 
Q 2700 2528 2550 2723 
Q 2400 2919 2081 2919 
Q 1656 2919 1457 2642 
Q 1259 2366 1259 1722 
L 1259 0 
L 525 0 
L 525 3456 
L 1100 3456 
L 1203 3003 
L 1241 3003 
Q 1384 3250 1657 3384 
Q 1931 3519 2259 3519 
Q 3056 3519 3316 2975 
L 3366 2975 
Q 3519 3231 3797 3375 
Q 4075 3519 4434 3519 
Q 5053 3519 5336 3206 
Q 5619 2894 5619 2253 
L 5619 0 
L 4884 0 
L 4884 2131 
Q 4884 2528 4732 2723 
Q 4581 2919 4263 2919 
Q 3834 2919 3636 2651 
Q 3438 2384 3438 1831 
L 3438 0 
z
" transform="scale(0.015625)"/>
       <path id="OpenSans-Semibold-69" d="M 1259 0 
L 525 0 
L 525 3456 
L 1259 3456 
L 1259 0 
z
M 481 4372 
Q 481 4569 589 4675 
Q 697 4781 897 4781 
Q 1091 4781 1198 4675 
Q 1306 4569 1306 4372 
Q 1306 4184 1198 4076 
Q 1091 3969 897 3969 
Q 697 3969 589 4076 
Q 481 4184 481 4372 
z
" transform="scale(0.015625)"/>
       <path id="OpenSans-Semibold-63" d="M 1919 -63 
Q 1134 -63 726 395 
Q 319 853 319 1709 
Q 319 2581 745 3050 
Q 1172 3519 1978 3519 
Q 2525 3519 2963 3316 
L 2741 2725 
Q 2275 2906 1972 2906 
Q 1075 2906 1075 1716 
Q 1075 1134 1298 842 
Q 1522 550 1953 550 
Q 2444 550 2881 794 
L 2881 153 
Q 2684 38 2461 -12 
Q 2238 -63 1919 -63 
z
" transform="scale(0.015625)"/>
       <path id="OpenSans-Semibold-20" transform="scale(0.015625)"/>
       <path id="OpenSans-Semibold-73" d="M 2847 984 
Q 2847 478 2478 207 
Q 2109 -63 1422 -63 
Q 731 -63 313 147 
L 313 781 
Q 922 500 1447 500 
Q 2125 500 2125 909 
Q 2125 1041 2050 1128 
Q 1975 1216 1803 1309 
Q 1631 1403 1325 1522 
Q 728 1753 517 1984 
Q 306 2216 306 2584 
Q 306 3028 664 3273 
Q 1022 3519 1638 3519 
Q 2247 3519 2791 3272 
L 2553 2719 
Q 1994 2950 1613 2950 
Q 1031 2950 1031 2619 
Q 1031 2456 1182 2343 
Q 1334 2231 1844 2034 
Q 2272 1869 2465 1731 
Q 2659 1594 2753 1414 
Q 2847 1234 2847 984 
z
" transform="scale(0.015625)"/>
       <path id="OpenSans-Semibold-72" d="M 2278 3519 
Q 2500 3519 2644 3488 
L 2572 2803 
Q 2416 2841 2247 2841 
Q 1806 2841 1532 2553 
Q 1259 2266 1259 1806 
L 1259 0 
L 525 0 
L 525 3456 
L 1100 3456 
L 1197 2847 
L 1234 2847 
Q 1406 3156 1682 3337 
Q 1959 3519 2278 3519 
z
" transform="scale(0.015625)"/>
       <path id="OpenSans-Semibold-65" d="M 2034 -63 
Q 1228 -63 773 407 
Q 319 878 319 1703 
Q 319 2550 741 3034 
Q 1163 3519 1900 3519 
Q 2584 3519 2981 3103 
Q 3378 2688 3378 1959 
L 3378 1563 
L 1075 1563 
Q 1091 1059 1347 789 
Q 1603 519 2069 519 
Q 2375 519 2639 576 
Q 2903 634 3206 769 
L 3206 172 
Q 2938 44 2663 -9 
Q 2388 -63 2034 -63 
z
M 1900 2963 
Q 1550 2963 1339 2741 
Q 1128 2519 1088 2094 
L 2656 2094 
Q 2650 2522 2450 2742 
Q 2250 2963 1900 2963 
z
" transform="scale(0.015625)"/>
       <path id="OpenSans-Semibold-28" d="M 256 1753 
Q 256 2581 498 3303 
Q 741 4025 1197 4569 
L 1838 4569 
Q 1403 3981 1172 3251 
Q 941 2522 941 1759 
Q 941 997 1172 281 
Q 1403 -434 1831 -1013 
L 1197 -1013 
Q 738 -481 497 228 
Q 256 938 256 1753 
z
" transform="scale(0.015625)"/>
       <path id="OpenSans-Semibold-42" d="M 603 4569 
L 1959 4569 
Q 2903 4569 3323 4294 
Q 3744 4019 3744 3425 
Q 3744 3025 3537 2759 
Q 3331 2494 2944 2425 
L 2944 2394 
Q 3425 2303 3651 2036 
Q 3878 1769 3878 1313 
Q 3878 697 3448 348 
Q 3019 0 2253 0 
L 603 0 
L 603 4569 
z
M 1350 2681 
L 2069 2681 
Q 2538 2681 2753 2829 
Q 2969 2978 2969 3334 
Q 2969 3656 2736 3800 
Q 2503 3944 1997 3944 
L 1350 3944 
L 1350 2681 
z
M 1350 2075 
L 1350 628 
L 2144 628 
Q 2613 628 2852 808 
Q 3091 988 3091 1375 
Q 3091 1731 2847 1903 
Q 2603 2075 2106 2075 
L 1350 2075 
z
" transform="scale(0.015625)"/>
       <path id="OpenSans-Semibold-45" d="M 3188 0 
L 603 0 
L 603 4569 
L 3188 4569 
L 3188 3938 
L 1350 3938 
L 1350 2694 
L 3072 2694 
L 3072 2069 
L 1350 2069 
L 1350 634 
L 3188 634 
L 3188 0 
z
" transform="scale(0.015625)"/>
       <path id="OpenSans-Semibold-52" d="M 1350 2444 
L 1869 2444 
Q 2391 2444 2625 2637 
Q 2859 2831 2859 3213 
Q 2859 3600 2606 3769 
Q 2353 3938 1844 3938 
L 1350 3938 
L 1350 2444 
z
M 1350 1825 
L 1350 0 
L 603 0 
L 603 4569 
L 1894 4569 
Q 2778 4569 3203 4237 
Q 3628 3906 3628 3238 
Q 3628 2384 2741 2022 
L 4031 0 
L 3181 0 
L 2088 1825 
L 1350 1825 
z
" transform="scale(0.015625)"/>
       <path id="OpenSans-Semibold-54" d="M 2181 0 
L 1434 0 
L 1434 3928 
L 91 3928 
L 91 4569 
L 3525 4569 
L 3525 3928 
L 2181 3928 
L 2181 0 
z
" transform="scale(0.015625)"/>
       <path id="OpenSans-Semibold-53" d="M 3238 1241 
Q 3238 631 2797 284 
Q 2356 -63 1581 -63 
Q 806 -63 313 178 
L 313 884 
Q 625 738 976 653 
Q 1328 569 1631 569 
Q 2075 569 2286 737 
Q 2497 906 2497 1191 
Q 2497 1447 2303 1625 
Q 2109 1803 1503 2047 
Q 878 2300 622 2625 
Q 366 2950 366 3406 
Q 366 3978 772 4306 
Q 1178 4634 1863 4634 
Q 2519 4634 3169 4347 
L 2931 3738 
Q 2322 3994 1844 3994 
Q 1481 3994 1293 3836 
Q 1106 3678 1106 3419 
Q 1106 3241 1181 3114 
Q 1256 2988 1428 2875 
Q 1600 2763 2047 2578 
Q 2550 2369 2784 2187 
Q 3019 2006 3128 1778 
Q 3238 1550 3238 1241 
z
" transform="scale(0.015625)"/>
       <path id="OpenSans-Semibold-46" d="M 1344 0 
L 603 0 
L 603 4569 
L 3181 4569 
L 3181 3938 
L 1344 3938 
L 1344 2509 
L 3066 2509 
L 3066 1875 
L 1344 1875 
L 1344 0 
z
" transform="scale(0.015625)"/>
       <path id="OpenSans-Semibold-31" d="M 2438 0 
L 1703 0 
L 1703 2950 
Q 1703 3478 1728 3788 
Q 1656 3713 1551 3622 
Q 1447 3531 850 3047 
L 481 3513 
L 1825 4569 
L 2438 4569 
L 2438 0 
z
" transform="scale(0.015625)"/>
       <path id="OpenSans-Semibold-29" d="M 1772 1753 
Q 1772 931 1530 221 
Q 1288 -488 831 -1013 
L 197 -1013 
Q 628 -428 858 284 
Q 1088 997 1088 1759 
Q 1088 2525 856 3251 
Q 625 3978 191 4569 
L 831 4569 
Q 1291 4022 1531 3298 
Q 1772 2575 1772 1753 
z
" transform="scale(0.015625)"/>
      </defs>
      <use xlink:href="#OpenSans-Semibold-61"/>
      <use xlink:href="#OpenSans-Semibold-75" transform="translate(58.007812 0)"/>
      <use xlink:href="#OpenSans-Semibold-74" transform="translate(121.484375 0)"/>
      <use xlink:href="#OpenSans-Semibold-6f" transform="translate(160.791016 0)"/>
      <use xlink:href="#OpenSans-Semibold-6d" transform="translate(221.875 0)"/>
      <use xlink:href="#OpenSans-Semibold-61" transform="translate(317.480469 0)"/>
      <use xlink:href="#OpenSans-Semibold-74" transform="translate(375.488281 0)"/>
      <use xlink:href="#OpenSans-Semibold-69" transform="translate(414.794922 0)"/>
      <use xlink:href="#OpenSans-Semibold-63" transform="translate(442.675781 0)"/>
      <use xlink:href="#OpenSans-Semibold-20" transform="translate(492.1875 0)"/>
      <use xlink:href="#OpenSans-Semibold-73" transform="translate(518.164062 0)"/>
      <use xlink:href="#OpenSans-Semibold-63" transform="translate(566.845703 0)"/>
      <use xlink:href="#OpenSans-Semibold-6f" transform="translate(616.357422 0)"/>
      <use xlink:href="#OpenSans-Semibold-72" transform="translate(677.441406 0)"/>
      <use xlink:href="#OpenSans-Semibold-65" transform="translate(718.556641 0)"/>
      <use xlink:href="#OpenSans-Semibold-20" transform="translate(776.173828 0)"/>
      <use xlink:href="#OpenSans-Semibold-20" transform="translate(802.150391 0)"/>
      <use xlink:href="#OpenSans-Semibold-28" transform="translate(828.126953 0)"/>
      <use xlink:href="#OpenSans-Semibold-42" transform="translate(859.816406 0)"/>
      <use xlink:href="#OpenSans-Semibold-45" transform="translate(925.832031 0)"/>
      <use xlink:href="#OpenSans-Semibold-52" transform="translate(981.642578 0)"/>
      <use xlink:href="#OpenSans-Semibold-54" transform="translate(1045.558594 0)"/>
      <use xlink:href="#OpenSans-Semibold-53" transform="translate(1102.150391 0)"/>
      <use xlink:href="#OpenSans-Semibold-63" transform="translate(1157.130859 0)"/>
      <use xlink:href="#OpenSans-Semibold-6f" transform="translate(1206.642578 0)"/>
      <use xlink:href="#OpenSans-Semibold-72" transform="translate(1267.726562 0)"/>
      <use xlink:href="#OpenSans-Semibold-65" transform="translate(1308.841797 0)"/>
      <use xlink:href="#OpenSans-Semibold-20" transform="translate(1366.458984 0)"/>
      <use xlink:href="#OpenSans-Semibold-46" transform="translate(1392.435547 0)"/>
      <use xlink:href="#OpenSans-Semibold-31" transform="translate(1445.658203 0)"/>
      <use xlink:href="#OpenSans-Semibold-29" transform="translate(1502.738281 0)"/>
     </g>
    </g>
   </g>
   <g id="matplotlib.axis_2">
    <g id="ytick_1">
     <g id="line2d_13">
      <path d="M 43.066797 172.365 
L 316.486797 172.365 
" clip-path="url(#pff64bf8201)" style="fill: none; stroke: #1f2933; stroke-opacity: 0.1; stroke-width: 0.8; stroke-linecap: square"/>
     </g>
     <g id="line2d_14"/>
     <g id="text_8">
      <!-- 5 -->
      <g style="fill: #6b7a8d" transform="translate(32.134453 177.303984) scale(0.13 -0.13)">
       <defs>
        <path id="OpenSans-35" d="M 1741 2791 
Q 2463 2791 2877 2433 
Q 3291 2075 3291 1453 
Q 3291 744 2839 340 
Q 2388 -63 1594 -63 
Q 822 -63 416 184 
L 416 684 
Q 634 544 959 464 
Q 1284 384 1600 384 
Q 2150 384 2454 643 
Q 2759 903 2759 1394 
Q 2759 2350 1588 2350 
Q 1291 2350 794 2259 
L 525 2431 
L 697 4569 
L 2969 4569 
L 2969 4091 
L 1141 4091 
L 1025 2719 
Q 1384 2791 1741 2791 
z
" transform="scale(0.015625)"/>
       </defs>
       <use xlink:href="#OpenSans-35"/>
      </g>
     </g>
    </g>
    <g id="ytick_2">
     <g id="line2d_15">
      <path d="M 43.066797 142.335 
L 316.486797 142.335 
" clip-path="url(#pff64bf8201)" style="fill: none; stroke: #1f2933; stroke-opacity: 0.1; stroke-width: 0.8; stroke-linecap: square"/>
     </g>
     <g id="line2d_16"/>
     <g id="text_9">
      <!-- 6 -->
      <g style="fill: #6b7a8d" transform="translate(32.134453 147.273984) scale(0.13 -0.13)">
       <use xlink:href="#OpenSans-36"/>
      </g>
     </g>
    </g>
    <g id="ytick_3">
     <g id="line2d_17">
      <path d="M 43.066797 112.305 
L 316.486797 112.305 
" clip-path="url(#pff64bf8201)" style="fill: none; stroke: #1f2933; stroke-opacity: 0.1; stroke-width: 0.8; stroke-linecap: square"/>
     </g>
     <g id="line2d_18"/>
     <g id="text_10">
      <!-- 7 -->
      <g style="fill: #6b7a8d" transform="translate(32.134453 117.243984) scale(0.13 -0.13)">
       <defs>
        <path id="OpenSans-37" d="M 891 0 
L 2784 4091 
L 294 4091 
L 294 4569 
L 3334 4569 
L 3334 4153 
L 1466 0 
L 891 0 
z
" transform="scale(0.015625)"/>
       </defs>
       <use xlink:href="#OpenSans-37"/>
      </g>
     </g>
    </g>
    <g id="ytick_4">
     <g id="line2d_19">
      <path d="M 43.066797 82.275 
L 316.486797 82.275 
" clip-path="url(#pff64bf8201)" style="fill: none; stroke: #1f2933; stroke-opacity: 0.1; stroke-width: 0.8; stroke-linecap: square"/>
     </g>
     <g id="line2d_20"/>
     <g id="text_11">
      <!-- 8 -->
      <g style="fill: #6b7a8d" transform="translate(32.134453 87.213984) scale(0.13 -0.13)">
       <use xlink:href="#OpenSans-38"/>
      </g>
     </g>
    </g>
    <g id="ytick_5">
     <g id="line2d_21">
      <path d="M 43.066797 52.245 
L 316.486797 52.245 
" clip-path="url(#pff64bf8201)" style="fill: none; stroke: #1f2933; stroke-opacity: 0.1; stroke-width: 0.8; stroke-linecap: square"/>
     </g>
     <g id="line2d_22"/>
     <g id="text_12">
      <!-- 9 -->
      <g style="fill: #6b7a8d" transform="translate(32.134453 57.183984) scale(0.13 -0.13)">
       <use xlink:href="#OpenSans-39"/>
      </g>
     </g>
    </g>
    <g id="ytick_6">
     <g id="line2d_23">
      <path d="M 43.066797 22.215 
L 316.486797 22.215 
" clip-path="url(#pff64bf8201)" style="fill: none; stroke: #1f2933; stroke-opacity: 0.1; stroke-width: 0.8; stroke-linecap: square"/>
     </g>
     <g id="line2d_24"/>
     <g id="text_13">
      <!-- 10 -->
      <g style="fill: #6b7a8d" transform="translate(24.702109 27.153984) scale(0.13 -0.13)">
       <defs>
        <path id="OpenSans-31" d="M 2234 0 
L 1728 0 
L 1728 3256 
Q 1728 3663 1753 4025 
Q 1688 3959 1606 3887 
Q 1525 3816 863 3278 
L 588 3634 
L 1797 4569 
L 2234 4569 
L 2234 0 
z
" transform="scale(0.015625)"/>
       </defs>
       <use xlink:href="#OpenSans-31"/>
       <use xlink:href="#OpenSans-30" transform="translate(57.177734 0)"/>
      </g>
     </g>
    </g>
    <g id="text_14">
     <!-- human rating  (1–10) -->
     <g style="fill: #6b7a8d" transform="translate(17.457891 164.253164) rotate(-90) scale(0.135 -0.135)">
      <defs>
       <path id="OpenSans-Semibold-68" d="M 3566 0 
L 2828 0 
L 2828 2125 
Q 2828 2525 2667 2722 
Q 2506 2919 2156 2919 
Q 1694 2919 1476 2642 
Q 1259 2366 1259 1716 
L 1259 0 
L 525 0 
L 525 4863 
L 1259 4863 
L 1259 3628 
Q 1259 3331 1222 2994 
L 1269 2994 
Q 1419 3244 1686 3381 
Q 1953 3519 2309 3519 
Q 3566 3519 3566 2253 
L 3566 0 
z
" transform="scale(0.015625)"/>
       <path id="OpenSans-Semibold-6e" d="M 3566 0 
L 2828 0 
L 2828 2125 
Q 2828 2525 2667 2722 
Q 2506 2919 2156 2919 
Q 1691 2919 1475 2644 
Q 1259 2369 1259 1722 
L 1259 0 
L 525 0 
L 525 3456 
L 1100 3456 
L 1203 3003 
L 1241 3003 
Q 1397 3250 1684 3384 
Q 1972 3519 2322 3519 
Q 3566 3519 3566 2253 
L 3566 0 
z
" transform="scale(0.015625)"/>
       <path id="OpenSans-Semibold-67" d="M 3444 3456 
L 3444 3053 
L 2853 2944 
Q 2934 2834 2987 2675 
Q 3041 2516 3041 2338 
Q 3041 1803 2672 1497 
Q 2303 1191 1656 1191 
Q 1491 1191 1356 1216 
Q 1119 1069 1119 872 
Q 1119 753 1230 693 
Q 1341 634 1638 634 
L 2241 634 
Q 2813 634 3109 390 
Q 3406 147 3406 -313 
Q 3406 -900 2922 -1219 
Q 2438 -1538 1522 -1538 
Q 816 -1538 444 -1288 
Q 72 -1038 72 -575 
Q 72 -256 273 -39 
Q 475 178 838 263 
Q 691 325 595 464 
Q 500 603 500 756 
Q 500 950 609 1084 
Q 719 1219 934 1350 
Q 666 1466 498 1727 
Q 331 1988 331 2338 
Q 331 2900 686 3209 
Q 1041 3519 1697 3519 
Q 1844 3519 2005 3498 
Q 2166 3478 2247 3456 
L 3444 3456 
z
M 728 -538 
Q 728 -775 942 -903 
Q 1156 -1031 1544 -1031 
Q 2144 -1031 2437 -859 
Q 2731 -688 2731 -403 
Q 2731 -178 2570 -82 
Q 2409 13 1972 13 
L 1416 13 
Q 1100 13 914 -135 
Q 728 -284 728 -538 
z
M 1044 2338 
Q 1044 2013 1211 1838 
Q 1378 1663 1691 1663 
Q 2328 1663 2328 2344 
Q 2328 2681 2170 2864 
Q 2013 3047 1691 3047 
Q 1372 3047 1208 2865 
Q 1044 2684 1044 2338 
z
" transform="scale(0.015625)"/>
       <path id="OpenSans-Semibold-2013" d="M 256 1422 
L 256 2016 
L 2944 2016 
L 2944 1422 
L 256 1422 
z
" transform="scale(0.015625)"/>
       <path id="OpenSans-Semibold-30" d="M 3378 2284 
Q 3378 1094 2995 515 
Q 2613 -63 1825 -63 
Q 1063 -63 669 534 
Q 275 1131 275 2284 
Q 275 3494 658 4067 
Q 1041 4641 1825 4641 
Q 2591 4641 2984 4041 
Q 3378 3441 3378 2284 
z
M 1019 2284 
Q 1019 1350 1211 950 
Q 1403 550 1825 550 
Q 2247 550 2442 956 
Q 2638 1363 2638 2284 
Q 2638 3203 2442 3614 
Q 2247 4025 1825 4025 
Q 1403 4025 1211 3622 
Q 1019 3219 1019 2284 
z
" transform="scale(0.015625)"/>
      </defs>
      <use xlink:href="#OpenSans-Semibold-68"/>
      <use xlink:href="#OpenSans-Semibold-75" transform="translate(63.476562 0)"/>
      <use xlink:href="#OpenSans-Semibold-6d" transform="translate(126.953125 0)"/>
      <use xlink:href="#OpenSans-Semibold-61" transform="translate(222.558594 0)"/>
      <use xlink:href="#OpenSans-Semibold-6e" transform="translate(280.566406 0)"/>
      <use xlink:href="#OpenSans-Semibold-20" transform="translate(344.042969 0)"/>
      <use xlink:href="#OpenSans-Semibold-72" transform="translate(370.019531 0)"/>
      <use xlink:href="#OpenSans-Semibold-61" transform="translate(411.134766 0)"/>
      <use xlink:href="#OpenSans-Semibold-74" transform="translate(469.142578 0)"/>
      <use xlink:href="#OpenSans-Semibold-69" transform="translate(508.449219 0)"/>
      <use xlink:href="#OpenSans-Semibold-6e" transform="translate(536.330078 0)"/>
      <use xlink:href="#OpenSans-Semibold-67" transform="translate(599.806641 0)"/>
      <use xlink:href="#OpenSans-Semibold-20" transform="translate(655.421875 0)"/>
      <use xlink:href="#OpenSans-Semibold-20" transform="translate(681.398438 0)"/>
      <use xlink:href="#OpenSans-Semibold-28" transform="translate(707.375 0)"/>
      <use xlink:href="#OpenSans-Semibold-31" transform="translate(739.064453 0)"/>
      <use xlink:href="#OpenSans-Semibold-2013" transform="translate(796.144531 0)"/>
      <use xlink:href="#OpenSans-Semibold-31" transform="translate(846.144531 0)"/>
      <use xlink:href="#OpenSans-Semibold-30" transform="translate(903.224609 0)"/>
      <use xlink:href="#OpenSans-Semibold-29" transform="translate(960.304688 0)"/>
     </g>
    </g>
   </g>
   <g id="patch_3">
    <path d="M 43.066797 187.38 
L 43.066797 7.2 
" style="fill: none; opacity: 0.3; stroke: #1f2933; stroke-linejoin: miter; stroke-linecap: square"/>
   </g>
   <g id="patch_4">
    <path d="M 43.066797 187.38 
L 316.486797 187.38 
" style="fill: none; opacity: 0.3; stroke: #1f2933; stroke-linejoin: miter; stroke-linecap: square"/>
   </g>
   <g id="text_15">
    <!-- ρ = 0.62 -->
    <g style="fill: #e3720f" transform="translate(203.426716 168.278962) scale(0.27 -0.27)">
     <defs>
      <path id="OpenSans-Extrabold-3c1" d="M 3891 1766 
Q 3891 906 3519 421 
Q 3147 -63 2497 -63 
Q 2259 -63 2031 -6 
Q 1803 50 1644 147 
L 1563 147 
Q 1631 -347 1631 -684 
L 1631 -1538 
L 409 -1538 
L 409 1747 
Q 409 2622 871 3112 
Q 1334 3603 2169 3603 
Q 2672 3603 3067 3375 
Q 3463 3147 3677 2728 
Q 3891 2309 3891 1766 
z
M 2150 2694 
Q 1631 2694 1631 1913 
L 1631 1119 
Q 1728 1003 1875 943 
Q 2022 884 2156 884 
Q 2422 884 2536 1090 
Q 2650 1297 2650 1766 
Q 2650 2256 2529 2475 
Q 2409 2694 2150 2694 
z
" transform="scale(0.015625)"/>
      <path id="OpenSans-Extrabold-20" transform="scale(0.015625)"/>
      <path id="OpenSans-Extrabold-3d" d="M 225 2547 
L 225 3384 
L 3397 3384 
L 3397 2547 
L 225 2547 
z
M 225 1119 
L 225 1966 
L 3397 1966 
L 3397 1119 
L 225 1119 
z
" transform="scale(0.015625)"/>
      <path id="OpenSans-Extrabold-30" d="M 3525 2278 
Q 3525 1066 3119 501 
Q 2713 -63 1875 -63 
Q 1056 -63 640 526 
Q 225 1116 225 2278 
Q 225 3497 631 4065 
Q 1038 4634 1875 4634 
Q 2691 4634 3108 4042 
Q 3525 3450 3525 2278 
z
M 1453 2278 
Q 1453 1503 1550 1212 
Q 1647 922 1875 922 
Q 2106 922 2201 1222 
Q 2297 1522 2297 2278 
Q 2297 3038 2200 3342 
Q 2103 3647 1875 3647 
Q 1647 3647 1550 3353 
Q 1453 3059 1453 2278 
z
" transform="scale(0.015625)"/>
      <path id="OpenSans-Extrabold-2e" d="M 269 519 
Q 269 806 439 962 
Q 609 1119 934 1119 
Q 1244 1119 1409 962 
Q 1575 806 1575 519 
Q 1575 238 1404 80 
Q 1234 -78 934 -78 
Q 625 -78 447 78 
Q 269 234 269 519 
z
" transform="scale(0.015625)"/>
      <path id="OpenSans-Extrabold-36" d="M 219 1931 
Q 219 2888 492 3480 
Q 766 4072 1298 4353 
Q 1831 4634 2613 4634 
Q 2891 4634 3263 4581 
L 3263 3616 
Q 2950 3675 2584 3675 
Q 1966 3675 1662 3403 
Q 1359 3131 1331 2516 
L 1369 2516 
Q 1650 3047 2272 3047 
Q 2881 3047 3217 2655 
Q 3553 2263 3553 1563 
Q 3553 809 3128 373 
Q 2703 -63 1941 -63 
Q 1131 -63 675 462 
Q 219 988 219 1931 
z
M 1913 916 
Q 2109 916 2232 1064 
Q 2356 1213 2356 1538 
Q 2356 2094 1925 2094 
Q 1713 2094 1580 1950 
Q 1447 1806 1447 1600 
Q 1447 1300 1575 1108 
Q 1703 916 1913 916 
z
" transform="scale(0.015625)"/>
      <path id="OpenSans-Extrabold-32" d="M 3506 0 
L 191 0 
L 191 813 
L 1306 1941 
Q 1784 2441 1931 2623 
Q 2078 2806 2136 2937 
Q 2194 3069 2194 3213 
Q 2194 3391 2078 3494 
Q 1963 3597 1753 3597 
Q 1538 3597 1317 3473 
Q 1097 3350 819 3109 
L 141 3903 
Q 494 4219 734 4355 
Q 975 4491 1258 4562 
Q 1541 4634 1894 4634 
Q 2338 4634 2686 4478 
Q 3034 4322 3226 4033 
Q 3419 3744 3419 3384 
Q 3419 3116 3351 2887 
Q 3284 2659 3143 2439 
Q 3003 2219 2770 1975 
Q 2538 1731 1778 1050 
L 1778 1019 
L 3506 1019 
L 3506 0 
z
" transform="scale(0.015625)"/>
     </defs>
     <use xlink:href="#OpenSans-Extrabold-3c1"/>
     <use xlink:href="#OpenSans-Extrabold-20" transform="translate(64.990234 0)"/>
     <use xlink:href="#OpenSans-Extrabold-3d" transform="translate(90.966797 0)"/>
     <use xlink:href="#OpenSans-Extrabold-20" transform="translate(147.558594 0)"/>
     <use xlink:href="#OpenSans-Extrabold-30" transform="translate(173.535156 0)"/>
     <use xlink:href="#OpenSans-Extrabold-2e" transform="translate(232.128906 0)"/>
     <use xlink:href="#OpenSans-Extrabold-36" transform="translate(261.035156 0)"/>
     <use xlink:href="#OpenSans-Extrabold-32" transform="translate(319.628906 0)"/>
    </g>
   </g>
   <g id="PathCollection_1">
    <defs>
     <path id="m077517f6e7" d="M 0 4 
C 1.060812 4 2.078319 3.578535 2.828427 2.828427 
C 3.578535 2.078319 4 1.060812 4 0 
C 4 -1.060812 3.578535 -2.078319 2.828427 -2.828427 
C 2.078319 -3.578535 1.060812 -4 0 -4 
C -1.060812 -4 -2.078319 -3.578535 -2.828427 -2.828427 
C -3.578535 -2.078319 -4 -1.060812 -4 0 
C -4 1.060812 -3.578535 2.078319 -2.828427 2.828427 
C -2.078319 3.578535 -1.060812 4 0 4 
z
" style="stroke: #ffffff; stroke-opacity: 0.72; stroke-width: 0.6"/>
    </defs>
    <g clip-path="url(#pff64bf8201)">
     <use xlink:href="#m077517f6e7" x="196.703333" y="136.329" style="fill: #cc79a7; fill-opacity: 0.72; stroke: #ffffff; stroke-opacity: 0.72; stroke-width: 0.6"/>
     <use xlink:href="#m077517f6e7" x="173.669296" y="118.311" style="fill: #cc79a7; fill-opacity: 0.72; stroke: #ffffff; stroke-opacity: 0.72; stroke-width: 0.6"/>
     <use xlink:href="#m077517f6e7" x="170.33111" y="70.263" style="fill: #cc79a7; fill-opacity: 0.72; stroke: #ffffff; stroke-opacity: 0.72; stroke-width: 0.6"/>
     <use xlink:href="#m077517f6e7" x="180.791955" y="82.275" style="fill: #cc79a7; fill-opacity: 0.72; stroke: #ffffff; stroke-opacity: 0.72; stroke-width: 0.6"/>
     <use xlink:href="#m077517f6e7" x="129.531571" y="142.335" style="fill: #cc79a7; fill-opacity: 0.72; stroke: #ffffff; stroke-opacity: 0.72; stroke-width: 0.6"/>
     <use xlink:href="#m077517f6e7" x="159.041125" y="136.329" style="fill: #cc79a7; fill-opacity: 0.72; stroke: #ffffff; stroke-opacity: 0.72; stroke-width: 0.6"/>
     <use xlink:href="#m077517f6e7" x="153.767446" y="142.335" style="fill: #cc79a7; fill-opacity: 0.72; stroke: #ffffff; stroke-opacity: 0.72; stroke-width: 0.6"/>
     <use xlink:href="#m077517f6e7" x="222.584034" y="130.323" style="fill: #cc79a7; fill-opacity: 0.72; stroke: #ffffff; stroke-opacity: 0.72; stroke-width: 0.6"/>
     <use xlink:href="#m077517f6e7" x="180.390903" y="154.347" style="fill: #cc79a7; fill-opacity: 0.72; stroke: #ffffff; stroke-opacity: 0.72; stroke-width: 0.6"/>
     <use xlink:href="#m077517f6e7" x="191.400903" y="148.341" style="fill: #cc79a7; fill-opacity: 0.72; stroke: #ffffff; stroke-opacity: 0.72; stroke-width: 0.6"/>
     <use xlink:href="#m077517f6e7" x="171.278679" y="142.335" style="fill: #cc79a7; fill-opacity: 0.72; stroke: #ffffff; stroke-opacity: 0.72; stroke-width: 0.6"/>
     <use xlink:href="#m077517f6e7" x="198.483207" y="148.341" style="fill: #cc79a7; fill-opacity: 0.72; stroke: #ffffff; stroke-opacity: 0.72; stroke-width: 0.6"/>
     <use xlink:href="#m077517f6e7" x="192.05464" y="136.329" style="fill: #cc79a7; fill-opacity: 0.72; stroke: #ffffff; stroke-opacity: 0.72; stroke-width: 0.6"/>
     <use xlink:href="#m077517f6e7" x="193.984991" y="142.335" style="fill: #cc79a7; fill-opacity: 0.72; stroke: #ffffff; stroke-opacity: 0.72; stroke-width: 0.6"/>
     <use xlink:href="#m077517f6e7" x="105.968425" y="112.305" style="fill: #cc79a7; fill-opacity: 0.72; stroke: #ffffff; stroke-opacity: 0.72; stroke-width: 0.6"/>
     <use xlink:href="#m077517f6e7" x="174.690587" y="112.305" style="fill: #cc79a7; fill-opacity: 0.72; stroke: #ffffff; stroke-opacity: 0.72; stroke-width: 0.6"/>
     <use xlink:href="#m077517f6e7" x="183.416926" y="154.347" style="fill: #cc79a7; fill-opacity: 0.72; stroke: #ffffff; stroke-opacity: 0.72; stroke-width: 0.6"/>
     <use xlink:href="#m077517f6e7" x="181.961085" y="130.323" style="fill: #cc79a7; fill-opacity: 0.72; stroke: #ffffff; stroke-opacity: 0.72; stroke-width: 0.6"/>
     <use xlink:href="#m077517f6e7" x="116.086115" y="70.263" style="fill: #cc79a7; fill-opacity: 0.72; stroke: #ffffff; stroke-opacity: 0.72; stroke-width: 0.6"/>
     <use xlink:href="#m077517f6e7" x="158.369057" y="112.305" style="fill: #cc79a7; fill-opacity: 0.72; stroke: #ffffff; stroke-opacity: 0.72; stroke-width: 0.6"/>
     <use xlink:href="#m077517f6e7" x="197.373555" y="88.281" style="fill: #cc79a7; fill-opacity: 0.72; stroke: #ffffff; stroke-opacity: 0.72; stroke-width: 0.6"/>
     <use xlink:href="#m077517f6e7" x="236.434367" y="28.221" style="fill: #cc79a7; fill-opacity: 0.72; stroke: #ffffff; stroke-opacity: 0.72; stroke-width: 0.6"/>
     <use xlink:href="#m077517f6e7" x="242.264324" y="70.263" style="fill: #cc79a7; fill-opacity: 0.72; stroke: #ffffff; stroke-opacity: 0.72; stroke-width: 0.6"/>
     <use xlink:href="#m077517f6e7" x="258.208672" y="40.233" style="fill: #cc79a7; fill-opacity: 0.72; stroke: #ffffff; stroke-opacity: 0.72; stroke-width: 0.6"/>
     <use xlink:href="#m077517f6e7" x="198.879511" y="100.293" style="fill: #cc79a7; fill-opacity: 0.72; stroke: #ffffff; stroke-opacity: 0.72; stroke-width: 0.6"/>
     <use xlink:href="#m077517f6e7" x="212.390909" y="64.257" style="fill: #cc79a7; fill-opacity: 0.72; stroke: #ffffff; stroke-opacity: 0.72; stroke-width: 0.6"/>
     <use xlink:href="#m077517f6e7" x="246.146125" y="64.257" style="fill: #cc79a7; fill-opacity: 0.72; stroke: #ffffff; stroke-opacity: 0.72; stroke-width: 0.6"/>
     <use xlink:href="#m077517f6e7" x="218.178531" y="106.299" style="fill: #cc79a7; fill-opacity: 0.72; stroke: #ffffff; stroke-opacity: 0.72; stroke-width: 0.6"/>
     <use xlink:href="#m077517f6e7" x="254.738341" y="112.305" style="fill: #cc79a7; fill-opacity: 0.72; stroke: #ffffff; stroke-opacity: 0.72; stroke-width: 0.6"/>
     <use xlink:href="#m077517f6e7" x="256.426689" y="130.323" style="fill: #cc79a7; fill-opacity: 0.72; stroke: #ffffff; stroke-opacity: 0.72; stroke-width: 0.6"/>
     <use xlink:href="#m077517f6e7" x="101.150264" y="166.359" style="fill: #cc79a7; fill-opacity: 0.72; stroke: #ffffff; stroke-opacity: 0.72; stroke-width: 0.6"/>
     <use xlink:href="#m077517f6e7" x="139.837192" y="124.317" style="fill: #cc79a7; fill-opacity: 0.72; stroke: #ffffff; stroke-opacity: 0.72; stroke-width: 0.6"/>
     <use xlink:href="#m077517f6e7" x="76.854384" y="172.365" style="fill: #cc79a7; fill-opacity: 0.72; stroke: #ffffff; stroke-opacity: 0.72; stroke-width: 0.6"/>
     <use xlink:href="#m077517f6e7" x="123.615101" y="118.311" style="fill: #cc79a7; fill-opacity: 0.72; stroke: #ffffff; stroke-opacity: 0.72; stroke-width: 0.6"/>
     <use xlink:href="#m077517f6e7" x="110.536143" y="172.365" style="fill: #cc79a7; fill-opacity: 0.72; stroke: #ffffff; stroke-opacity: 0.72; stroke-width: 0.6"/>
     <use xlink:href="#m077517f6e7" x="132.24965" y="130.323" style="fill: #cc79a7; fill-opacity: 0.72; stroke: #ffffff; stroke-opacity: 0.72; stroke-width: 0.6"/>
     <use xlink:href="#m077517f6e7" x="55.494979" y="130.323" style="fill: #cc79a7; fill-opacity: 0.72; stroke: #ffffff; stroke-opacity: 0.72; stroke-width: 0.6"/>
     <use xlink:href="#m077517f6e7" x="101.478913" y="142.335" style="fill: #cc79a7; fill-opacity: 0.72; stroke: #ffffff; stroke-opacity: 0.72; stroke-width: 0.6"/>
     <use xlink:href="#m077517f6e7" x="180.933596" y="172.365" style="fill: #cc79a7; fill-opacity: 0.72; stroke: #ffffff; stroke-opacity: 0.72; stroke-width: 0.6"/>
     <use xlink:href="#m077517f6e7" x="119.609067" y="172.365" style="fill: #cc79a7; fill-opacity: 0.72; stroke: #ffffff; stroke-opacity: 0.72; stroke-width: 0.6"/>
    </g>
   </g>
   <g id="PathCollection_2">
    <defs>
     <path id="m3075bef72b" d="M 0 4 
C 1.060812 4 2.078319 3.578535 2.828427 2.828427 
C 3.578535 2.078319 4 1.060812 4 0 
C 4 -1.060812 3.578535 -2.078319 2.828427 -2.828427 
C 2.078319 -3.578535 1.060812 -4 0 -4 
C -1.060812 -4 -2.078319 -3.578535 -2.828427 -2.828427 
C -3.578535 -2.078319 -4 -1.060812 -4 0 
C -4 1.060812 -3.578535 2.078319 -2.828427 2.828427 
C -2.078319 3.578535 -1.060812 4 0 4 
z
" style="stroke: #ffffff; stroke-opacity: 0.72; stroke-width: 0.6"/>
    </defs>
    <g clip-path="url(#pff64bf8201)">
     <use xlink:href="#m3075bef72b" x="259.207543" y="70.263" style="fill: #d55e00; fill-opacity: 0.72; stroke: #ffffff; stroke-opacity: 0.72; stroke-width: 0.6"/>
     <use xlink:href="#m3075bef72b" x="247.954617" y="64.257" style="fill: #d55e00; fill-opacity: 0.72; stroke: #ffffff; stroke-opacity: 0.72; stroke-width: 0.6"/>
     <use xlink:href="#m3075bef72b" x="247.72488" y="46.239" style="fill: #d55e00; fill-opacity: 0.72; stroke: #ffffff; stroke-opacity: 0.72; stroke-width: 0.6"/>
     <use xlink:href="#m3075bef72b" x="254.203561" y="58.251" style="fill: #d55e00; fill-opacity: 0.72; stroke: #ffffff; stroke-opacity: 0.72; stroke-width: 0.6"/>
     <use xlink:href="#m3075bef72b" x="190.641266" y="22.215" style="fill: #d55e00; fill-opacity: 0.72; stroke: #ffffff; stroke-opacity: 0.72; stroke-width: 0.6"/>
     <use xlink:href="#m3075bef72b" x="176.447117" y="58.251" style="fill: #d55e00; fill-opacity: 0.72; stroke: #ffffff; stroke-opacity: 0.72; stroke-width: 0.6"/>
     <use xlink:href="#m3075bef72b" x="188.756151" y="28.221" style="fill: #d55e00; fill-opacity: 0.72; stroke: #ffffff; stroke-opacity: 0.72; stroke-width: 0.6"/>
     <use xlink:href="#m3075bef72b" x="211.121944" y="28.221" style="fill: #d55e00; fill-opacity: 0.72; stroke: #ffffff; stroke-opacity: 0.72; stroke-width: 0.6"/>
     <use xlink:href="#m3075bef72b" x="207.968392" y="22.215" style="fill: #d55e00; fill-opacity: 0.72; stroke: #ffffff; stroke-opacity: 0.72; stroke-width: 0.6"/>
     <use xlink:href="#m3075bef72b" x="209.810646" y="22.215" style="fill: #d55e00; fill-opacity: 0.72; stroke: #ffffff; stroke-opacity: 0.72; stroke-width: 0.6"/>
     <use xlink:href="#m3075bef72b" x="237.183323" y="40.233" style="fill: #d55e00; fill-opacity: 0.72; stroke: #ffffff; stroke-opacity: 0.72; stroke-width: 0.6"/>
     <use xlink:href="#m3075bef72b" x="188.699046" y="40.233" style="fill: #d55e00; fill-opacity: 0.72; stroke: #ffffff; stroke-opacity: 0.72; stroke-width: 0.6"/>
     <use xlink:href="#m3075bef72b" x="254.453213" y="34.227" style="fill: #d55e00; fill-opacity: 0.72; stroke: #ffffff; stroke-opacity: 0.72; stroke-width: 0.6"/>
     <use xlink:href="#m3075bef72b" x="229.867061" y="34.227" style="fill: #d55e00; fill-opacity: 0.72; stroke: #ffffff; stroke-opacity: 0.72; stroke-width: 0.6"/>
     <use xlink:href="#m3075bef72b" x="232.894139" y="34.227" style="fill: #d55e00; fill-opacity: 0.72; stroke: #ffffff; stroke-opacity: 0.72; stroke-width: 0.6"/>
     <use xlink:href="#m3075bef72b" x="224.474161" y="34.227" style="fill: #d55e00; fill-opacity: 0.72; stroke: #ffffff; stroke-opacity: 0.72; stroke-width: 0.6"/>
     <use xlink:href="#m3075bef72b" x="225.704616" y="34.227" style="fill: #d55e00; fill-opacity: 0.72; stroke: #ffffff; stroke-opacity: 0.72; stroke-width: 0.6"/>
     <use xlink:href="#m3075bef72b" x="258.135082" y="34.227" style="fill: #d55e00; fill-opacity: 0.72; stroke: #ffffff; stroke-opacity: 0.72; stroke-width: 0.6"/>
     <use xlink:href="#m3075bef72b" x="191.413696" y="28.221" style="fill: #d55e00; fill-opacity: 0.72; stroke: #ffffff; stroke-opacity: 0.72; stroke-width: 0.6"/>
     <use xlink:href="#m3075bef72b" x="232.966014" y="34.227" style="fill: #d55e00; fill-opacity: 0.72; stroke: #ffffff; stroke-opacity: 0.72; stroke-width: 0.6"/>
     <use xlink:href="#m3075bef72b" x="262.258491" y="64.257" style="fill: #d55e00; fill-opacity: 0.72; stroke: #ffffff; stroke-opacity: 0.72; stroke-width: 0.6"/>
     <use xlink:href="#m3075bef72b" x="271.679318" y="34.227" style="fill: #d55e00; fill-opacity: 0.72; stroke: #ffffff; stroke-opacity: 0.72; stroke-width: 0.6"/>
     <use xlink:href="#m3075bef72b" x="278.778107" y="40.233" style="fill: #d55e00; fill-opacity: 0.72; stroke: #ffffff; stroke-opacity: 0.72; stroke-width: 0.6"/>
     <use xlink:href="#m3075bef72b" x="287.923961" y="40.233" style="fill: #d55e00; fill-opacity: 0.72; stroke: #ffffff; stroke-opacity: 0.72; stroke-width: 0.6"/>
     <use xlink:href="#m3075bef72b" x="249.552099" y="76.269" style="fill: #d55e00; fill-opacity: 0.72; stroke: #ffffff; stroke-opacity: 0.72; stroke-width: 0.6"/>
     <use xlink:href="#m3075bef72b" x="271.117635" y="40.233" style="fill: #d55e00; fill-opacity: 0.72; stroke: #ffffff; stroke-opacity: 0.72; stroke-width: 0.6"/>
     <use xlink:href="#m3075bef72b" x="253.108812" y="46.239" style="fill: #d55e00; fill-opacity: 0.72; stroke: #ffffff; stroke-opacity: 0.72; stroke-width: 0.6"/>
     <use xlink:href="#m3075bef72b" x="253.464629" y="28.221" style="fill: #d55e00; fill-opacity: 0.72; stroke: #ffffff; stroke-opacity: 0.72; stroke-width: 0.6"/>
     <use xlink:href="#m3075bef72b" x="299.226475" y="52.245" style="fill: #d55e00; fill-opacity: 0.72; stroke: #ffffff; stroke-opacity: 0.72; stroke-width: 0.6"/>
     <use xlink:href="#m3075bef72b" x="304.058615" y="28.221" style="fill: #d55e00; fill-opacity: 0.72; stroke: #ffffff; stroke-opacity: 0.72; stroke-width: 0.6"/>
     <use xlink:href="#m3075bef72b" x="166.542285" y="130.323" style="fill: #d55e00; fill-opacity: 0.72; stroke: #ffffff; stroke-opacity: 0.72; stroke-width: 0.6"/>
     <use xlink:href="#m3075bef72b" x="201.449487" y="46.239" style="fill: #d55e00; fill-opacity: 0.72; stroke: #ffffff; stroke-opacity: 0.72; stroke-width: 0.6"/>
     <use xlink:href="#m3075bef72b" x="184.936993" y="124.317" style="fill: #d55e00; fill-opacity: 0.72; stroke: #ffffff; stroke-opacity: 0.72; stroke-width: 0.6"/>
     <use xlink:href="#m3075bef72b" x="198.067121" y="46.239" style="fill: #d55e00; fill-opacity: 0.72; stroke: #ffffff; stroke-opacity: 0.72; stroke-width: 0.6"/>
     <use xlink:href="#m3075bef72b" x="196.096678" y="34.227" style="fill: #d55e00; fill-opacity: 0.72; stroke: #ffffff; stroke-opacity: 0.72; stroke-width: 0.6"/>
     <use xlink:href="#m3075bef72b" x="186.089374" y="64.257" style="fill: #d55e00; fill-opacity: 0.72; stroke: #ffffff; stroke-opacity: 0.72; stroke-width: 0.6"/>
     <use xlink:href="#m3075bef72b" x="153.721683" y="106.299" style="fill: #d55e00; fill-opacity: 0.72; stroke: #ffffff; stroke-opacity: 0.72; stroke-width: 0.6"/>
     <use xlink:href="#m3075bef72b" x="151.467827" y="88.281" style="fill: #d55e00; fill-opacity: 0.72; stroke: #ffffff; stroke-opacity: 0.72; stroke-width: 0.6"/>
     <use xlink:href="#m3075bef72b" x="273.895061" y="40.233" style="fill: #d55e00; fill-opacity: 0.72; stroke: #ffffff; stroke-opacity: 0.72; stroke-width: 0.6"/>
     <use xlink:href="#m3075bef72b" x="297.759952" y="28.221" style="fill: #d55e00; fill-opacity: 0.72; stroke: #ffffff; stroke-opacity: 0.72; stroke-width: 0.6"/>
    </g>
   </g>
   <g id="line2d_25">
    <path d="M 55.494979 169.555993 
L 60.567706 166.596179 
L 65.640433 163.636365 
L 70.713161 160.676551 
L 75.785888 157.716736 
L 80.858615 154.756922 
L 85.931342 151.797108 
L 91.00407 148.837294 
L 96.076797 145.877479 
L 101.149524 142.917665 
L 106.222251 139.957851 
L 111.294979 136.998037 
L 116.367706 134.038222 
L 121.440433 131.078408 
L 126.513161 128.118594 
L 131.585888 125.15878 
L 136.658615 122.198965 
L 141.731342 119.239151 
L 146.80407 116.279337 
L 151.876797 113.319523 
L 156.949524 110.359708 
L 162.022251 107.399894 
L 167.094979 104.44008 
L 172.167706 101.480266 
L 177.240433 98.520451 
L 182.313161 95.560637 
L 187.385888 92.600823 
L 192.458615 89.641009 
L 197.531342 86.681194 
L 202.60407 83.72138 
L 207.676797 80.761566 
L 212.749524 77.801752 
L 217.822251 74.841937 
L 222.894979 71.882123 
L 227.967706 68.922309 
L 233.040433 65.962495 
L 238.113161 63.00268 
L 243.185888 60.042866 
L 248.258615 57.083052 
L 253.331342 54.123238 
L 258.40407 51.163423 
L 263.476797 48.203609 
L 268.549524 45.243795 
L 273.622251 42.283981 
L 278.694979 39.324167 
L 283.767706 36.364352 
L 288.840433 33.404538 
L 293.913161 30.444724 
L 298.985888 27.48491 
L 304.058615 24.525095 
" clip-path="url(#pff64bf8201)" style="fill: none; stroke: #e3720f; stroke-width: 2.6; stroke-linecap: square"/>
   </g>
   <g id="legend_1">
    <g id="PathCollection_3">
     <g>
      <use xlink:href="#m077517f6e7" x="59.866797" y="18.722109" style="fill: #cc79a7; fill-opacity: 0.72; stroke: #ffffff; stroke-opacity: 0.72; stroke-width: 0.6"/>
     </g>
    </g>
    <g id="text_16">
     <!-- Gemma -->
     <g style="fill: #3f3f46" transform="translate(73.516797 21.478359) scale(0.105 -0.105)">
      <defs>
       <path id="OpenSans-47" d="M 2638 2394 
L 4191 2394 
L 4191 172 
Q 3828 56 3453 -3 
Q 3078 -63 2584 -63 
Q 1547 -63 969 554 
Q 391 1172 391 2284 
Q 391 2997 677 3533 
Q 963 4069 1500 4351 
Q 2038 4634 2759 4634 
Q 3491 4634 4122 4366 
L 3916 3897 
Q 3297 4159 2725 4159 
Q 1891 4159 1422 3662 
Q 953 3166 953 2284 
Q 953 1359 1404 881 
Q 1856 403 2731 403 
Q 3206 403 3659 513 
L 3659 1919 
L 2638 1919 
L 2638 2394 
z
" transform="scale(0.015625)"/>
       <path id="OpenSans-65" d="M 1997 -63 
Q 1238 -63 798 400 
Q 359 863 359 1684 
Q 359 2513 767 3000 
Q 1175 3488 1863 3488 
Q 2506 3488 2881 3064 
Q 3256 2641 3256 1947 
L 3256 1619 
L 897 1619 
Q 913 1016 1202 703 
Q 1491 391 2016 391 
Q 2569 391 3109 622 
L 3109 159 
Q 2834 41 2589 -11 
Q 2344 -63 1997 -63 
z
M 1856 3053 
Q 1444 3053 1198 2784 
Q 953 2516 909 2041 
L 2700 2041 
Q 2700 2531 2481 2792 
Q 2263 3053 1856 3053 
z
" transform="scale(0.015625)"/>
       <path id="OpenSans-6d" d="M 4916 0 
L 4916 2228 
Q 4916 2638 4741 2842 
Q 4566 3047 4197 3047 
Q 3713 3047 3481 2769 
Q 3250 2491 3250 1913 
L 3250 0 
L 2731 0 
L 2731 2228 
Q 2731 2638 2556 2842 
Q 2381 3047 2009 3047 
Q 1522 3047 1295 2755 
Q 1069 2463 1069 1797 
L 1069 0 
L 550 0 
L 550 3425 
L 972 3425 
L 1056 2956 
L 1081 2956 
Q 1228 3206 1495 3347 
Q 1763 3488 2094 3488 
Q 2897 3488 3144 2906 
L 3169 2906 
Q 3322 3175 3612 3331 
Q 3903 3488 4275 3488 
Q 4856 3488 5145 3189 
Q 5434 2891 5434 2234 
L 5434 0 
L 4916 0 
z
" transform="scale(0.015625)"/>
       <path id="OpenSans-61" d="M 2656 0 
L 2553 488 
L 2528 488 
Q 2272 166 2017 51 
Q 1763 -63 1381 -63 
Q 872 -63 583 200 
Q 294 463 294 947 
Q 294 1984 1953 2034 
L 2534 2053 
L 2534 2266 
Q 2534 2669 2361 2861 
Q 2188 3053 1806 3053 
Q 1378 3053 838 2791 
L 678 3188 
Q 931 3325 1232 3403 
Q 1534 3481 1838 3481 
Q 2450 3481 2745 3209 
Q 3041 2938 3041 2338 
L 3041 0 
L 2656 0 
z
M 1484 366 
Q 1969 366 2245 631 
Q 2522 897 2522 1375 
L 2522 1684 
L 2003 1663 
Q 1384 1641 1111 1470 
Q 838 1300 838 941 
Q 838 659 1008 512 
Q 1178 366 1484 366 
z
" transform="scale(0.015625)"/>
      </defs>
      <use xlink:href="#OpenSans-47"/>
      <use xlink:href="#OpenSans-65" transform="translate(72.802734 0)"/>
      <use xlink:href="#OpenSans-6d" transform="translate(128.90625 0)"/>
      <use xlink:href="#OpenSans-6d" transform="translate(221.923828 0)"/>
      <use xlink:href="#OpenSans-61" transform="translate(314.941406 0)"/>
     </g>
    </g>
    <g id="PathCollection_4">
     <g>
      <use xlink:href="#m3075bef72b" x="59.866797" y="34.47375" style="fill: #d55e00; fill-opacity: 0.72; stroke: #ffffff; stroke-opacity: 0.72; stroke-width: 0.6"/>
     </g>
    </g>
    <g id="text_17">
     <!-- Claude -->
     <g style="fill: #3f3f46" transform="translate(73.516797 37.23) scale(0.105 -0.105)">
      <defs>
       <path id="OpenSans-43" d="M 2584 4159 
Q 1831 4159 1395 3657 
Q 959 3156 959 2284 
Q 959 1388 1379 898 
Q 1800 409 2578 409 
Q 3056 409 3669 581 
L 3669 116 
Q 3194 -63 2497 -63 
Q 1488 -63 939 550 
Q 391 1163 391 2291 
Q 391 2997 655 3528 
Q 919 4059 1417 4346 
Q 1916 4634 2591 4634 
Q 3309 4634 3847 4372 
L 3622 3916 
Q 3103 4159 2584 4159 
z
" transform="scale(0.015625)"/>
       <path id="OpenSans-6c" d="M 1069 0 
L 550 0 
L 550 4863 
L 1069 4863 
L 1069 0 
z
" transform="scale(0.015625)"/>
       <path id="OpenSans-75" d="M 1038 3425 
L 1038 1203 
Q 1038 784 1228 578 
Q 1419 372 1825 372 
Q 2363 372 2611 665 
Q 2859 959 2859 1625 
L 2859 3425 
L 3378 3425 
L 3378 0 
L 2950 0 
L 2875 459 
L 2847 459 
Q 2688 206 2405 71 
Q 2122 -63 1759 -63 
Q 1134 -63 823 234 
Q 513 531 513 1184 
L 513 3425 
L 1038 3425 
z
" transform="scale(0.015625)"/>
       <path id="OpenSans-64" d="M 2881 459 
L 2853 459 
Q 2494 -63 1778 -63 
Q 1106 -63 732 396 
Q 359 856 359 1703 
Q 359 2550 734 3019 
Q 1109 3488 1778 3488 
Q 2475 3488 2847 2981 
L 2888 2981 
L 2866 3228 
L 2853 3469 
L 2853 4863 
L 3372 4863 
L 3372 0 
L 2950 0 
L 2881 459 
z
M 1844 372 
Q 2375 372 2614 661 
Q 2853 950 2853 1594 
L 2853 1703 
Q 2853 2431 2611 2742 
Q 2369 3053 1838 3053 
Q 1381 3053 1139 2698 
Q 897 2344 897 1697 
Q 897 1041 1137 706 
Q 1378 372 1844 372 
z
" transform="scale(0.015625)"/>
      </defs>
      <use xlink:href="#OpenSans-43"/>
      <use xlink:href="#OpenSans-6c" transform="translate(63.085938 0)"/>
      <use xlink:href="#OpenSans-61" transform="translate(88.378906 0)"/>
      <use xlink:href="#OpenSans-75" transform="translate(143.994141 0)"/>
      <use xlink:href="#OpenSans-64" transform="translate(205.371094 0)"/>
      <use xlink:href="#OpenSans-65" transform="translate(266.650391 0)"/>
     </g>
    </g>
   </g>
  </g>
 </g>
 <defs>
  <clipPath id="pff64bf8201">
   <rect x="43.066797" y="7.2" width="273.42" height="180.18"/>
  </clipPath>
 </defs>
</svg>
