<?xml version="1.0" encoding="utf-8" standalone="no"?>
<!DOCTYPE svg PUBLIC "-//W3C//DTD SVG 1.1//EN"
  "http://www.w3.org/Graphics/SVG/1.1/DTD/svg11.dtd">
<svg xmlns:xlink="http://www.w3.org/1999/xlink" width="334.578359pt" height="223.907375pt" viewBox="0 0 334.578359 223.907375" xmlns="http://www.w3.org/2000/svg" version="1.1">
 <metadata>
  <rdf:RDF xmlns:dc="http://purl.org/dc/elements/1.1/" xmlns:cc="http://creativecommons.org/ns#" xmlns:rdf="http://www.w3.org/1999/02/22-rdf-syntax-ns#">
   <cc:Work>
    <dc:type rdf:resource="http://purl.org/dc/dcmitype/StillImage"/>
    <dc:date>2026-06-27T14:21:56.825230</dc:date>
    <dc:format>image/svg+xml</dc:format>
    <dc:creator>
     <cc:Agent>
      <dc:title>Matplotlib v3.10.9, https://matplotlib.org/</dc:title>
     </cc:Agent>
    </dc:creator>
   </cc:Work>
  </rdf:RDF>
 </metadata>
 <defs>
  <style type="text/css">*{stroke-linejoin: round; stroke-linecap: butt}</style>
 </defs>
 <g id="figure_1">
  <g id="patch_1">
   <path d="M 0 223.907375 
L 334.578359 223.907375 
L 334.578359 0 
L 0 0 
L 0 223.907375 
z
" style="fill: none"/>
  </g>
  <g id="axes_1">
   <g id="patch_2">
    <path d="M 53.958359 187.38 
L 327.378359 187.38 
L 327.378359 7.2 
L 53.958359 7.2 
L 53.958359 187.38 
z
" style="fill: none"/>
   </g>
   <g id="matplotlib.axis_1">
    <g id="xtick_1">
     <g id="line2d_1"/>
     <g id="text_1">
      <!-- Same shape, -->
      <g style="fill: #c6d1e8" transform="translate(71.348693 199.998125) scale(0.12 -0.12)">
       <defs>
        <path id="OpenSans-Bold-53" d="M 3272 1269 
Q 3272 650 2826 293 
Q 2381 -63 1588 -63 
Q 856 -63 294 213 
L 294 1113 
Q 756 906 1076 822 
Q 1397 738 1663 738 
Q 1981 738 2151 859 
Q 2322 981 2322 1222 
Q 2322 1356 2247 1461 
Q 2172 1566 2026 1662 
Q 1881 1759 1434 1972 
Q 1016 2169 806 2350 
Q 597 2531 472 2772 
Q 347 3013 347 3334 
Q 347 3941 758 4287 
Q 1169 4634 1894 4634 
Q 2250 4634 2573 4550 
Q 2897 4466 3250 4313 
L 2938 3559 
Q 2572 3709 2333 3768 
Q 2094 3828 1863 3828 
Q 1588 3828 1441 3700 
Q 1294 3572 1294 3366 
Q 1294 3238 1353 3142 
Q 1413 3047 1542 2958 
Q 1672 2869 2156 2638 
Q 2797 2331 3034 2023 
Q 3272 1716 3272 1269 
z
" transform="scale(0.015625)"/>
        <path id="OpenSans-Bold-61" d="M 2719 0 
L 2534 475 
L 2509 475 
Q 2269 172 2014 54 
Q 1759 -63 1350 -63 
Q 847 -63 558 225 
Q 269 513 269 1044 
Q 269 1600 658 1864 
Q 1047 2128 1831 2156 
L 2438 2175 
L 2438 2328 
Q 2438 2859 1894 2859 
Q 1475 2859 909 2606 
L 594 3250 
Q 1197 3566 1931 3566 
Q 2634 3566 3009 3259 
Q 3384 2953 3384 2328 
L 3384 0 
L 2719 0 
z
M 2438 1619 
L 2069 1606 
Q 1653 1594 1450 1456 
Q 1247 1319 1247 1038 
Q 1247 634 1709 634 
Q 2041 634 2239 825 
Q 2438 1016 2438 1331 
L 2438 1619 
z
" transform="scale(0.015625)"/>
        <path id="OpenSans-Bold-6d" d="M 3628 0 
L 2675 0 
L 2675 2041 
Q 2675 2419 2548 2608 
Q 2422 2797 2150 2797 
Q 1784 2797 1618 2528 
Q 1453 2259 1453 1644 
L 1453 0 
L 500 0 
L 500 3494 
L 1228 3494 
L 1356 3047 
L 1409 3047 
Q 1550 3288 1815 3423 
Q 2081 3559 2425 3559 
Q 3209 3559 3488 3047 
L 3572 3047 
Q 3713 3291 3986 3425 
Q 4259 3559 4603 3559 
Q 5197 3559 5501 3254 
Q 5806 2950 5806 2278 
L 5806 0 
L 4850 0 
L 4850 2041 
Q 4850 2419 4723 2608 
Q 4597 2797 4325 2797 
Q 3975 2797 3801 2547 
Q 3628 2297 3628 1753 
L 3628 0 
z
" transform="scale(0.015625)"/>
        <path id="OpenSans-Bold-65" d="M 1947 2881 
Q 1644 2881 1472 2689 
Q 1300 2497 1275 2144 
L 2613 2144 
Q 2606 2497 2428 2689 
Q 2250 2881 1947 2881 
z
M 2081 -63 
Q 1238 -63 763 403 
Q 288 869 288 1722 
Q 288 2600 727 3079 
Q 1166 3559 1941 3559 
Q 2681 3559 3093 3137 
Q 3506 2716 3506 1972 
L 3506 1509 
L 1253 1509 
Q 1269 1103 1494 875 
Q 1719 647 2125 647 
Q 2441 647 2722 712 
Q 3003 778 3309 922 
L 3309 184 
Q 3059 59 2775 -2 
Q 2491 -63 2081 -63 
z
" transform="scale(0.015625)"/>
        <path id="OpenSans-Bold-20" transform="scale(0.015625)"/>
        <path id="OpenSans-Bold-73" d="M 2938 1038 
Q 2938 500 2564 218 
Q 2191 -63 1447 -63 
Q 1066 -63 797 -11 
Q 528 41 294 141 
L 294 928 
Q 559 803 892 718 
Q 1225 634 1478 634 
Q 1997 634 1997 934 
Q 1997 1047 1928 1117 
Q 1859 1188 1690 1277 
Q 1522 1366 1241 1484 
Q 838 1653 648 1797 
Q 459 1941 373 2127 
Q 288 2313 288 2584 
Q 288 3050 648 3304 
Q 1009 3559 1672 3559 
Q 2303 3559 2900 3284 
L 2613 2597 
Q 2350 2709 2122 2781 
Q 1894 2853 1656 2853 
Q 1234 2853 1234 2625 
Q 1234 2497 1370 2403 
Q 1506 2309 1966 2125 
Q 2375 1959 2565 1815 
Q 2756 1672 2847 1484 
Q 2938 1297 2938 1038 
z
" transform="scale(0.015625)"/>
        <path id="OpenSans-Bold-68" d="M 3725 0 
L 2772 0 
L 2772 2041 
Q 2772 2797 2209 2797 
Q 1809 2797 1631 2525 
Q 1453 2253 1453 1644 
L 1453 0 
L 500 0 
L 500 4863 
L 1453 4863 
L 1453 3872 
Q 1453 3756 1431 3328 
L 1409 3047 
L 1459 3047 
Q 1778 3559 2472 3559 
Q 3088 3559 3406 3228 
Q 3725 2897 3725 2278 
L 3725 0 
z
" transform="scale(0.015625)"/>
        <path id="OpenSans-Bold-70" d="M 2419 -63 
Q 1803 -63 1453 384 
L 1403 384 
Q 1453 -53 1453 -122 
L 1453 -1538 
L 500 -1538 
L 500 3494 
L 1275 3494 
L 1409 3041 
L 1453 3041 
Q 1788 3559 2444 3559 
Q 3063 3559 3413 3081 
Q 3763 2603 3763 1753 
Q 3763 1194 3598 781 
Q 3434 369 3131 153 
Q 2828 -63 2419 -63 
z
M 2138 2797 
Q 1784 2797 1621 2580 
Q 1459 2363 1453 1863 
L 1453 1759 
Q 1453 1197 1620 953 
Q 1788 709 2150 709 
Q 2791 709 2791 1766 
Q 2791 2281 2633 2539 
Q 2475 2797 2138 2797 
z
" transform="scale(0.015625)"/>
        <path id="OpenSans-Bold-2c" d="M 1434 672 
Q 1272 41 884 -825 
L 197 -825 
Q 400 6 513 744 
L 1388 744 
L 1434 672 
z
" transform="scale(0.015625)"/>
       </defs>
       <use xlink:href="#OpenSans-Bold-53"/>
       <use xlink:href="#OpenSans-Bold-61" transform="translate(55.078125 0)"/>
       <use xlink:href="#OpenSans-Bold-6d" transform="translate(115.478516 0)"/>
       <use xlink:href="#OpenSans-Bold-65" transform="translate(213.671875 0)"/>
       <use xlink:href="#OpenSans-Bold-20" transform="translate(272.753906 0)"/>
       <use xlink:href="#OpenSans-Bold-73" transform="translate(298.730469 0)"/>
       <use xlink:href="#OpenSans-Bold-68" transform="translate(348.4375 0)"/>
       <use xlink:href="#OpenSans-Bold-61" transform="translate(414.160156 0)"/>
       <use xlink:href="#OpenSans-Bold-70" transform="translate(474.560547 0)"/>
       <use xlink:href="#OpenSans-Bold-65" transform="translate(537.841797 0)"/>
       <use xlink:href="#OpenSans-Bold-2c" transform="translate(596.923828 0)"/>
      </g>
      <!-- re-run 3× -->
      <g style="fill: #c6d1e8" transform="translate(81.805568 213.823625) scale(0.12 -0.12)">
       <defs>
        <path id="OpenSans-Bold-72" d="M 2450 3559 
Q 2644 3559 2772 3531 
L 2700 2638 
Q 2584 2669 2419 2669 
Q 1963 2669 1708 2434 
Q 1453 2200 1453 1778 
L 1453 0 
L 500 0 
L 500 3494 
L 1222 3494 
L 1363 2906 
L 1409 2906 
Q 1572 3200 1848 3379 
Q 2125 3559 2450 3559 
z
" transform="scale(0.015625)"/>
        <path id="OpenSans-Bold-2d" d="M 191 1325 
L 191 2106 
L 1869 2106 
L 1869 1325 
L 191 1325 
z
" transform="scale(0.015625)"/>
        <path id="OpenSans-Bold-75" d="M 2975 0 
L 2847 447 
L 2797 447 
Q 2644 203 2362 70 
Q 2081 -63 1722 -63 
Q 1106 -63 793 267 
Q 481 597 481 1216 
L 481 3494 
L 1434 3494 
L 1434 1453 
Q 1434 1075 1568 886 
Q 1703 697 1997 697 
Q 2397 697 2575 964 
Q 2753 1231 2753 1850 
L 2753 3494 
L 3706 3494 
L 3706 0 
L 2975 0 
z
" transform="scale(0.015625)"/>
        <path id="OpenSans-Bold-6e" d="M 3725 0 
L 2772 0 
L 2772 2041 
Q 2772 2419 2637 2608 
Q 2503 2797 2209 2797 
Q 1809 2797 1631 2530 
Q 1453 2263 1453 1644 
L 1453 0 
L 500 0 
L 500 3494 
L 1228 3494 
L 1356 3047 
L 1409 3047 
Q 1569 3300 1848 3429 
Q 2128 3559 2484 3559 
Q 3094 3559 3409 3229 
Q 3725 2900 3725 2278 
L 3725 0 
z
" transform="scale(0.015625)"/>
        <path id="OpenSans-Bold-33" d="M 3272 3547 
Q 3272 3119 3012 2819 
Q 2753 2519 2284 2406 
L 2284 2388 
Q 2838 2319 3122 2051 
Q 3406 1784 3406 1331 
Q 3406 672 2928 304 
Q 2450 -63 1563 -63 
Q 819 -63 244 184 
L 244 1006 
Q 509 872 828 787 
Q 1147 703 1459 703 
Q 1938 703 2166 865 
Q 2394 1028 2394 1388 
Q 2394 1709 2131 1843 
Q 1869 1978 1294 1978 
L 947 1978 
L 947 2719 
L 1300 2719 
Q 1831 2719 2076 2858 
Q 2322 2997 2322 3334 
Q 2322 3853 1672 3853 
Q 1447 3853 1214 3778 
Q 981 3703 697 3519 
L 250 4184 
Q 875 4634 1741 4634 
Q 2450 4634 2861 4346 
Q 3272 4059 3272 3547 
z
" transform="scale(0.015625)"/>
        <path id="OpenSans-Bold-d7" d="M 1338 2259 
L 403 3200 
L 878 3681 
L 1819 2747 
L 2772 3681 
L 3250 3213 
L 2297 2259 
L 3238 1313 
L 2772 838 
L 1819 1778 
L 878 844 
L 409 1319 
L 1338 2259 
z
" transform="scale(0.015625)"/>
       </defs>
       <use xlink:href="#OpenSans-Bold-72"/>
       <use xlink:href="#OpenSans-Bold-65" transform="translate(43.410156 0)"/>
       <use xlink:href="#OpenSans-Bold-2d" transform="translate(102.492188 0)"/>
       <use xlink:href="#OpenSans-Bold-72" transform="translate(134.669922 0)"/>
       <use xlink:href="#OpenSans-Bold-75" transform="translate(180.080078 0)"/>
       <use xlink:href="#OpenSans-Bold-6e" transform="translate(245.802734 0)"/>
       <use xlink:href="#OpenSans-Bold-20" transform="translate(311.525391 0)"/>
       <use xlink:href="#OpenSans-Bold-33" transform="translate(337.501953 0)"/>
       <use xlink:href="#OpenSans-Bold-d7" transform="translate(394.582031 0)"/>
      </g>
     </g>
    </g>
    <g id="xtick_2">
     <g id="line2d_2"/>
     <g id="text_2">
      <!-- Difference -->
      <g style="fill: #c6d1e8" transform="translate(241.246776 199.998125) scale(0.12 -0.12)">
       <defs>
        <path id="OpenSans-Bold-44" d="M 4366 2328 
Q 4366 1200 3723 600 
Q 3081 0 1869 0 
L 575 0 
L 575 4569 
L 2009 4569 
Q 3128 4569 3747 3978 
Q 4366 3388 4366 2328 
z
M 3359 2303 
Q 3359 3775 2059 3775 
L 1544 3775 
L 1544 800 
L 1959 800 
Q 3359 800 3359 2303 
z
" transform="scale(0.015625)"/>
        <path id="OpenSans-Bold-69" d="M 459 4397 
Q 459 4863 978 4863 
Q 1497 4863 1497 4397 
Q 1497 4175 1367 4051 
Q 1238 3928 978 3928 
Q 459 3928 459 4397 
z
M 1453 0 
L 500 0 
L 500 3494 
L 1453 3494 
L 1453 0 
z
" transform="scale(0.015625)"/>
        <path id="OpenSans-Bold-66" d="M 2431 2778 
L 1606 2778 
L 1606 0 
L 653 0 
L 653 2778 
L 128 2778 
L 128 3238 
L 653 3494 
L 653 3750 
Q 653 4347 947 4622 
Q 1241 4897 1888 4897 
Q 2381 4897 2766 4750 
L 2522 4050 
Q 2234 4141 1991 4141 
Q 1788 4141 1697 4020 
Q 1606 3900 1606 3713 
L 1606 3494 
L 2431 3494 
L 2431 2778 
z
" transform="scale(0.015625)"/>
        <path id="OpenSans-Bold-63" d="M 1919 -63 
Q 288 -63 288 1728 
Q 288 2619 731 3089 
Q 1175 3559 2003 3559 
Q 2609 3559 3091 3322 
L 2809 2584 
Q 2584 2675 2390 2733 
Q 2197 2791 2003 2791 
Q 1259 2791 1259 1734 
Q 1259 709 2003 709 
Q 2278 709 2512 782 
Q 2747 856 2981 1013 
L 2981 197 
Q 2750 50 2514 -6 
Q 2278 -63 1919 -63 
z
" transform="scale(0.015625)"/>
       </defs>
       <use xlink:href="#OpenSans-Bold-44"/>
       <use xlink:href="#OpenSans-Bold-69" transform="translate(74.023438 0)"/>
       <use xlink:href="#OpenSans-Bold-66" transform="translate(104.541016 0)"/>
       <use xlink:href="#OpenSans-Bold-66" transform="translate(143.261719 0)"/>
       <use xlink:href="#OpenSans-Bold-65" transform="translate(181.982422 0)"/>
       <use xlink:href="#OpenSans-Bold-72" transform="translate(241.064453 0)"/>
       <use xlink:href="#OpenSans-Bold-65" transform="translate(284.474609 0)"/>
       <use xlink:href="#OpenSans-Bold-6e" transform="translate(343.556641 0)"/>
       <use xlink:href="#OpenSans-Bold-63" transform="translate(409.279297 0)"/>
       <use xlink:href="#OpenSans-Bold-65" transform="translate(460.695312 0)"/>
      </g>
      <!-- between models -->
      <g style="fill: #c6d1e8" transform="translate(222.998338 213.823625) scale(0.12 -0.12)">
       <defs>
        <path id="OpenSans-Bold-62" d="M 2444 3559 
Q 3063 3559 3413 3076 
Q 3763 2594 3763 1753 
Q 3763 888 3402 412 
Q 3041 -63 2419 -63 
Q 1803 -63 1453 384 
L 1388 384 
L 1228 0 
L 500 0 
L 500 4863 
L 1453 4863 
L 1453 3731 
Q 1453 3516 1416 3041 
L 1453 3041 
Q 1788 3559 2444 3559 
z
M 2138 2797 
Q 1784 2797 1621 2580 
Q 1459 2363 1453 1863 
L 1453 1759 
Q 1453 1197 1620 953 
Q 1788 709 2150 709 
Q 2444 709 2617 979 
Q 2791 1250 2791 1766 
Q 2791 2281 2616 2539 
Q 2441 2797 2138 2797 
z
" transform="scale(0.015625)"/>
        <path id="OpenSans-Bold-74" d="M 1972 697 
Q 2222 697 2572 806 
L 2572 97 
Q 2216 -63 1697 -63 
Q 1125 -63 864 226 
Q 603 516 603 1094 
L 603 2778 
L 147 2778 
L 147 3181 
L 672 3500 
L 947 4238 
L 1556 4238 
L 1556 3494 
L 2534 3494 
L 2534 2778 
L 1556 2778 
L 1556 1094 
Q 1556 891 1670 794 
Q 1784 697 1972 697 
z
" transform="scale(0.015625)"/>
        <path id="OpenSans-Bold-77" d="M 3372 0 
L 3103 1222 
L 2741 2766 
L 2719 2766 
L 2081 0 
L 1056 0 
L 63 3494 
L 1013 3494 
L 1416 1947 
Q 1513 1531 1613 800 
L 1631 800 
Q 1644 1038 1741 1553 
L 1791 1819 
L 2222 3494 
L 3272 3494 
L 3681 1819 
Q 3694 1750 3720 1615 
Q 3747 1481 3772 1329 
Q 3797 1178 3817 1033 
Q 3838 888 3841 800 
L 3859 800 
Q 3888 1025 3959 1417 
Q 4031 1809 4063 1947 
L 4481 3494 
L 5416 3494 
L 4409 0 
L 3372 0 
z
" transform="scale(0.015625)"/>
        <path id="OpenSans-Bold-6f" d="M 1259 1753 
Q 1259 1234 1429 968 
Q 1600 703 1984 703 
Q 2366 703 2533 967 
Q 2700 1231 2700 1753 
Q 2700 2272 2531 2531 
Q 2363 2791 1978 2791 
Q 1597 2791 1428 2533 
Q 1259 2275 1259 1753 
z
M 3675 1753 
Q 3675 900 3225 418 
Q 2775 -63 1972 -63 
Q 1469 -63 1084 157 
Q 700 378 494 790 
Q 288 1203 288 1753 
Q 288 2609 734 3084 
Q 1181 3559 1991 3559 
Q 2494 3559 2878 3340 
Q 3263 3122 3469 2712 
Q 3675 2303 3675 1753 
z
" transform="scale(0.015625)"/>
        <path id="OpenSans-Bold-64" d="M 1606 -63 
Q 991 -63 639 415 
Q 288 894 288 1741 
Q 288 2600 645 3079 
Q 1003 3559 1631 3559 
Q 2291 3559 2638 3047 
L 2669 3047 
Q 2597 3438 2597 3744 
L 2597 4863 
L 3553 4863 
L 3553 0 
L 2822 0 
L 2638 453 
L 2597 453 
Q 2272 -63 1606 -63 
z
M 1941 697 
Q 2306 697 2476 909 
Q 2647 1122 2663 1631 
L 2663 1734 
Q 2663 2297 2489 2540 
Q 2316 2784 1925 2784 
Q 1606 2784 1429 2514 
Q 1253 2244 1253 1728 
Q 1253 1213 1431 955 
Q 1609 697 1941 697 
z
" transform="scale(0.015625)"/>
        <path id="OpenSans-Bold-6c" d="M 1453 0 
L 500 0 
L 500 4863 
L 1453 4863 
L 1453 0 
z
" transform="scale(0.015625)"/>
       </defs>
       <use xlink:href="#OpenSans-Bold-62"/>
       <use xlink:href="#OpenSans-Bold-65" transform="translate(63.28125 0)"/>
       <use xlink:href="#OpenSans-Bold-74" transform="translate(122.363281 0)"/>
       <use xlink:href="#OpenSans-Bold-77" transform="translate(165.771484 0)"/>
       <use xlink:href="#OpenSans-Bold-65" transform="translate(251.367188 0)"/>
       <use xlink:href="#OpenSans-Bold-65" transform="translate(310.449219 0)"/>
       <use xlink:href="#OpenSans-Bold-6e" transform="translate(369.53125 0)"/>
       <use xlink:href="#OpenSans-Bold-20" transform="translate(435.253906 0)"/>
       <use xlink:href="#OpenSans-Bold-6d" transform="translate(461.230469 0)"/>
       <use xlink:href="#OpenSans-Bold-6f" transform="translate(559.423828 0)"/>
       <use xlink:href="#OpenSans-Bold-64" transform="translate(621.337891 0)"/>
       <use xlink:href="#OpenSans-Bold-65" transform="translate(684.619141 0)"/>
       <use xlink:href="#OpenSans-Bold-6c" transform="translate(743.701172 0)"/>
       <use xlink:href="#OpenSans-Bold-73" transform="translate(774.21875 0)"/>
      </g>
     </g>
    </g>
   </g>
   <g id="matplotlib.axis_2">
    <g id="ytick_1">
     <g id="line2d_3">
      <path d="M 53.958359 187.38 
L 327.378359 187.38 
" clip-path="url(#p86047def7d)" style="fill: none; stroke: #ffffff; stroke-opacity: 0.09; stroke-width: 0.8; stroke-linecap: square"/>
     </g>
     <g id="line2d_4"/>
     <g id="text_3">
      <!-- 0.00 -->
      <g style="fill: #8a98b8" transform="translate(24.702109 192.318984) scale(0.13 -0.13)">
       <defs>
        <path id="OpenSans-30" d="M 3341 2291 
Q 3341 1106 2967 521 
Q 2594 -63 1825 -63 
Q 1088 -63 703 535 
Q 319 1134 319 2291 
Q 319 3484 691 4062 
Q 1063 4641 1825 4641 
Q 2569 4641 2955 4037 
Q 3341 3434 3341 2291 
z
M 844 2291 
Q 844 1294 1078 839 
Q 1313 384 1825 384 
Q 2344 384 2576 845 
Q 2809 1306 2809 2291 
Q 2809 3275 2576 3733 
Q 2344 4191 1825 4191 
Q 1313 4191 1078 3739 
Q 844 3288 844 2291 
z
" transform="scale(0.015625)"/>
        <path id="OpenSans-2e" d="M 475 331 
Q 475 541 570 648 
Q 666 756 844 756 
Q 1025 756 1126 648 
Q 1228 541 1228 331 
Q 1228 128 1125 18 
Q 1022 -91 844 -91 
Q 684 -91 579 7 
Q 475 106 475 331 
z
" transform="scale(0.015625)"/>
       </defs>
       <use xlink:href="#OpenSans-30"/>
       <use xlink:href="#OpenSans-2e" transform="translate(57.177734 0)"/>
       <use xlink:href="#OpenSans-30" transform="translate(83.789062 0)"/>
       <use xlink:href="#OpenSans-30" transform="translate(140.966797 0)"/>
      </g>
     </g>
    </g>
    <g id="ytick_2">
     <g id="line2d_5">
      <path d="M 53.958359 142.160051 
L 327.378359 142.160051 
" clip-path="url(#p86047def7d)" style="fill: none; stroke: #ffffff; stroke-opacity: 0.09; stroke-width: 0.8; stroke-linecap: square"/>
     </g>
     <g id="line2d_6"/>
     <g id="text_4">
      <!-- 0.01 -->
      <g style="fill: #8a98b8" transform="translate(24.702109 147.099035) scale(0.13 -0.13)">
       <defs>
        <path id="OpenSans-31" d="M 2234 0 
L 1728 0 
L 1728 3256 
Q 1728 3663 1753 4025 
Q 1688 3959 1606 3887 
Q 1525 3816 863 3278 
L 588 3634 
L 1797 4569 
L 2234 4569 
L 2234 0 
z
" transform="scale(0.015625)"/>
       </defs>
       <use xlink:href="#OpenSans-30"/>
       <use xlink:href="#OpenSans-2e" transform="translate(57.177734 0)"/>
       <use xlink:href="#OpenSans-30" transform="translate(83.789062 0)"/>
       <use xlink:href="#OpenSans-31" transform="translate(140.966797 0)"/>
      </g>
     </g>
    </g>
    <g id="ytick_3">
     <g id="line2d_7">
      <path d="M 53.958359 96.940101 
L 327.378359 96.940101 
" clip-path="url(#p86047def7d)" style="fill: none; stroke: #ffffff; stroke-opacity: 0.09; stroke-width: 0.8; stroke-linecap: square"/>
     </g>
     <g id="line2d_8"/>
     <g id="text_5">
      <!-- 0.02 -->
      <g style="fill: #8a98b8" transform="translate(24.702109 101.879085) scale(0.13 -0.13)">
       <defs>
        <path id="OpenSans-32" d="M 3316 0 
L 313 0 
L 313 447 
L 1516 1656 
Q 2066 2213 2241 2450 
Q 2416 2688 2503 2913 
Q 2591 3138 2591 3397 
Q 2591 3763 2369 3977 
Q 2147 4191 1753 4191 
Q 1469 4191 1214 4097 
Q 959 4003 647 3756 
L 372 4109 
Q 1003 4634 1747 4634 
Q 2391 4634 2756 4304 
Q 3122 3975 3122 3419 
Q 3122 2984 2878 2559 
Q 2634 2134 1966 1484 
L 966 506 
L 966 481 
L 3316 481 
L 3316 0 
z
" transform="scale(0.015625)"/>
       </defs>
       <use xlink:href="#OpenSans-30"/>
       <use xlink:href="#OpenSans-2e" transform="translate(57.177734 0)"/>
       <use xlink:href="#OpenSans-30" transform="translate(83.789062 0)"/>
       <use xlink:href="#OpenSans-32" transform="translate(140.966797 0)"/>
      </g>
     </g>
    </g>
    <g id="ytick_4">
     <g id="line2d_9">
      <path d="M 53.958359 51.720152 
L 327.378359 51.720152 
" clip-path="url(#p86047def7d)" style="fill: none; stroke: #ffffff; stroke-opacity: 0.09; stroke-width: 0.8; stroke-linecap: square"/>
     </g>
     <g id="line2d_10"/>
     <g id="text_6">
      <!-- 0.03 -->
      <g style="fill: #8a98b8" transform="translate(24.702109 56.659136) scale(0.13 -0.13)">
       <defs>
        <path id="OpenSans-33" d="M 3144 3494 
Q 3144 3056 2898 2778 
Q 2653 2500 2203 2406 
L 2203 2381 
Q 2753 2313 3018 2031 
Q 3284 1750 3284 1294 
Q 3284 641 2831 289 
Q 2378 -63 1544 -63 
Q 1181 -63 879 -8 
Q 578 47 294 184 
L 294 678 
Q 591 531 927 454 
Q 1263 378 1563 378 
Q 2747 378 2747 1306 
Q 2747 2138 1441 2138 
L 991 2138 
L 991 2584 
L 1447 2584 
Q 1981 2584 2293 2820 
Q 2606 3056 2606 3475 
Q 2606 3809 2376 4000 
Q 2147 4191 1753 4191 
Q 1453 4191 1187 4109 
Q 922 4028 581 3809 
L 319 4159 
Q 600 4381 967 4507 
Q 1334 4634 1741 4634 
Q 2406 4634 2775 4329 
Q 3144 4025 3144 3494 
z
" transform="scale(0.015625)"/>
       </defs>
       <use xlink:href="#OpenSans-30"/>
       <use xlink:href="#OpenSans-2e" transform="translate(57.177734 0)"/>
       <use xlink:href="#OpenSans-30" transform="translate(83.789062 0)"/>
       <use xlink:href="#OpenSans-33" transform="translate(140.966797 0)"/>
      </g>
     </g>
    </g>
    <g id="text_7">
     <!-- BERTScore F1 (difference) -->
     <g style="fill: #8a98b8" transform="translate(17.457891 179.777109) rotate(-90) scale(0.135 -0.135)">
      <defs>
       <path id="OpenSans-Semibold-42" d="M 603 4569 
L 1959 4569 
Q 2903 4569 3323 4294 
Q 3744 4019 3744 3425 
Q 3744 3025 3537 2759 
Q 3331 2494 2944 2425 
L 2944 2394 
Q 3425 2303 3651 2036 
Q 3878 1769 3878 1313 
Q 3878 697 3448 348 
Q 3019 0 2253 0 
L 603 0 
L 603 4569 
z
M 1350 2681 
L 2069 2681 
Q 2538 2681 2753 2829 
Q 2969 2978 2969 3334 
Q 2969 3656 2736 3800 
Q 2503 3944 1997 3944 
L 1350 3944 
L 1350 2681 
z
M 1350 2075 
L 1350 628 
L 2144 628 
Q 2613 628 2852 808 
Q 3091 988 3091 1375 
Q 3091 1731 2847 1903 
Q 2603 2075 2106 2075 
L 1350 2075 
z
" transform="scale(0.015625)"/>
       <path id="OpenSans-Semibold-45" d="M 3188 0 
L 603 0 
L 603 4569 
L 3188 4569 
L 3188 3938 
L 1350 3938 
L 1350 2694 
L 3072 2694 
L 3072 2069 
L 1350 2069 
L 1350 634 
L 3188 634 
L 3188 0 
z
" transform="scale(0.015625)"/>
       <path id="OpenSans-Semibold-52" d="M 1350 2444 
L 1869 2444 
Q 2391 2444 2625 2637 
Q 2859 2831 2859 3213 
Q 2859 3600 2606 3769 
Q 2353 3938 1844 3938 
L 1350 3938 
L 1350 2444 
z
M 1350 1825 
L 1350 0 
L 603 0 
L 603 4569 
L 1894 4569 
Q 2778 4569 3203 4237 
Q 3628 3906 3628 3238 
Q 3628 2384 2741 2022 
L 4031 0 
L 3181 0 
L 2088 1825 
L 1350 1825 
z
" transform="scale(0.015625)"/>
       <path id="OpenSans-Semibold-54" d="M 2181 0 
L 1434 0 
L 1434 3928 
L 91 3928 
L 91 4569 
L 3525 4569 
L 3525 3928 
L 2181 3928 
L 2181 0 
z
" transform="scale(0.015625)"/>
       <path id="OpenSans-Semibold-53" d="M 3238 1241 
Q 3238 631 2797 284 
Q 2356 -63 1581 -63 
Q 806 -63 313 178 
L 313 884 
Q 625 738 976 653 
Q 1328 569 1631 569 
Q 2075 569 2286 737 
Q 2497 906 2497 1191 
Q 2497 1447 2303 1625 
Q 2109 1803 1503 2047 
Q 878 2300 622 2625 
Q 366 2950 366 3406 
Q 366 3978 772 4306 
Q 1178 4634 1863 4634 
Q 2519 4634 3169 4347 
L 2931 3738 
Q 2322 3994 1844 3994 
Q 1481 3994 1293 3836 
Q 1106 3678 1106 3419 
Q 1106 3241 1181 3114 
Q 1256 2988 1428 2875 
Q 1600 2763 2047 2578 
Q 2550 2369 2784 2187 
Q 3019 2006 3128 1778 
Q 3238 1550 3238 1241 
z
" transform="scale(0.015625)"/>
       <path id="OpenSans-Semibold-63" d="M 1919 -63 
Q 1134 -63 726 395 
Q 319 853 319 1709 
Q 319 2581 745 3050 
Q 1172 3519 1978 3519 
Q 2525 3519 2963 3316 
L 2741 2725 
Q 2275 2906 1972 2906 
Q 1075 2906 1075 1716 
Q 1075 1134 1298 842 
Q 1522 550 1953 550 
Q 2444 550 2881 794 
L 2881 153 
Q 2684 38 2461 -12 
Q 2238 -63 1919 -63 
z
" transform="scale(0.015625)"/>
       <path id="OpenSans-Semibold-6f" d="M 3591 1734 
Q 3591 888 3156 412 
Q 2722 -63 1947 -63 
Q 1463 -63 1091 156 
Q 719 375 519 784 
Q 319 1194 319 1734 
Q 319 2575 750 3047 
Q 1181 3519 1966 3519 
Q 2716 3519 3153 3036 
Q 3591 2553 3591 1734 
z
M 1075 1734 
Q 1075 538 1959 538 
Q 2834 538 2834 1734 
Q 2834 2919 1953 2919 
Q 1491 2919 1283 2612 
Q 1075 2306 1075 1734 
z
" transform="scale(0.015625)"/>
       <path id="OpenSans-Semibold-72" d="M 2278 3519 
Q 2500 3519 2644 3488 
L 2572 2803 
Q 2416 2841 2247 2841 
Q 1806 2841 1532 2553 
Q 1259 2266 1259 1806 
L 1259 0 
L 525 0 
L 525 3456 
L 1100 3456 
L 1197 2847 
L 1234 2847 
Q 1406 3156 1682 3337 
Q 1959 3519 2278 3519 
z
" transform="scale(0.015625)"/>
       <path id="OpenSans-Semibold-65" d="M 2034 -63 
Q 1228 -63 773 407 
Q 319 878 319 1703 
Q 319 2550 741 3034 
Q 1163 3519 1900 3519 
Q 2584 3519 2981 3103 
Q 3378 2688 3378 1959 
L 3378 1563 
L 1075 1563 
Q 1091 1059 1347 789 
Q 1603 519 2069 519 
Q 2375 519 2639 576 
Q 2903 634 3206 769 
L 3206 172 
Q 2938 44 2663 -9 
Q 2388 -63 2034 -63 
z
M 1900 2963 
Q 1550 2963 1339 2741 
Q 1128 2519 1088 2094 
L 2656 2094 
Q 2650 2522 2450 2742 
Q 2250 2963 1900 2963 
z
" transform="scale(0.015625)"/>
       <path id="OpenSans-Semibold-20" transform="scale(0.015625)"/>
       <path id="OpenSans-Semibold-46" d="M 1344 0 
L 603 0 
L 603 4569 
L 3181 4569 
L 3181 3938 
L 1344 3938 
L 1344 2509 
L 3066 2509 
L 3066 1875 
L 1344 1875 
L 1344 0 
z
" transform="scale(0.015625)"/>
       <path id="OpenSans-Semibold-31" d="M 2438 0 
L 1703 0 
L 1703 2950 
Q 1703 3478 1728 3788 
Q 1656 3713 1551 3622 
Q 1447 3531 850 3047 
L 481 3513 
L 1825 4569 
L 2438 4569 
L 2438 0 
z
" transform="scale(0.015625)"/>
       <path id="OpenSans-Semibold-28" d="M 256 1753 
Q 256 2581 498 3303 
Q 741 4025 1197 4569 
L 1838 4569 
Q 1403 3981 1172 3251 
Q 941 2522 941 1759 
Q 941 997 1172 281 
Q 1403 -434 1831 -1013 
L 1197 -1013 
Q 738 -481 497 228 
Q 256 938 256 1753 
z
" transform="scale(0.015625)"/>
       <path id="OpenSans-Semibold-64" d="M 1691 -63 
Q 1044 -63 681 406 
Q 319 875 319 1722 
Q 319 2572 686 3045 
Q 1053 3519 1703 3519 
Q 2384 3519 2741 3016 
L 2778 3016 
Q 2725 3388 2725 3603 
L 2725 4863 
L 3463 4863 
L 3463 0 
L 2888 0 
L 2759 453 
L 2725 453 
Q 2372 -63 1691 -63 
z
M 1888 531 
Q 2341 531 2547 786 
Q 2753 1041 2759 1613 
L 2759 1716 
Q 2759 2369 2546 2644 
Q 2334 2919 1881 2919 
Q 1494 2919 1284 2605 
Q 1075 2291 1075 1709 
Q 1075 1134 1278 832 
Q 1481 531 1888 531 
z
" transform="scale(0.015625)"/>
       <path id="OpenSans-Semibold-69" d="M 1259 0 
L 525 0 
L 525 3456 
L 1259 3456 
L 1259 0 
z
M 481 4372 
Q 481 4569 589 4675 
Q 697 4781 897 4781 
Q 1091 4781 1198 4675 
Q 1306 4569 1306 4372 
Q 1306 4184 1198 4076 
Q 1091 3969 897 3969 
Q 697 3969 589 4076 
Q 481 4184 481 4372 
z
" transform="scale(0.015625)"/>
       <path id="OpenSans-Semibold-66" d="M 2259 2900 
L 1416 2900 
L 1416 0 
L 678 0 
L 678 2900 
L 109 2900 
L 109 3244 
L 678 3469 
L 678 3694 
Q 678 4306 965 4601 
Q 1253 4897 1844 4897 
Q 2231 4897 2606 4769 
L 2413 4213 
Q 2141 4300 1894 4300 
Q 1644 4300 1530 4145 
Q 1416 3991 1416 3681 
L 1416 3456 
L 2259 3456 
L 2259 2900 
z
" transform="scale(0.015625)"/>
       <path id="OpenSans-Semibold-6e" d="M 3566 0 
L 2828 0 
L 2828 2125 
Q 2828 2525 2667 2722 
Q 2506 2919 2156 2919 
Q 1691 2919 1475 2644 
Q 1259 2369 1259 1722 
L 1259 0 
L 525 0 
L 525 3456 
L 1100 3456 
L 1203 3003 
L 1241 3003 
Q 1397 3250 1684 3384 
Q 1972 3519 2322 3519 
Q 3566 3519 3566 2253 
L 3566 0 
z
" transform="scale(0.015625)"/>
       <path id="OpenSans-Semibold-29" d="M 1772 1753 
Q 1772 931 1530 221 
Q 1288 -488 831 -1013 
L 197 -1013 
Q 628 -428 858 284 
Q 1088 997 1088 1759 
Q 1088 2525 856 3251 
Q 625 3978 191 4569 
L 831 4569 
Q 1291 4022 1531 3298 
Q 1772 2575 1772 1753 
z
" transform="scale(0.015625)"/>
      </defs>
      <use xlink:href="#OpenSans-Semibold-42"/>
      <use xlink:href="#OpenSans-Semibold-45" transform="translate(66.015625 0)"/>
      <use xlink:href="#OpenSans-Semibold-52" transform="translate(121.826172 0)"/>
      <use xlink:href="#OpenSans-Semibold-54" transform="translate(185.742188 0)"/>
      <use xlink:href="#OpenSans-Semibold-53" transform="translate(242.333984 0)"/>
      <use xlink:href="#OpenSans-Semibold-63" transform="translate(297.314453 0)"/>
      <use xlink:href="#OpenSans-Semibold-6f" transform="translate(346.826172 0)"/>
      <use xlink:href="#OpenSans-Semibold-72" transform="translate(407.910156 0)"/>
      <use xlink:href="#OpenSans-Semibold-65" transform="translate(449.025391 0)"/>
      <use xlink:href="#OpenSans-Semibold-20" transform="translate(506.642578 0)"/>
      <use xlink:href="#OpenSans-Semibold-46" transform="translate(532.619141 0)"/>
      <use xlink:href="#OpenSans-Semibold-31" transform="translate(585.841797 0)"/>
      <use xlink:href="#OpenSans-Semibold-20" transform="translate(642.921875 0)"/>
      <use xlink:href="#OpenSans-Semibold-28" transform="translate(668.898438 0)"/>
      <use xlink:href="#OpenSans-Semibold-64" transform="translate(700.587891 0)"/>
      <use xlink:href="#OpenSans-Semibold-69" transform="translate(762.892578 0)"/>
      <use xlink:href="#OpenSans-Semibold-66" transform="translate(790.773438 0)"/>
      <use xlink:href="#OpenSans-Semibold-66" transform="translate(827.052734 0)"/>
      <use xlink:href="#OpenSans-Semibold-65" transform="translate(863.332031 0)"/>
      <use xlink:href="#OpenSans-Semibold-72" transform="translate(920.949219 0)"/>
      <use xlink:href="#OpenSans-Semibold-65" transform="translate(962.064453 0)"/>
      <use xlink:href="#OpenSans-Semibold-6e" transform="translate(1019.681641 0)"/>
      <use xlink:href="#OpenSans-Semibold-63" transform="translate(1083.158203 0)"/>
      <use xlink:href="#OpenSans-Semibold-65" transform="translate(1132.669922 0)"/>
      <use xlink:href="#OpenSans-Semibold-29" transform="translate(1190.287109 0)"/>
     </g>
    </g>
   </g>
   <g id="patch_3">
    <path d="M 53.958359 187.38 
L 53.958359 7.2 
" style="fill: none; opacity: 0.18; stroke: #ffffff; stroke-linejoin: miter; stroke-linecap: square"/>
   </g>
   <g id="patch_4">
    <path d="M 53.958359 187.38 
L 327.378359 187.38 
" style="fill: none; opacity: 0.18; stroke: #ffffff; stroke-linejoin: miter; stroke-linecap: square"/>
   </g>
   <g id="patch_5">
    <path d="M 66.386541 187.38 
L 151.421469 187.38 
L 151.421469 162.569244 
L 66.386541 162.569244 
z
" clip-path="url(#p86047def7d)" style="fill: #6b7a9c; stroke: #121826; stroke-width: 1.4; stroke-linejoin: miter"/>
   </g>
   <g id="patch_6">
    <path d="M 229.915249 187.38 
L 314.950178 187.38 
L 314.950178 48.78 
L 229.915249 48.78 
z
" clip-path="url(#p86047def7d)" style="fill: #fbbf77; stroke: #121826; stroke-width: 1.4; stroke-linejoin: miter"/>
   </g>
   <g id="text_8">
    <!-- 0.0055 -->
    <g style="fill: #e8eefb" transform="translate(84.76338 154.806556) scale(0.15 -0.15)">
     <defs>
      <path id="OpenSans-Extrabold-30" d="M 3525 2278 
Q 3525 1066 3119 501 
Q 2713 -63 1875 -63 
Q 1056 -63 640 526 
Q 225 1116 225 2278 
Q 225 3497 631 4065 
Q 1038 4634 1875 4634 
Q 2691 4634 3108 4042 
Q 3525 3450 3525 2278 
z
M 1453 2278 
Q 1453 1503 1550 1212 
Q 1647 922 1875 922 
Q 2106 922 2201 1222 
Q 2297 1522 2297 2278 
Q 2297 3038 2200 3342 
Q 2103 3647 1875 3647 
Q 1647 3647 1550 3353 
Q 1453 3059 1453 2278 
z
" transform="scale(0.015625)"/>
      <path id="OpenSans-Extrabold-2e" d="M 269 519 
Q 269 806 439 962 
Q 609 1119 934 1119 
Q 1244 1119 1409 962 
Q 1575 806 1575 519 
Q 1575 238 1404 80 
Q 1234 -78 934 -78 
Q 625 -78 447 78 
Q 269 234 269 519 
z
" transform="scale(0.015625)"/>
      <path id="OpenSans-Extrabold-35" d="M 2075 2994 
Q 2469 2994 2786 2811 
Q 3103 2628 3279 2293 
Q 3456 1959 3456 1522 
Q 3456 756 2995 346 
Q 2534 -63 1600 -63 
Q 800 -63 294 184 
L 294 1197 
Q 566 1072 908 990 
Q 1250 909 1497 909 
Q 1841 909 2025 1054 
Q 2209 1200 2209 1484 
Q 2209 1747 2021 1894 
Q 1834 2041 1453 2041 
Q 1163 2041 825 1931 
L 372 2156 
L 544 4569 
L 3150 4569 
L 3150 3541 
L 1594 3541 
L 1538 2938 
Q 1781 2984 1884 2989 
Q 1988 2994 2075 2994 
z
" transform="scale(0.015625)"/>
     </defs>
     <use xlink:href="#OpenSans-Extrabold-30"/>
     <use xlink:href="#OpenSans-Extrabold-2e" transform="translate(58.59375 0)"/>
     <use xlink:href="#OpenSans-Extrabold-30" transform="translate(87.5 0)"/>
     <use xlink:href="#OpenSans-Extrabold-30" transform="translate(146.09375 0)"/>
     <use xlink:href="#OpenSans-Extrabold-35" transform="translate(204.6875 0)"/>
     <use xlink:href="#OpenSans-Extrabold-35" transform="translate(263.28125 0)"/>
    </g>
   </g>
   <g id="text_9">
    <!-- 0.0307 -->
    <g style="fill: #e8eefb" transform="translate(248.292088 41.017313) scale(0.15 -0.15)">
     <defs>
      <path id="OpenSans-Extrabold-33" d="M 3353 3578 
Q 3353 3153 3093 2848 
Q 2834 2544 2344 2406 
L 2344 2388 
Q 3488 2244 3488 1306 
Q 3488 669 2983 303 
Q 2478 -63 1581 -63 
Q 1213 -63 898 -9 
Q 584 44 219 184 
L 219 1209 
Q 519 1056 830 982 
Q 1141 909 1403 909 
Q 1809 909 1995 1023 
Q 2181 1138 2181 1381 
Q 2181 1569 2084 1670 
Q 1988 1772 1772 1823 
Q 1556 1875 1209 1875 
L 928 1875 
L 928 2803 
L 1216 2803 
Q 2156 2803 2156 3284 
Q 2156 3466 2017 3553 
Q 1878 3641 1644 3641 
Q 1206 3641 738 3347 
L 225 4172 
Q 588 4422 967 4528 
Q 1347 4634 1838 4634 
Q 2547 4634 2950 4353 
Q 3353 4072 3353 3578 
z
" transform="scale(0.015625)"/>
      <path id="OpenSans-Extrabold-37" d="M 653 0 
L 2222 3541 
L 244 3541 
L 244 4563 
L 3541 4563 
L 3541 3834 
L 1931 0 
L 653 0 
z
" transform="scale(0.015625)"/>
     </defs>
     <use xlink:href="#OpenSans-Extrabold-30"/>
     <use xlink:href="#OpenSans-Extrabold-2e" transform="translate(58.59375 0)"/>
     <use xlink:href="#OpenSans-Extrabold-30" transform="translate(87.5 0)"/>
     <use xlink:href="#OpenSans-Extrabold-33" transform="translate(146.09375 0)"/>
     <use xlink:href="#OpenSans-Extrabold-30" transform="translate(204.6875 0)"/>
     <use xlink:href="#OpenSans-Extrabold-37" transform="translate(263.28125 0)"/>
    </g>
   </g>
   <g id="patch_7">
    <path d="M 208.186317 68.776487 
Q 239.417422 84.658583 269.253322 99.83117 
" style="fill: none; stroke: #fbbf77; stroke-width: 1.4; stroke-linecap: round"/>
    <path d="M 266.062671 95.516109 
L 269.253322 99.83117 
L 263.886883 99.794654 
" style="fill: none; stroke: #fbbf77; stroke-width: 1.4; stroke-linecap: round"/>
   </g>
   <g id="text_10">
    <!-- 6× larger -->
    <g style="fill: #fbbf77" transform="translate(164.481172 62.985188) scale(0.12 -0.12)">
     <defs>
      <path id="OpenSans-Bold-36" d="M 225 1941 
Q 225 3297 798 3959 
Q 1372 4622 2516 4622 
Q 2906 4622 3128 4575 
L 3128 3803 
Q 2850 3866 2578 3866 
Q 2081 3866 1767 3716 
Q 1453 3566 1297 3272 
Q 1141 2978 1113 2438 
L 1153 2438 
Q 1463 2969 2144 2969 
Q 2756 2969 3103 2584 
Q 3450 2200 3450 1522 
Q 3450 791 3037 364 
Q 2625 -63 1894 -63 
Q 1388 -63 1011 171 
Q 634 406 429 856 
Q 225 1306 225 1941 
z
M 1875 709 
Q 2184 709 2350 917 
Q 2516 1125 2516 1509 
Q 2516 1844 2361 2036 
Q 2206 2228 1894 2228 
Q 1600 2228 1392 2037 
Q 1184 1847 1184 1594 
Q 1184 1222 1379 965 
Q 1575 709 1875 709 
z
" transform="scale(0.015625)"/>
      <path id="OpenSans-Bold-67" d="M 3541 3494 
L 3541 3009 
L 2994 2869 
Q 3144 2634 3144 2344 
Q 3144 1781 2751 1467 
Q 2359 1153 1663 1153 
L 1491 1163 
L 1350 1178 
Q 1203 1066 1203 928 
Q 1203 722 1728 722 
L 2322 722 
Q 2897 722 3198 475 
Q 3500 228 3500 -250 
Q 3500 -863 2989 -1200 
Q 2478 -1538 1522 -1538 
Q 791 -1538 405 -1283 
Q 19 -1028 19 -569 
Q 19 -253 216 -40 
Q 413 172 794 263 
Q 647 325 537 467 
Q 428 609 428 769 
Q 428 969 543 1101 
Q 659 1234 878 1363 
Q 603 1481 442 1743 
Q 281 2006 281 2363 
Q 281 2934 653 3246 
Q 1025 3559 1716 3559 
Q 1863 3559 2064 3532 
Q 2266 3506 2322 3494 
L 3541 3494 
z
M 844 -494 
Q 844 -691 1033 -803 
Q 1222 -916 1563 -916 
Q 2075 -916 2365 -775 
Q 2656 -634 2656 -391 
Q 2656 -194 2484 -119 
Q 2313 -44 1953 -44 
L 1459 -44 
Q 1197 -44 1020 -167 
Q 844 -291 844 -494 
z
M 1191 2350 
Q 1191 2066 1320 1900 
Q 1450 1734 1716 1734 
Q 1984 1734 2109 1900 
Q 2234 2066 2234 2350 
Q 2234 2981 1716 2981 
Q 1191 2981 1191 2350 
z
" transform="scale(0.015625)"/>
     </defs>
     <use xlink:href="#OpenSans-Bold-36"/>
     <use xlink:href="#OpenSans-Bold-d7" transform="translate(57.080078 0)"/>
     <use xlink:href="#OpenSans-Bold-20" transform="translate(114.160156 0)"/>
     <use xlink:href="#OpenSans-Bold-6c" transform="translate(140.136719 0)"/>
     <use xlink:href="#OpenSans-Bold-61" transform="translate(170.654297 0)"/>
     <use xlink:href="#OpenSans-Bold-72" transform="translate(231.054688 0)"/>
     <use xlink:href="#OpenSans-Bold-67" transform="translate(275.464844 0)"/>
     <use xlink:href="#OpenSans-Bold-65" transform="translate(331.958984 0)"/>
     <use xlink:href="#OpenSans-Bold-72" transform="translate(391.041016 0)"/>
    </g>
   </g>
  </g>
 </g>
 <defs>
  <clipPath id="p86047def7d">
   <rect x="53.958359" y="7.2" width="273.42" height="180.18"/>
  </clipPath>
 </defs>
</svg>
