<?xml version="1.0" encoding="utf-8" standalone="no"?>
<!DOCTYPE svg PUBLIC "-//W3C//DTD SVG 1.1//EN"
  "http://www.w3.org/Graphics/SVG/1.1/DTD/svg11.dtd">
<svg xmlns:xlink="http://www.w3.org/1999/xlink" width="418.278359pt" height="235.546753pt" viewBox="0 0 418.278359 235.546753" xmlns="http://www.w3.org/2000/svg" version="1.1">
 <metadata>
  <rdf:RDF xmlns:dc="http://purl.org/dc/elements/1.1/" xmlns:cc="http://creativecommons.org/ns#" xmlns:rdf="http://www.w3.org/1999/02/22-rdf-syntax-ns#">
   <cc:Work>
    <dc:type rdf:resource="http://purl.org/dc/dcmitype/StillImage"/>
    <dc:date>2026-07-13T12:06:23.147115</dc:date>
    <dc:format>image/svg+xml</dc:format>
    <dc:creator>
     <cc:Agent>
      <dc:title>Matplotlib v3.10.9, https://matplotlib.org/</dc:title>
     </cc:Agent>
    </dc:creator>
   </cc:Work>
  </rdf:RDF>
 </metadata>
 <defs>
  <style type="text/css">*{stroke-linejoin: round; stroke-linecap: butt}</style>
 </defs>
 <g id="figure_1">
  <g id="patch_1">
   <path d="M 0 235.546753 
L 418.278359 235.546753 
L 418.278359 0 
L 0 0 
L 0 235.546753 
z
" style="fill: none"/>
  </g>
  <g id="axes_1">
   <g id="patch_2">
    <path d="M 53.958359 212.3448 
L 411.078359 212.3448 
L 411.078359 29.3928 
L 53.958359 29.3928 
L 53.958359 212.3448 
z
" style="fill: none"/>
   </g>
   <g id="matplotlib.axis_1">
    <g id="xtick_1">
     <g id="line2d_1"/>
     <g id="text_1">
      <!-- Invoice -->
      <g style="fill: #3f3f46" transform="translate(80.585903 225.342847) scale(0.125 -0.125)">
       <defs>
        <path id="OpenSans-Bold-49" d="M 575 0 
L 575 4569 
L 1544 4569 
L 1544 0 
L 575 0 
z
" transform="scale(0.015625)"/>
        <path id="OpenSans-Bold-6e" d="M 3725 0 
L 2772 0 
L 2772 2041 
Q 2772 2419 2637 2608 
Q 2503 2797 2209 2797 
Q 1809 2797 1631 2530 
Q 1453 2263 1453 1644 
L 1453 0 
L 500 0 
L 500 3494 
L 1228 3494 
L 1356 3047 
L 1409 3047 
Q 1569 3300 1848 3429 
Q 2128 3559 2484 3559 
Q 3094 3559 3409 3229 
Q 3725 2900 3725 2278 
L 3725 0 
z
" transform="scale(0.015625)"/>
        <path id="OpenSans-Bold-76" d="M 1331 0 
L 0 3494 
L 997 3494 
L 1672 1503 
Q 1784 1125 1813 788 
L 1831 788 
Q 1847 1088 1972 1503 
L 2644 3494 
L 3641 3494 
L 2309 0 
L 1331 0 
z
" transform="scale(0.015625)"/>
        <path id="OpenSans-Bold-6f" d="M 1259 1753 
Q 1259 1234 1429 968 
Q 1600 703 1984 703 
Q 2366 703 2533 967 
Q 2700 1231 2700 1753 
Q 2700 2272 2531 2531 
Q 2363 2791 1978 2791 
Q 1597 2791 1428 2533 
Q 1259 2275 1259 1753 
z
M 3675 1753 
Q 3675 900 3225 418 
Q 2775 -63 1972 -63 
Q 1469 -63 1084 157 
Q 700 378 494 790 
Q 288 1203 288 1753 
Q 288 2609 734 3084 
Q 1181 3559 1991 3559 
Q 2494 3559 2878 3340 
Q 3263 3122 3469 2712 
Q 3675 2303 3675 1753 
z
" transform="scale(0.015625)"/>
        <path id="OpenSans-Bold-69" d="M 459 4397 
Q 459 4863 978 4863 
Q 1497 4863 1497 4397 
Q 1497 4175 1367 4051 
Q 1238 3928 978 3928 
Q 459 3928 459 4397 
z
M 1453 0 
L 500 0 
L 500 3494 
L 1453 3494 
L 1453 0 
z
" transform="scale(0.015625)"/>
        <path id="OpenSans-Bold-63" d="M 1919 -63 
Q 288 -63 288 1728 
Q 288 2619 731 3089 
Q 1175 3559 2003 3559 
Q 2609 3559 3091 3322 
L 2809 2584 
Q 2584 2675 2390 2733 
Q 2197 2791 2003 2791 
Q 1259 2791 1259 1734 
Q 1259 709 2003 709 
Q 2278 709 2512 782 
Q 2747 856 2981 1013 
L 2981 197 
Q 2750 50 2514 -6 
Q 2278 -63 1919 -63 
z
" transform="scale(0.015625)"/>
        <path id="OpenSans-Bold-65" d="M 1947 2881 
Q 1644 2881 1472 2689 
Q 1300 2497 1275 2144 
L 2613 2144 
Q 2606 2497 2428 2689 
Q 2250 2881 1947 2881 
z
M 2081 -63 
Q 1238 -63 763 403 
Q 288 869 288 1722 
Q 288 2600 727 3079 
Q 1166 3559 1941 3559 
Q 2681 3559 3093 3137 
Q 3506 2716 3506 1972 
L 3506 1509 
L 1253 1509 
Q 1269 1103 1494 875 
Q 1719 647 2125 647 
Q 2441 647 2722 712 
Q 3003 778 3309 922 
L 3309 184 
Q 3059 59 2775 -2 
Q 2491 -63 2081 -63 
z
" transform="scale(0.015625)"/>
       </defs>
       <use xlink:href="#OpenSans-Bold-49"/>
       <use xlink:href="#OpenSans-Bold-6e" transform="translate(33.105469 0)"/>
       <use xlink:href="#OpenSans-Bold-76" transform="translate(98.828125 0)"/>
       <use xlink:href="#OpenSans-Bold-6f" transform="translate(155.712891 0)"/>
       <use xlink:href="#OpenSans-Bold-69" transform="translate(217.626953 0)"/>
       <use xlink:href="#OpenSans-Bold-63" transform="translate(248.144531 0)"/>
       <use xlink:href="#OpenSans-Bold-65" transform="translate(299.560547 0)"/>
      </g>
     </g>
    </g>
    <g id="xtick_2">
     <g id="line2d_2"/>
     <g id="text_2">
      <!-- EPO -->
      <g style="fill: #3f3f46" transform="translate(176.946798 225.342847) scale(0.125 -0.125)">
       <defs>
        <path id="OpenSans-Bold-45" d="M 3206 0 
L 575 0 
L 575 4569 
L 3206 4569 
L 3206 3775 
L 1544 3775 
L 1544 2772 
L 3091 2772 
L 3091 1978 
L 1544 1978 
L 1544 800 
L 3206 800 
L 3206 0 
z
" transform="scale(0.015625)"/>
        <path id="OpenSans-Bold-50" d="M 1544 2419 
L 1863 2419 
Q 2309 2419 2531 2595 
Q 2753 2772 2753 3109 
Q 2753 3450 2567 3612 
Q 2381 3775 1984 3775 
L 1544 3775 
L 1544 2419 
z
M 3731 3144 
Q 3731 2406 3270 2015 
Q 2809 1625 1959 1625 
L 1544 1625 
L 1544 0 
L 575 0 
L 575 4569 
L 2034 4569 
Q 2866 4569 3298 4211 
Q 3731 3853 3731 3144 
z
" transform="scale(0.015625)"/>
        <path id="OpenSans-Bold-4f" d="M 4722 2291 
Q 4722 1156 4159 546 
Q 3597 -63 2547 -63 
Q 1497 -63 934 546 
Q 372 1156 372 2297 
Q 372 3438 936 4039 
Q 1500 4641 2553 4641 
Q 3606 4641 4164 4034 
Q 4722 3428 4722 2291 
z
M 1388 2291 
Q 1388 1525 1678 1137 
Q 1969 750 2547 750 
Q 3706 750 3706 2291 
Q 3706 3834 2553 3834 
Q 1975 3834 1681 3445 
Q 1388 3056 1388 2291 
z
" transform="scale(0.015625)"/>
       </defs>
       <use xlink:href="#OpenSans-Bold-45"/>
       <use xlink:href="#OpenSans-Bold-50" transform="translate(56.005859 0)"/>
       <use xlink:href="#OpenSans-Bold-4f" transform="translate(118.798828 0)"/>
      </g>
     </g>
    </g>
    <g id="xtick_3">
     <g id="line2d_3"/>
     <g id="text_3">
      <!-- SNIK -->
      <g style="fill: #3f3f46" transform="translate(260.947342 225.342847) scale(0.125 -0.125)">
       <defs>
        <path id="OpenSans-Bold-53" d="M 3272 1269 
Q 3272 650 2826 293 
Q 2381 -63 1588 -63 
Q 856 -63 294 213 
L 294 1113 
Q 756 906 1076 822 
Q 1397 738 1663 738 
Q 1981 738 2151 859 
Q 2322 981 2322 1222 
Q 2322 1356 2247 1461 
Q 2172 1566 2026 1662 
Q 1881 1759 1434 1972 
Q 1016 2169 806 2350 
Q 597 2531 472 2772 
Q 347 3013 347 3334 
Q 347 3941 758 4287 
Q 1169 4634 1894 4634 
Q 2250 4634 2573 4550 
Q 2897 4466 3250 4313 
L 2938 3559 
Q 2572 3709 2333 3768 
Q 2094 3828 1863 3828 
Q 1588 3828 1441 3700 
Q 1294 3572 1294 3366 
Q 1294 3238 1353 3142 
Q 1413 3047 1542 2958 
Q 1672 2869 2156 2638 
Q 2797 2331 3034 2023 
Q 3272 1716 3272 1269 
z
" transform="scale(0.015625)"/>
        <path id="OpenSans-Bold-4e" d="M 4628 0 
L 3397 0 
L 1409 3456 
L 1381 3456 
Q 1441 2541 1441 2150 
L 1441 0 
L 575 0 
L 575 4569 
L 1797 4569 
L 3781 1147 
L 3803 1147 
Q 3756 2038 3756 2406 
L 3756 4569 
L 4628 4569 
L 4628 0 
z
" transform="scale(0.015625)"/>
        <path id="OpenSans-Bold-4b" d="M 4250 0 
L 3150 0 
L 1953 1925 
L 1544 1631 
L 1544 0 
L 575 0 
L 575 4569 
L 1544 4569 
L 1544 2478 
L 1925 3016 
L 3163 4569 
L 4238 4569 
L 2644 2547 
L 4250 0 
z
" transform="scale(0.015625)"/>
       </defs>
       <use xlink:href="#OpenSans-Bold-53"/>
       <use xlink:href="#OpenSans-Bold-4e" transform="translate(55.078125 0)"/>
       <use xlink:href="#OpenSans-Bold-49" transform="translate(136.376953 0)"/>
       <use xlink:href="#OpenSans-Bold-4b" transform="translate(169.482422 0)"/>
      </g>
     </g>
    </g>
    <g id="xtick_4">
     <g id="line2d_4"/>
     <g id="text_4">
      <!-- ChemROF -->
      <g style="fill: #3f3f46" transform="translate(331.584605 225.342847) scale(0.125 -0.125)">
       <defs>
        <path id="OpenSans-Bold-43" d="M 2516 3828 
Q 1969 3828 1669 3417 
Q 1369 3006 1369 2272 
Q 1369 744 2516 744 
Q 2997 744 3681 984 
L 3681 172 
Q 3119 -63 2425 -63 
Q 1428 -63 900 542 
Q 372 1147 372 2278 
Q 372 2991 631 3527 
Q 891 4063 1377 4348 
Q 1863 4634 2516 4634 
Q 3181 4634 3853 4313 
L 3541 3525 
Q 3284 3647 3025 3737 
Q 2766 3828 2516 3828 
z
" transform="scale(0.015625)"/>
        <path id="OpenSans-Bold-68" d="M 3725 0 
L 2772 0 
L 2772 2041 
Q 2772 2797 2209 2797 
Q 1809 2797 1631 2525 
Q 1453 2253 1453 1644 
L 1453 0 
L 500 0 
L 500 4863 
L 1453 4863 
L 1453 3872 
Q 1453 3756 1431 3328 
L 1409 3047 
L 1459 3047 
Q 1778 3559 2472 3559 
Q 3088 3559 3406 3228 
Q 3725 2897 3725 2278 
L 3725 0 
z
" transform="scale(0.015625)"/>
        <path id="OpenSans-Bold-6d" d="M 3628 0 
L 2675 0 
L 2675 2041 
Q 2675 2419 2548 2608 
Q 2422 2797 2150 2797 
Q 1784 2797 1618 2528 
Q 1453 2259 1453 1644 
L 1453 0 
L 500 0 
L 500 3494 
L 1228 3494 
L 1356 3047 
L 1409 3047 
Q 1550 3288 1815 3423 
Q 2081 3559 2425 3559 
Q 3209 3559 3488 3047 
L 3572 3047 
Q 3713 3291 3986 3425 
Q 4259 3559 4603 3559 
Q 5197 3559 5501 3254 
Q 5806 2950 5806 2278 
L 5806 0 
L 4850 0 
L 4850 2041 
Q 4850 2419 4723 2608 
Q 4597 2797 4325 2797 
Q 3975 2797 3801 2547 
Q 3628 2297 3628 1753 
L 3628 0 
z
" transform="scale(0.015625)"/>
        <path id="OpenSans-Bold-52" d="M 1544 2541 
L 1856 2541 
Q 2316 2541 2534 2694 
Q 2753 2847 2753 3175 
Q 2753 3500 2529 3637 
Q 2306 3775 1838 3775 
L 1544 3775 
L 1544 2541 
z
M 1544 1753 
L 1544 0 
L 575 0 
L 575 4569 
L 1906 4569 
Q 2838 4569 3284 4230 
Q 3731 3891 3731 3200 
Q 3731 2797 3509 2483 
Q 3288 2169 2881 1991 
Q 3913 450 4225 0 
L 3150 0 
L 2059 1753 
L 1544 1753 
z
" transform="scale(0.015625)"/>
        <path id="OpenSans-Bold-46" d="M 1528 0 
L 575 0 
L 575 4569 
L 3194 4569 
L 3194 3775 
L 1528 3775 
L 1528 2597 
L 3078 2597 
L 3078 1806 
L 1528 1806 
L 1528 0 
z
" transform="scale(0.015625)"/>
       </defs>
       <use xlink:href="#OpenSans-Bold-43"/>
       <use xlink:href="#OpenSans-Bold-68" transform="translate(63.720703 0)"/>
       <use xlink:href="#OpenSans-Bold-65" transform="translate(129.443359 0)"/>
       <use xlink:href="#OpenSans-Bold-6d" transform="translate(188.525391 0)"/>
       <use xlink:href="#OpenSans-Bold-52" transform="translate(286.71875 0)"/>
       <use xlink:href="#OpenSans-Bold-4f" transform="translate(352.734375 0)"/>
       <use xlink:href="#OpenSans-Bold-46" transform="translate(432.324219 0)"/>
      </g>
     </g>
    </g>
   </g>
   <g id="matplotlib.axis_2">
    <g id="ytick_1">
     <g id="line2d_5">
      <path d="M 53.958359 212.3448 
L 411.078359 212.3448 
" clip-path="url(#p853e442554)" style="fill: none; stroke: #1f2933; stroke-opacity: 0.1; stroke-width: 0.8; stroke-linecap: square"/>
     </g>
     <g id="line2d_6"/>
     <g id="text_5">
      <!-- 0.80 -->
      <g style="fill: #6b7a8d" transform="translate(24.702109 217.283784) scale(0.13 -0.13)">
       <defs>
        <path id="OpenSans-30" d="M 3341 2291 
Q 3341 1106 2967 521 
Q 2594 -63 1825 -63 
Q 1088 -63 703 535 
Q 319 1134 319 2291 
Q 319 3484 691 4062 
Q 1063 4641 1825 4641 
Q 2569 4641 2955 4037 
Q 3341 3434 3341 2291 
z
M 844 2291 
Q 844 1294 1078 839 
Q 1313 384 1825 384 
Q 2344 384 2576 845 
Q 2809 1306 2809 2291 
Q 2809 3275 2576 3733 
Q 2344 4191 1825 4191 
Q 1313 4191 1078 3739 
Q 844 3288 844 2291 
z
" transform="scale(0.015625)"/>
        <path id="OpenSans-2e" d="M 475 331 
Q 475 541 570 648 
Q 666 756 844 756 
Q 1025 756 1126 648 
Q 1228 541 1228 331 
Q 1228 128 1125 18 
Q 1022 -91 844 -91 
Q 684 -91 579 7 
Q 475 106 475 331 
z
" transform="scale(0.015625)"/>
        <path id="OpenSans-38" d="M 1825 4634 
Q 2450 4634 2815 4343 
Q 3181 4053 3181 3541 
Q 3181 3203 2972 2925 
Q 2763 2647 2303 2419 
Q 2859 2153 3093 1861 
Q 3328 1569 3328 1184 
Q 3328 616 2931 276 
Q 2534 -63 1844 -63 
Q 1113 -63 719 257 
Q 325 578 325 1166 
Q 325 1950 1281 2388 
Q 850 2631 662 2914 
Q 475 3197 475 3547 
Q 475 4044 842 4339 
Q 1209 4634 1825 4634 
z
M 838 1153 
Q 838 778 1098 568 
Q 1359 359 1831 359 
Q 2297 359 2556 578 
Q 2816 797 2816 1178 
Q 2816 1481 2572 1717 
Q 2328 1953 1722 2175 
Q 1256 1975 1047 1733 
Q 838 1491 838 1153 
z
M 1819 4213 
Q 1428 4213 1206 4025 
Q 984 3838 984 3525 
Q 984 3238 1168 3031 
Q 1353 2825 1850 2619 
Q 2297 2806 2483 3022 
Q 2669 3238 2669 3525 
Q 2669 3841 2442 4027 
Q 2216 4213 1819 4213 
z
" transform="scale(0.015625)"/>
       </defs>
       <use xlink:href="#OpenSans-30"/>
       <use xlink:href="#OpenSans-2e" transform="translate(57.177734 0)"/>
       <use xlink:href="#OpenSans-38" transform="translate(83.789062 0)"/>
       <use xlink:href="#OpenSans-30" transform="translate(140.966797 0)"/>
      </g>
     </g>
    </g>
    <g id="ytick_2">
     <g id="line2d_7">
      <path d="M 53.958359 163.3398 
L 411.078359 163.3398 
" clip-path="url(#p853e442554)" style="fill: none; stroke: #1f2933; stroke-opacity: 0.1; stroke-width: 0.8; stroke-linecap: square"/>
     </g>
     <g id="line2d_8"/>
     <g id="text_6">
      <!-- 0.83 -->
      <g style="fill: #6b7a8d" transform="translate(24.702109 168.278784) scale(0.13 -0.13)">
       <defs>
        <path id="OpenSans-33" d="M 3144 3494 
Q 3144 3056 2898 2778 
Q 2653 2500 2203 2406 
L 2203 2381 
Q 2753 2313 3018 2031 
Q 3284 1750 3284 1294 
Q 3284 641 2831 289 
Q 2378 -63 1544 -63 
Q 1181 -63 879 -8 
Q 578 47 294 184 
L 294 678 
Q 591 531 927 454 
Q 1263 378 1563 378 
Q 2747 378 2747 1306 
Q 2747 2138 1441 2138 
L 991 2138 
L 991 2584 
L 1447 2584 
Q 1981 2584 2293 2820 
Q 2606 3056 2606 3475 
Q 2606 3809 2376 4000 
Q 2147 4191 1753 4191 
Q 1453 4191 1187 4109 
Q 922 4028 581 3809 
L 319 4159 
Q 600 4381 967 4507 
Q 1334 4634 1741 4634 
Q 2406 4634 2775 4329 
Q 3144 4025 3144 3494 
z
" transform="scale(0.015625)"/>
       </defs>
       <use xlink:href="#OpenSans-30"/>
       <use xlink:href="#OpenSans-2e" transform="translate(57.177734 0)"/>
       <use xlink:href="#OpenSans-38" transform="translate(83.789062 0)"/>
       <use xlink:href="#OpenSans-33" transform="translate(140.966797 0)"/>
      </g>
     </g>
    </g>
    <g id="ytick_3">
     <g id="line2d_9">
      <path d="M 53.958359 114.3348 
L 411.078359 114.3348 
" clip-path="url(#p853e442554)" style="fill: none; stroke: #1f2933; stroke-opacity: 0.1; stroke-width: 0.8; stroke-linecap: square"/>
     </g>
     <g id="line2d_10"/>
     <g id="text_7">
      <!-- 0.86 -->
      <g style="fill: #6b7a8d" transform="translate(24.702109 119.273784) scale(0.13 -0.13)">
       <defs>
        <path id="OpenSans-36" d="M 366 1953 
Q 366 3300 889 3967 
Q 1413 4634 2438 4634 
Q 2791 4634 2994 4575 
L 2994 4128 
Q 2753 4206 2444 4206 
Q 1709 4206 1321 3748 
Q 934 3291 897 2309 
L 934 2309 
Q 1278 2847 2022 2847 
Q 2638 2847 2992 2475 
Q 3347 2103 3347 1466 
Q 3347 753 2958 345 
Q 2569 -63 1906 -63 
Q 1197 -63 781 470 
Q 366 1003 366 1953 
z
M 1900 378 
Q 2344 378 2589 658 
Q 2834 938 2834 1466 
Q 2834 1919 2606 2178 
Q 2378 2438 1925 2438 
Q 1644 2438 1409 2322 
Q 1175 2206 1036 2003 
Q 897 1800 897 1581 
Q 897 1259 1022 981 
Q 1147 703 1376 540 
Q 1606 378 1900 378 
z
" transform="scale(0.015625)"/>
       </defs>
       <use xlink:href="#OpenSans-30"/>
       <use xlink:href="#OpenSans-2e" transform="translate(57.177734 0)"/>
       <use xlink:href="#OpenSans-38" transform="translate(83.789062 0)"/>
       <use xlink:href="#OpenSans-36" transform="translate(140.966797 0)"/>
      </g>
     </g>
    </g>
    <g id="ytick_4">
     <g id="line2d_11">
      <path d="M 53.958359 65.3298 
L 411.078359 65.3298 
" clip-path="url(#p853e442554)" style="fill: none; stroke: #1f2933; stroke-opacity: 0.1; stroke-width: 0.8; stroke-linecap: square"/>
     </g>
     <g id="line2d_12"/>
     <g id="text_8">
      <!-- 0.89 -->
      <g style="fill: #6b7a8d" transform="translate(24.702109 70.268784) scale(0.13 -0.13)">
       <defs>
        <path id="OpenSans-39" d="M 3316 2619 
Q 3316 -63 1241 -63 
Q 878 -63 666 0 
L 666 447 
Q 916 366 1234 366 
Q 1984 366 2367 830 
Q 2750 1294 2784 2253 
L 2747 2253 
Q 2575 1994 2290 1858 
Q 2006 1722 1650 1722 
Q 1044 1722 687 2084 
Q 331 2447 331 3097 
Q 331 3809 729 4221 
Q 1128 4634 1778 4634 
Q 2244 4634 2592 4395 
Q 2941 4156 3128 3698 
Q 3316 3241 3316 2619 
z
M 1778 4191 
Q 1331 4191 1087 3903 
Q 844 3616 844 3103 
Q 844 2653 1069 2395 
Q 1294 2138 1753 2138 
Q 2038 2138 2277 2253 
Q 2516 2369 2653 2569 
Q 2791 2769 2791 2988 
Q 2791 3316 2662 3594 
Q 2534 3872 2304 4031 
Q 2075 4191 1778 4191 
z
" transform="scale(0.015625)"/>
       </defs>
       <use xlink:href="#OpenSans-30"/>
       <use xlink:href="#OpenSans-2e" transform="translate(57.177734 0)"/>
       <use xlink:href="#OpenSans-38" transform="translate(83.789062 0)"/>
       <use xlink:href="#OpenSans-39" transform="translate(140.966797 0)"/>
      </g>
     </g>
    </g>
    <g id="text_9">
     <!-- quality (BERTScore F1) -->
     <g style="fill: #6b7a8d" transform="translate(17.457891 192.741534) rotate(-90) scale(0.135 -0.135)">
      <defs>
       <path id="OpenSans-Semibold-71" d="M 1894 525 
Q 2356 525 2557 792 
Q 2759 1059 2759 1600 
L 2759 1716 
Q 2759 2356 2551 2637 
Q 2344 2919 1881 2919 
Q 1488 2919 1281 2606 
Q 1075 2294 1075 1709 
Q 1075 525 1894 525 
z
M 1684 -63 
Q 1044 -63 681 407 
Q 319 878 319 1722 
Q 319 2566 687 3042 
Q 1056 3519 1703 3519 
Q 2028 3519 2286 3398 
Q 2544 3278 2747 3003 
L 2772 3003 
L 2853 3456 
L 3463 3456 
L 3463 -1538 
L 2725 -1538 
L 2725 -72 
Q 2725 66 2737 219 
Q 2750 372 2759 453 
L 2719 453 
Q 2394 -63 1684 -63 
z
" transform="scale(0.015625)"/>
       <path id="OpenSans-Semibold-75" d="M 2963 0 
L 2859 453 
L 2822 453 
Q 2669 213 2386 75 
Q 2103 -63 1741 -63 
Q 1113 -63 803 250 
Q 494 563 494 1197 
L 494 3456 
L 1234 3456 
L 1234 1325 
Q 1234 928 1396 729 
Q 1559 531 1906 531 
Q 2369 531 2586 807 
Q 2803 1084 2803 1734 
L 2803 3456 
L 3541 3456 
L 3541 0 
L 2963 0 
z
" transform="scale(0.015625)"/>
       <path id="OpenSans-Semibold-61" d="M 2688 0 
L 2541 481 
L 2516 481 
Q 2266 166 2012 51 
Q 1759 -63 1363 -63 
Q 853 -63 567 212 
Q 281 488 281 991 
Q 281 1525 678 1797 
Q 1075 2069 1888 2094 
L 2484 2113 
L 2484 2297 
Q 2484 2628 2329 2792 
Q 2175 2956 1850 2956 
Q 1584 2956 1340 2878 
Q 1097 2800 872 2694 
L 634 3219 
Q 916 3366 1250 3442 
Q 1584 3519 1881 3519 
Q 2541 3519 2877 3231 
Q 3213 2944 3213 2328 
L 3213 0 
L 2688 0 
z
M 1594 500 
Q 1994 500 2236 723 
Q 2478 947 2478 1350 
L 2478 1650 
L 2034 1631 
Q 1516 1613 1280 1458 
Q 1044 1303 1044 984 
Q 1044 753 1181 626 
Q 1319 500 1594 500 
z
" transform="scale(0.015625)"/>
       <path id="OpenSans-Semibold-6c" d="M 1259 0 
L 525 0 
L 525 4863 
L 1259 4863 
L 1259 0 
z
" transform="scale(0.015625)"/>
       <path id="OpenSans-Semibold-69" d="M 1259 0 
L 525 0 
L 525 3456 
L 1259 3456 
L 1259 0 
z
M 481 4372 
Q 481 4569 589 4675 
Q 697 4781 897 4781 
Q 1091 4781 1198 4675 
Q 1306 4569 1306 4372 
Q 1306 4184 1198 4076 
Q 1091 3969 897 3969 
Q 697 3969 589 4076 
Q 481 4184 481 4372 
z
" transform="scale(0.015625)"/>
       <path id="OpenSans-Semibold-74" d="M 1813 531 
Q 2081 531 2350 616 
L 2350 63 
Q 2228 9 2036 -27 
Q 1844 -63 1638 -63 
Q 594 -63 594 1038 
L 594 2900 
L 122 2900 
L 122 3225 
L 628 3494 
L 878 4225 
L 1331 4225 
L 1331 3456 
L 2316 3456 
L 2316 2900 
L 1331 2900 
L 1331 1050 
Q 1331 784 1464 657 
Q 1597 531 1813 531 
z
" transform="scale(0.015625)"/>
       <path id="OpenSans-Semibold-79" d="M 0 3456 
L 800 3456 
L 1503 1497 
Q 1663 1078 1716 709 
L 1741 709 
Q 1769 881 1844 1126 
Q 1919 1372 2638 3456 
L 3431 3456 
L 1953 -459 
Q 1550 -1538 609 -1538 
Q 366 -1538 134 -1484 
L 134 -903 
Q 300 -941 513 -941 
Q 1044 -941 1259 -325 
L 1388 0 
L 0 3456 
z
" transform="scale(0.015625)"/>
       <path id="OpenSans-Semibold-20" transform="scale(0.015625)"/>
       <path id="OpenSans-Semibold-28" d="M 256 1753 
Q 256 2581 498 3303 
Q 741 4025 1197 4569 
L 1838 4569 
Q 1403 3981 1172 3251 
Q 941 2522 941 1759 
Q 941 997 1172 281 
Q 1403 -434 1831 -1013 
L 1197 -1013 
Q 738 -481 497 228 
Q 256 938 256 1753 
z
" transform="scale(0.015625)"/>
       <path id="OpenSans-Semibold-42" d="M 603 4569 
L 1959 4569 
Q 2903 4569 3323 4294 
Q 3744 4019 3744 3425 
Q 3744 3025 3537 2759 
Q 3331 2494 2944 2425 
L 2944 2394 
Q 3425 2303 3651 2036 
Q 3878 1769 3878 1313 
Q 3878 697 3448 348 
Q 3019 0 2253 0 
L 603 0 
L 603 4569 
z
M 1350 2681 
L 2069 2681 
Q 2538 2681 2753 2829 
Q 2969 2978 2969 3334 
Q 2969 3656 2736 3800 
Q 2503 3944 1997 3944 
L 1350 3944 
L 1350 2681 
z
M 1350 2075 
L 1350 628 
L 2144 628 
Q 2613 628 2852 808 
Q 3091 988 3091 1375 
Q 3091 1731 2847 1903 
Q 2603 2075 2106 2075 
L 1350 2075 
z
" transform="scale(0.015625)"/>
       <path id="OpenSans-Semibold-45" d="M 3188 0 
L 603 0 
L 603 4569 
L 3188 4569 
L 3188 3938 
L 1350 3938 
L 1350 2694 
L 3072 2694 
L 3072 2069 
L 1350 2069 
L 1350 634 
L 3188 634 
L 3188 0 
z
" transform="scale(0.015625)"/>
       <path id="OpenSans-Semibold-52" d="M 1350 2444 
L 1869 2444 
Q 2391 2444 2625 2637 
Q 2859 2831 2859 3213 
Q 2859 3600 2606 3769 
Q 2353 3938 1844 3938 
L 1350 3938 
L 1350 2444 
z
M 1350 1825 
L 1350 0 
L 603 0 
L 603 4569 
L 1894 4569 
Q 2778 4569 3203 4237 
Q 3628 3906 3628 3238 
Q 3628 2384 2741 2022 
L 4031 0 
L 3181 0 
L 2088 1825 
L 1350 1825 
z
" transform="scale(0.015625)"/>
       <path id="OpenSans-Semibold-54" d="M 2181 0 
L 1434 0 
L 1434 3928 
L 91 3928 
L 91 4569 
L 3525 4569 
L 3525 3928 
L 2181 3928 
L 2181 0 
z
" transform="scale(0.015625)"/>
       <path id="OpenSans-Semibold-53" d="M 3238 1241 
Q 3238 631 2797 284 
Q 2356 -63 1581 -63 
Q 806 -63 313 178 
L 313 884 
Q 625 738 976 653 
Q 1328 569 1631 569 
Q 2075 569 2286 737 
Q 2497 906 2497 1191 
Q 2497 1447 2303 1625 
Q 2109 1803 1503 2047 
Q 878 2300 622 2625 
Q 366 2950 366 3406 
Q 366 3978 772 4306 
Q 1178 4634 1863 4634 
Q 2519 4634 3169 4347 
L 2931 3738 
Q 2322 3994 1844 3994 
Q 1481 3994 1293 3836 
Q 1106 3678 1106 3419 
Q 1106 3241 1181 3114 
Q 1256 2988 1428 2875 
Q 1600 2763 2047 2578 
Q 2550 2369 2784 2187 
Q 3019 2006 3128 1778 
Q 3238 1550 3238 1241 
z
" transform="scale(0.015625)"/>
       <path id="OpenSans-Semibold-63" d="M 1919 -63 
Q 1134 -63 726 395 
Q 319 853 319 1709 
Q 319 2581 745 3050 
Q 1172 3519 1978 3519 
Q 2525 3519 2963 3316 
L 2741 2725 
Q 2275 2906 1972 2906 
Q 1075 2906 1075 1716 
Q 1075 1134 1298 842 
Q 1522 550 1953 550 
Q 2444 550 2881 794 
L 2881 153 
Q 2684 38 2461 -12 
Q 2238 -63 1919 -63 
z
" transform="scale(0.015625)"/>
       <path id="OpenSans-Semibold-6f" d="M 3591 1734 
Q 3591 888 3156 412 
Q 2722 -63 1947 -63 
Q 1463 -63 1091 156 
Q 719 375 519 784 
Q 319 1194 319 1734 
Q 319 2575 750 3047 
Q 1181 3519 1966 3519 
Q 2716 3519 3153 3036 
Q 3591 2553 3591 1734 
z
M 1075 1734 
Q 1075 538 1959 538 
Q 2834 538 2834 1734 
Q 2834 2919 1953 2919 
Q 1491 2919 1283 2612 
Q 1075 2306 1075 1734 
z
" transform="scale(0.015625)"/>
       <path id="OpenSans-Semibold-72" d="M 2278 3519 
Q 2500 3519 2644 3488 
L 2572 2803 
Q 2416 2841 2247 2841 
Q 1806 2841 1532 2553 
Q 1259 2266 1259 1806 
L 1259 0 
L 525 0 
L 525 3456 
L 1100 3456 
L 1197 2847 
L 1234 2847 
Q 1406 3156 1682 3337 
Q 1959 3519 2278 3519 
z
" transform="scale(0.015625)"/>
       <path id="OpenSans-Semibold-65" d="M 2034 -63 
Q 1228 -63 773 407 
Q 319 878 319 1703 
Q 319 2550 741 3034 
Q 1163 3519 1900 3519 
Q 2584 3519 2981 3103 
Q 3378 2688 3378 1959 
L 3378 1563 
L 1075 1563 
Q 1091 1059 1347 789 
Q 1603 519 2069 519 
Q 2375 519 2639 576 
Q 2903 634 3206 769 
L 3206 172 
Q 2938 44 2663 -9 
Q 2388 -63 2034 -63 
z
M 1900 2963 
Q 1550 2963 1339 2741 
Q 1128 2519 1088 2094 
L 2656 2094 
Q 2650 2522 2450 2742 
Q 2250 2963 1900 2963 
z
" transform="scale(0.015625)"/>
       <path id="OpenSans-Semibold-46" d="M 1344 0 
L 603 0 
L 603 4569 
L 3181 4569 
L 3181 3938 
L 1344 3938 
L 1344 2509 
L 3066 2509 
L 3066 1875 
L 1344 1875 
L 1344 0 
z
" transform="scale(0.015625)"/>
       <path id="OpenSans-Semibold-31" d="M 2438 0 
L 1703 0 
L 1703 2950 
Q 1703 3478 1728 3788 
Q 1656 3713 1551 3622 
Q 1447 3531 850 3047 
L 481 3513 
L 1825 4569 
L 2438 4569 
L 2438 0 
z
" transform="scale(0.015625)"/>
       <path id="OpenSans-Semibold-29" d="M 1772 1753 
Q 1772 931 1530 221 
Q 1288 -488 831 -1013 
L 197 -1013 
Q 628 -428 858 284 
Q 1088 997 1088 1759 
Q 1088 2525 856 3251 
Q 625 3978 191 4569 
L 831 4569 
Q 1291 4022 1531 3298 
Q 1772 2575 1772 1753 
z
" transform="scale(0.015625)"/>
      </defs>
      <use xlink:href="#OpenSans-Semibold-71"/>
      <use xlink:href="#OpenSans-Semibold-75" transform="translate(62.304688 0)"/>
      <use xlink:href="#OpenSans-Semibold-61" transform="translate(125.78125 0)"/>
      <use xlink:href="#OpenSans-Semibold-6c" transform="translate(183.789062 0)"/>
      <use xlink:href="#OpenSans-Semibold-69" transform="translate(211.669922 0)"/>
      <use xlink:href="#OpenSans-Semibold-74" transform="translate(239.550781 0)"/>
      <use xlink:href="#OpenSans-Semibold-79" transform="translate(278.857422 0)"/>
      <use xlink:href="#OpenSans-Semibold-20" transform="translate(332.470703 0)"/>
      <use xlink:href="#OpenSans-Semibold-28" transform="translate(358.447266 0)"/>
      <use xlink:href="#OpenSans-Semibold-42" transform="translate(390.136719 0)"/>
      <use xlink:href="#OpenSans-Semibold-45" transform="translate(456.152344 0)"/>
      <use xlink:href="#OpenSans-Semibold-52" transform="translate(511.962891 0)"/>
      <use xlink:href="#OpenSans-Semibold-54" transform="translate(575.878906 0)"/>
      <use xlink:href="#OpenSans-Semibold-53" transform="translate(632.470703 0)"/>
      <use xlink:href="#OpenSans-Semibold-63" transform="translate(687.451172 0)"/>
      <use xlink:href="#OpenSans-Semibold-6f" transform="translate(736.962891 0)"/>
      <use xlink:href="#OpenSans-Semibold-72" transform="translate(798.046875 0)"/>
      <use xlink:href="#OpenSans-Semibold-65" transform="translate(839.162109 0)"/>
      <use xlink:href="#OpenSans-Semibold-20" transform="translate(896.779297 0)"/>
      <use xlink:href="#OpenSans-Semibold-46" transform="translate(922.755859 0)"/>
      <use xlink:href="#OpenSans-Semibold-31" transform="translate(975.978516 0)"/>
      <use xlink:href="#OpenSans-Semibold-29" transform="translate(1033.058594 0)"/>
     </g>
    </g>
   </g>
   <g id="patch_3">
    <path d="M 53.958359 212.3448 
L 53.958359 29.3928 
" style="fill: none; opacity: 0.3; stroke: #1f2933; stroke-linejoin: miter; stroke-linecap: square"/>
   </g>
   <g id="patch_4">
    <path d="M 53.958359 212.3448 
L 411.078359 212.3448 
" style="fill: none; opacity: 0.3; stroke: #1f2933; stroke-linejoin: miter; stroke-linecap: square"/>
   </g>
   <g id="patch_5">
    <path d="M 70.191087 1519.1448 
L 86.596503 1519.1448 
L 86.596503 60.578831 
L 70.191087 60.578831 
z
" clip-path="url(#p853e442554)" style="fill: #d55e00; stroke: #ffffff; stroke-width: 0.8; stroke-linejoin: miter"/>
   </g>
   <g id="patch_6">
    <path d="M 156.535381 1519.1448 
L 172.940797 1519.1448 
L 172.940797 83.506403 
L 156.535381 83.506403 
z
" clip-path="url(#p853e442554)" style="fill: #d55e00; stroke: #ffffff; stroke-width: 0.8; stroke-linejoin: miter"/>
   </g>
   <g id="patch_7">
    <path d="M 242.879675 1519.1448 
L 259.285091 1519.1448 
L 259.285091 116.197475 
L 242.879675 116.197475 
z
" clip-path="url(#p853e442554)" style="fill: #d55e00; stroke: #ffffff; stroke-width: 0.8; stroke-linejoin: miter"/>
   </g>
   <g id="patch_8">
    <path d="M 329.223969 1519.1448 
L 345.629385 1519.1448 
L 345.629385 108.497063 
L 329.223969 108.497063 
z
" clip-path="url(#p853e442554)" style="fill: #d55e00; stroke: #ffffff; stroke-width: 0.8; stroke-linejoin: miter"/>
   </g>
   <g id="patch_9">
    <path d="M 86.596503 1519.1448 
L 103.001918 1519.1448 
L 103.001918 47.548883 
L 86.596503 47.548883 
z
" clip-path="url(#p853e442554)" style="fill: #0072b2; stroke: #ffffff; stroke-width: 0.8; stroke-linejoin: miter"/>
   </g>
   <g id="patch_10">
    <path d="M 172.940797 1519.1448 
L 189.346212 1519.1448 
L 189.346212 84.014576 
L 172.940797 84.014576 
z
" clip-path="url(#p853e442554)" style="fill: #0072b2; stroke: #ffffff; stroke-width: 0.8; stroke-linejoin: miter"/>
   </g>
   <g id="patch_11">
    <path d="M 259.285091 1519.1448 
L 275.690506 1519.1448 
L 275.690506 99.970492 
L 259.285091 99.970492 
z
" clip-path="url(#p853e442554)" style="fill: #0072b2; stroke: #ffffff; stroke-width: 0.8; stroke-linejoin: miter"/>
   </g>
   <g id="patch_12">
    <path d="M 345.629385 1519.1448 
L 362.0348 1519.1448 
L 362.0348 115.299383 
L 345.629385 115.299383 
z
" clip-path="url(#p853e442554)" style="fill: #0072b2; stroke: #ffffff; stroke-width: 0.8; stroke-linejoin: miter"/>
   </g>
   <g id="patch_13">
    <path d="M 103.001918 1519.1448 
L 119.407334 1519.1448 
L 119.407334 56.29911 
L 103.001918 56.29911 
z
" clip-path="url(#p853e442554)" style="fill: #009e73; stroke: #ffffff; stroke-width: 0.8; stroke-linejoin: miter"/>
   </g>
   <g id="patch_14">
    <path d="M 189.346212 1519.1448 
L 205.751628 1519.1448 
L 205.751628 92.325144 
L 189.346212 92.325144 
z
" clip-path="url(#p853e442554)" style="fill: #009e73; stroke: #ffffff; stroke-width: 0.8; stroke-linejoin: miter"/>
   </g>
   <g id="patch_15">
    <path d="M 275.690506 1519.1448 
L 292.095922 1519.1448 
L 292.095922 106.282685 
L 275.690506 106.282685 
z
" clip-path="url(#p853e442554)" style="fill: #009e73; stroke: #ffffff; stroke-width: 0.8; stroke-linejoin: miter"/>
   </g>
   <g id="patch_16">
    <path d="M 362.0348 1519.1448 
L 378.440216 1519.1448 
L 378.440216 112.349686 
L 362.0348 112.349686 
z
" clip-path="url(#p853e442554)" style="fill: #009e73; stroke: #ffffff; stroke-width: 0.8; stroke-linejoin: miter"/>
   </g>
   <g id="patch_17">
    <path d="M 119.407334 1519.1448 
L 135.81275 1519.1448 
L 135.81275 87.168552 
L 119.407334 87.168552 
z
" clip-path="url(#p853e442554)" style="fill: #cc79a7; stroke: #ffffff; stroke-width: 0.8; stroke-linejoin: miter"/>
   </g>
   <g id="patch_18">
    <path d="M 205.751628 1519.1448 
L 222.157044 1519.1448 
L 222.157044 146.954778 
L 205.751628 146.954778 
z
" clip-path="url(#p853e442554)" style="fill: #cc79a7; stroke: #ffffff; stroke-width: 0.8; stroke-linejoin: miter"/>
   </g>
   <g id="patch_19">
    <path d="M 292.095922 1519.1448 
L 308.501338 1519.1448 
L 308.501338 173.722635 
L 292.095922 173.722635 
z
" clip-path="url(#p853e442554)" style="fill: #cc79a7; stroke: #ffffff; stroke-width: 0.8; stroke-linejoin: miter"/>
   </g>
   <g id="patch_20">
    <path d="M 378.440216 1519.1448 
L 394.845632 1519.1448 
L 394.845632 143.992716 
L 378.440216 143.992716 
z
" clip-path="url(#p853e442554)" style="fill: #cc79a7; stroke: #ffffff; stroke-width: 0.8; stroke-linejoin: miter"/>
   </g>
   <g id="legend_1">
    <g id="patch_21">
     <path d="M 84.815352 19.378359 
L 105.815352 19.378359 
L 105.815352 12.028359 
L 84.815352 12.028359 
z
" style="fill: #d55e00; stroke: #ffffff; stroke-width: 0.8; stroke-linejoin: miter"/>
    </g>
    <g id="text_10">
     <!-- Claude -->
     <g style="fill: #3f3f46" transform="translate(110.015352 19.378359) scale(0.105 -0.105)">
      <defs>
       <path id="OpenSans-43" d="M 2584 4159 
Q 1831 4159 1395 3657 
Q 959 3156 959 2284 
Q 959 1388 1379 898 
Q 1800 409 2578 409 
Q 3056 409 3669 581 
L 3669 116 
Q 3194 -63 2497 -63 
Q 1488 -63 939 550 
Q 391 1163 391 2291 
Q 391 2997 655 3528 
Q 919 4059 1417 4346 
Q 1916 4634 2591 4634 
Q 3309 4634 3847 4372 
L 3622 3916 
Q 3103 4159 2584 4159 
z
" transform="scale(0.015625)"/>
       <path id="OpenSans-6c" d="M 1069 0 
L 550 0 
L 550 4863 
L 1069 4863 
L 1069 0 
z
" transform="scale(0.015625)"/>
       <path id="OpenSans-61" d="M 2656 0 
L 2553 488 
L 2528 488 
Q 2272 166 2017 51 
Q 1763 -63 1381 -63 
Q 872 -63 583 200 
Q 294 463 294 947 
Q 294 1984 1953 2034 
L 2534 2053 
L 2534 2266 
Q 2534 2669 2361 2861 
Q 2188 3053 1806 3053 
Q 1378 3053 838 2791 
L 678 3188 
Q 931 3325 1232 3403 
Q 1534 3481 1838 3481 
Q 2450 3481 2745 3209 
Q 3041 2938 3041 2338 
L 3041 0 
L 2656 0 
z
M 1484 366 
Q 1969 366 2245 631 
Q 2522 897 2522 1375 
L 2522 1684 
L 2003 1663 
Q 1384 1641 1111 1470 
Q 838 1300 838 941 
Q 838 659 1008 512 
Q 1178 366 1484 366 
z
" transform="scale(0.015625)"/>
       <path id="OpenSans-75" d="M 1038 3425 
L 1038 1203 
Q 1038 784 1228 578 
Q 1419 372 1825 372 
Q 2363 372 2611 665 
Q 2859 959 2859 1625 
L 2859 3425 
L 3378 3425 
L 3378 0 
L 2950 0 
L 2875 459 
L 2847 459 
Q 2688 206 2405 71 
Q 2122 -63 1759 -63 
Q 1134 -63 823 234 
Q 513 531 513 1184 
L 513 3425 
L 1038 3425 
z
" transform="scale(0.015625)"/>
       <path id="OpenSans-64" d="M 2881 459 
L 2853 459 
Q 2494 -63 1778 -63 
Q 1106 -63 732 396 
Q 359 856 359 1703 
Q 359 2550 734 3019 
Q 1109 3488 1778 3488 
Q 2475 3488 2847 2981 
L 2888 2981 
L 2866 3228 
L 2853 3469 
L 2853 4863 
L 3372 4863 
L 3372 0 
L 2950 0 
L 2881 459 
z
M 1844 372 
Q 2375 372 2614 661 
Q 2853 950 2853 1594 
L 2853 1703 
Q 2853 2431 2611 2742 
Q 2369 3053 1838 3053 
Q 1381 3053 1139 2698 
Q 897 2344 897 1697 
Q 897 1041 1137 706 
Q 1378 372 1844 372 
z
" transform="scale(0.015625)"/>
       <path id="OpenSans-65" d="M 1997 -63 
Q 1238 -63 798 400 
Q 359 863 359 1684 
Q 359 2513 767 3000 
Q 1175 3488 1863 3488 
Q 2506 3488 2881 3064 
Q 3256 2641 3256 1947 
L 3256 1619 
L 897 1619 
Q 913 1016 1202 703 
Q 1491 391 2016 391 
Q 2569 391 3109 622 
L 3109 159 
Q 2834 41 2589 -11 
Q 2344 -63 1997 -63 
z
M 1856 3053 
Q 1444 3053 1198 2784 
Q 953 2516 909 2041 
L 2700 2041 
Q 2700 2531 2481 2792 
Q 2263 3053 1856 3053 
z
" transform="scale(0.015625)"/>
      </defs>
      <use xlink:href="#OpenSans-43"/>
      <use xlink:href="#OpenSans-6c" transform="translate(63.085938 0)"/>
      <use xlink:href="#OpenSans-61" transform="translate(88.378906 0)"/>
      <use xlink:href="#OpenSans-75" transform="translate(143.994141 0)"/>
      <use xlink:href="#OpenSans-64" transform="translate(205.371094 0)"/>
      <use xlink:href="#OpenSans-65" transform="translate(266.650391 0)"/>
     </g>
    </g>
    <g id="patch_22">
     <path d="M 156.505742 19.378359 
L 177.505742 19.378359 
L 177.505742 12.028359 
L 156.505742 12.028359 
z
" style="fill: #0072b2; stroke: #ffffff; stroke-width: 0.8; stroke-linejoin: miter"/>
    </g>
    <g id="text_11">
     <!-- DeepSeek -->
     <g style="fill: #3f3f46" transform="translate(181.705742 19.378359) scale(0.105 -0.105)">
      <defs>
       <path id="OpenSans-44" d="M 4275 2328 
Q 4275 1197 3661 598 
Q 3047 0 1894 0 
L 628 0 
L 628 4569 
L 2028 4569 
Q 3094 4569 3684 3978 
Q 4275 3388 4275 2328 
z
M 3713 2309 
Q 3713 3203 3264 3656 
Q 2816 4109 1931 4109 
L 1159 4109 
L 1159 459 
L 1806 459 
Q 2756 459 3234 926 
Q 3713 1394 3713 2309 
z
" transform="scale(0.015625)"/>
       <path id="OpenSans-70" d="M 2144 -63 
Q 1809 -63 1532 60 
Q 1256 184 1069 441 
L 1031 441 
Q 1069 141 1069 -128 
L 1069 -1538 
L 550 -1538 
L 550 3425 
L 972 3425 
L 1044 2956 
L 1069 2956 
Q 1269 3238 1534 3363 
Q 1800 3488 2144 3488 
Q 2825 3488 3195 3022 
Q 3566 2556 3566 1716 
Q 3566 872 3189 404 
Q 2813 -63 2144 -63 
z
M 2069 3047 
Q 1544 3047 1309 2756 
Q 1075 2466 1069 1831 
L 1069 1716 
Q 1069 994 1309 683 
Q 1550 372 2081 372 
Q 2525 372 2776 731 
Q 3028 1091 3028 1722 
Q 3028 2363 2776 2705 
Q 2525 3047 2069 3047 
z
" transform="scale(0.015625)"/>
       <path id="OpenSans-53" d="M 3206 1216 
Q 3206 613 2768 275 
Q 2331 -63 1581 -63 
Q 769 -63 331 147 
L 331 659 
Q 613 541 944 472 
Q 1275 403 1600 403 
Q 2131 403 2400 604 
Q 2669 806 2669 1166 
Q 2669 1403 2573 1554 
Q 2478 1706 2254 1834 
Q 2031 1963 1575 2125 
Q 938 2353 664 2665 
Q 391 2978 391 3481 
Q 391 4009 787 4321 
Q 1184 4634 1838 4634 
Q 2519 4634 3091 4384 
L 2925 3922 
Q 2359 4159 1825 4159 
Q 1403 4159 1165 3978 
Q 928 3797 928 3475 
Q 928 3238 1015 3086 
Q 1103 2934 1311 2807 
Q 1519 2681 1947 2528 
Q 2666 2272 2936 1978 
Q 3206 1684 3206 1216 
z
" transform="scale(0.015625)"/>
       <path id="OpenSans-6b" d="M 1063 1753 
Q 1197 1944 1472 2253 
L 2578 3425 
L 3194 3425 
L 1806 1966 
L 3291 0 
L 2663 0 
L 1453 1619 
L 1063 1281 
L 1063 0 
L 550 0 
L 550 4863 
L 1063 4863 
L 1063 2284 
Q 1063 2113 1038 1753 
L 1063 1753 
z
" transform="scale(0.015625)"/>
      </defs>
      <use xlink:href="#OpenSans-44"/>
      <use xlink:href="#OpenSans-65" transform="translate(72.900391 0)"/>
      <use xlink:href="#OpenSans-65" transform="translate(129.003906 0)"/>
      <use xlink:href="#OpenSans-70" transform="translate(185.107422 0)"/>
      <use xlink:href="#OpenSans-53" transform="translate(246.386719 0)"/>
      <use xlink:href="#OpenSans-65" transform="translate(301.269531 0)"/>
      <use xlink:href="#OpenSans-65" transform="translate(357.373047 0)"/>
      <use xlink:href="#OpenSans-6b" transform="translate(413.476562 0)"/>
     </g>
    </g>
    <g id="patch_23">
     <path d="M 243.235742 19.378359 
L 264.235742 19.378359 
L 264.235742 12.028359 
L 243.235742 12.028359 
z
" style="fill: #009e73; stroke: #ffffff; stroke-width: 0.8; stroke-linejoin: miter"/>
    </g>
    <g id="text_12">
     <!-- GPT-4o -->
     <g style="fill: #3f3f46" transform="translate(268.435742 19.378359) scale(0.105 -0.105)">
      <defs>
       <path id="OpenSans-47" d="M 2638 2394 
L 4191 2394 
L 4191 172 
Q 3828 56 3453 -3 
Q 3078 -63 2584 -63 
Q 1547 -63 969 554 
Q 391 1172 391 2284 
Q 391 2997 677 3533 
Q 963 4069 1500 4351 
Q 2038 4634 2759 4634 
Q 3491 4634 4122 4366 
L 3916 3897 
Q 3297 4159 2725 4159 
Q 1891 4159 1422 3662 
Q 953 3166 953 2284 
Q 953 1359 1404 881 
Q 1856 403 2731 403 
Q 3206 403 3659 513 
L 3659 1919 
L 2638 1919 
L 2638 2394 
z
" transform="scale(0.015625)"/>
       <path id="OpenSans-50" d="M 3525 3238 
Q 3525 2544 3051 2170 
Q 2578 1797 1697 1797 
L 1159 1797 
L 1159 0 
L 628 0 
L 628 4569 
L 1813 4569 
Q 3525 4569 3525 3238 
z
M 1159 2253 
L 1638 2253 
Q 2344 2253 2659 2481 
Q 2975 2709 2975 3213 
Q 2975 3666 2678 3887 
Q 2381 4109 1753 4109 
L 1159 4109 
L 1159 2253 
z
" transform="scale(0.015625)"/>
       <path id="OpenSans-54" d="M 2034 0 
L 1503 0 
L 1503 4097 
L 56 4097 
L 56 4569 
L 3481 4569 
L 3481 4097 
L 2034 4097 
L 2034 0 
z
" transform="scale(0.015625)"/>
       <path id="OpenSans-2d" d="M 263 1478 
L 263 1953 
L 1797 1953 
L 1797 1478 
L 263 1478 
z
" transform="scale(0.015625)"/>
       <path id="OpenSans-34" d="M 3531 1050 
L 2853 1050 
L 2853 0 
L 2356 0 
L 2356 1050 
L 134 1050 
L 134 1503 
L 2303 4594 
L 2853 4594 
L 2853 1522 
L 3531 1522 
L 3531 1050 
z
M 2356 1522 
L 2356 3041 
Q 2356 3488 2388 4050 
L 2363 4050 
Q 2213 3750 2081 3553 
L 653 1522 
L 2356 1522 
z
" transform="scale(0.015625)"/>
       <path id="OpenSans-6f" d="M 3506 1716 
Q 3506 878 3084 407 
Q 2663 -63 1919 -63 
Q 1459 -63 1103 153 
Q 747 369 553 772 
Q 359 1175 359 1716 
Q 359 2553 778 3020 
Q 1197 3488 1941 3488 
Q 2659 3488 3082 3009 
Q 3506 2531 3506 1716 
z
M 897 1716 
Q 897 1059 1159 715 
Q 1422 372 1931 372 
Q 2441 372 2705 714 
Q 2969 1056 2969 1716 
Q 2969 2369 2705 2708 
Q 2441 3047 1925 3047 
Q 1416 3047 1156 2712 
Q 897 2378 897 1716 
z
" transform="scale(0.015625)"/>
      </defs>
      <use xlink:href="#OpenSans-47"/>
      <use xlink:href="#OpenSans-50" transform="translate(72.802734 0)"/>
      <use xlink:href="#OpenSans-54" transform="translate(133.007812 0)"/>
      <use xlink:href="#OpenSans-2d" transform="translate(184.330078 0)"/>
      <use xlink:href="#OpenSans-34" transform="translate(216.507812 0)"/>
      <use xlink:href="#OpenSans-6f" transform="translate(273.685547 0)"/>
     </g>
    </g>
    <g id="patch_24">
     <path d="M 316.113945 19.378359 
L 337.113945 19.378359 
L 337.113945 12.028359 
L 316.113945 12.028359 
z
" style="fill: #cc79a7; stroke: #ffffff; stroke-width: 0.8; stroke-linejoin: miter"/>
    </g>
    <g id="text_13">
     <!-- Gemma -->
     <g style="fill: #3f3f46" transform="translate(341.313945 19.378359) scale(0.105 -0.105)">
      <defs>
       <path id="OpenSans-6d" d="M 4916 0 
L 4916 2228 
Q 4916 2638 4741 2842 
Q 4566 3047 4197 3047 
Q 3713 3047 3481 2769 
Q 3250 2491 3250 1913 
L 3250 0 
L 2731 0 
L 2731 2228 
Q 2731 2638 2556 2842 
Q 2381 3047 2009 3047 
Q 1522 3047 1295 2755 
Q 1069 2463 1069 1797 
L 1069 0 
L 550 0 
L 550 3425 
L 972 3425 
L 1056 2956 
L 1081 2956 
Q 1228 3206 1495 3347 
Q 1763 3488 2094 3488 
Q 2897 3488 3144 2906 
L 3169 2906 
Q 3322 3175 3612 3331 
Q 3903 3488 4275 3488 
Q 4856 3488 5145 3189 
Q 5434 2891 5434 2234 
L 5434 0 
L 4916 0 
z
" transform="scale(0.015625)"/>
      </defs>
      <use xlink:href="#OpenSans-47"/>
      <use xlink:href="#OpenSans-65" transform="translate(72.802734 0)"/>
      <use xlink:href="#OpenSans-6d" transform="translate(128.90625 0)"/>
      <use xlink:href="#OpenSans-6d" transform="translate(221.923828 0)"/>
      <use xlink:href="#OpenSans-61" transform="translate(314.941406 0)"/>
     </g>
    </g>
   </g>
  </g>
 </g>
 <defs>
  <clipPath id="p853e442554">
   <rect x="53.958359" y="29.3928" width="357.12" height="182.952"/>
  </clipPath>
 </defs>
</svg>
