<?xml version="1.0" encoding="utf-8" standalone="no"?>
<!DOCTYPE svg PUBLIC "-//W3C//DTD SVG 1.1//EN"
  "http://www.w3.org/Graphics/SVG/1.1/DTD/svg11.dtd">
<svg xmlns:xlink="http://www.w3.org/1999/xlink" width="334.578359pt" height="229.155937pt" viewBox="0 0 334.578359 229.155937" xmlns="http://www.w3.org/2000/svg" version="1.1">
 <metadata>
  <rdf:RDF xmlns:dc="http://purl.org/dc/elements/1.1/" xmlns:cc="http://creativecommons.org/ns#" xmlns:rdf="http://www.w3.org/1999/02/22-rdf-syntax-ns#">
   <cc:Work>
    <dc:type rdf:resource="http://purl.org/dc/dcmitype/StillImage"/>
    <dc:date>2026-07-13T12:06:24.291087</dc:date>
    <dc:format>image/svg+xml</dc:format>
    <dc:creator>
     <cc:Agent>
      <dc:title>Matplotlib v3.10.9, https://matplotlib.org/</dc:title>
     </cc:Agent>
    </dc:creator>
   </cc:Work>
  </rdf:RDF>
 </metadata>
 <defs>
  <style type="text/css">*{stroke-linejoin: round; stroke-linecap: butt}</style>
 </defs>
 <g id="figure_1">
  <g id="patch_1">
   <path d="M 0 229.155937 
L 334.578359 229.155937 
L 334.578359 0 
L 0 0 
L 0 229.155937 
z
" style="fill: none"/>
  </g>
  <g id="axes_1">
   <g id="patch_2">
    <path d="M 53.958359 187.38 
L 327.378359 187.38 
L 327.378359 7.2 
L 53.958359 7.2 
L 53.958359 187.38 
z
" style="fill: none"/>
   </g>
   <g id="matplotlib.axis_1">
    <g id="xtick_1">
     <g id="line2d_1"/>
     <g id="text_1">
      <!-- 1B -->
      <g style="fill: #c6d1e8" transform="translate(85.937935 201.137891) scale(0.135 -0.135)">
       <defs>
        <path id="OpenSans-Bold-31" d="M 2644 0 
L 1678 0 
L 1678 2644 
L 1688 3078 
L 1703 3553 
Q 1463 3313 1369 3238 
L 844 2816 
L 378 3397 
L 1850 4569 
L 2644 4569 
L 2644 0 
z
" transform="scale(0.015625)"/>
        <path id="OpenSans-Bold-42" d="M 575 4569 
L 1997 4569 
Q 2969 4569 3408 4292 
Q 3847 4016 3847 3413 
Q 3847 3003 3655 2740 
Q 3463 2478 3144 2425 
L 3144 2394 
Q 3578 2297 3770 2031 
Q 3963 1766 3963 1325 
Q 3963 700 3511 350 
Q 3059 0 2284 0 
L 575 0 
L 575 4569 
z
M 1544 2759 
L 2106 2759 
Q 2500 2759 2676 2881 
Q 2853 3003 2853 3284 
Q 2853 3547 2661 3661 
Q 2469 3775 2053 3775 
L 1544 3775 
L 1544 2759 
z
M 1544 1991 
L 1544 800 
L 2175 800 
Q 2575 800 2765 953 
Q 2956 1106 2956 1422 
Q 2956 1991 2144 1991 
L 1544 1991 
z
" transform="scale(0.015625)"/>
       </defs>
       <use xlink:href="#OpenSans-Bold-31"/>
       <use xlink:href="#OpenSans-Bold-42" transform="translate(57.080078 0)"/>
      </g>
     </g>
    </g>
    <g id="xtick_2">
     <g id="line2d_2"/>
     <g id="text_2">
      <!-- 8B -->
      <g style="fill: #c6d1e8" transform="translate(182.28043 201.137891) scale(0.135 -0.135)">
       <defs>
        <path id="OpenSans-Bold-38" d="M 1831 4628 
Q 2488 4628 2889 4329 
Q 3291 4031 3291 3525 
Q 3291 3175 3097 2901 
Q 2903 2628 2472 2413 
Q 2984 2138 3207 1839 
Q 3431 1541 3431 1184 
Q 3431 622 2990 279 
Q 2550 -63 1831 -63 
Q 1081 -63 653 256 
Q 225 575 225 1159 
Q 225 1550 433 1853 
Q 641 2156 1100 2388 
Q 709 2634 537 2915 
Q 366 3197 366 3531 
Q 366 4022 772 4325 
Q 1178 4628 1831 4628 
z
M 1119 1216 
Q 1119 947 1306 797 
Q 1494 647 1819 647 
Q 2178 647 2356 801 
Q 2534 956 2534 1209 
Q 2534 1419 2357 1601 
Q 2181 1784 1784 1991 
Q 1119 1684 1119 1216 
z
M 1825 3922 
Q 1578 3922 1426 3795 
Q 1275 3669 1275 3456 
Q 1275 3269 1395 3120 
Q 1516 2972 1831 2816 
Q 2138 2959 2259 3109 
Q 2381 3259 2381 3456 
Q 2381 3672 2225 3797 
Q 2069 3922 1825 3922 
z
" transform="scale(0.015625)"/>
       </defs>
       <use xlink:href="#OpenSans-Bold-38"/>
       <use xlink:href="#OpenSans-Bold-42" transform="translate(57.080078 0)"/>
      </g>
     </g>
    </g>
    <g id="xtick_3">
     <g id="line2d_3"/>
     <g id="text_3">
      <!-- 70B -->
      <g style="fill: #c6d1e8" transform="translate(274.770151 201.137891) scale(0.135 -0.135)">
       <defs>
        <path id="OpenSans-Bold-37" d="M 709 0 
L 2425 3750 
L 172 3750 
L 172 4563 
L 3450 4563 
L 3450 3956 
L 1722 0 
L 709 0 
z
" transform="scale(0.015625)"/>
        <path id="OpenSans-Bold-30" d="M 3425 2284 
Q 3425 1088 3033 512 
Q 2641 -63 1825 -63 
Q 1034 -63 632 531 
Q 231 1125 231 2284 
Q 231 3494 622 4067 
Q 1013 4641 1825 4641 
Q 2616 4641 3020 4041 
Q 3425 3441 3425 2284 
z
M 1191 2284 
Q 1191 1444 1336 1080 
Q 1481 716 1825 716 
Q 2163 716 2313 1084 
Q 2463 1453 2463 2284 
Q 2463 3125 2311 3492 
Q 2159 3859 1825 3859 
Q 1484 3859 1337 3492 
Q 1191 3125 1191 2284 
z
" transform="scale(0.015625)"/>
       </defs>
       <use xlink:href="#OpenSans-Bold-37"/>
       <use xlink:href="#OpenSans-Bold-30" transform="translate(57.080078 0)"/>
       <use xlink:href="#OpenSans-Bold-42" transform="translate(114.160156 0)"/>
      </g>
     </g>
    </g>
    <g id="text_4">
     <!-- Llama family  ·  model size (parameters) -->
     <g style="fill: #8a98b8" transform="translate(61.497617 218.711719) scale(0.135 -0.135)">
      <defs>
       <path id="OpenSans-Semibold-4c" d="M 603 0 
L 603 4569 
L 1350 4569 
L 1350 641 
L 3284 641 
L 3284 0 
L 603 0 
z
" transform="scale(0.015625)"/>
       <path id="OpenSans-Semibold-6c" d="M 1259 0 
L 525 0 
L 525 4863 
L 1259 4863 
L 1259 0 
z
" transform="scale(0.015625)"/>
       <path id="OpenSans-Semibold-61" d="M 2688 0 
L 2541 481 
L 2516 481 
Q 2266 166 2012 51 
Q 1759 -63 1363 -63 
Q 853 -63 567 212 
Q 281 488 281 991 
Q 281 1525 678 1797 
Q 1075 2069 1888 2094 
L 2484 2113 
L 2484 2297 
Q 2484 2628 2329 2792 
Q 2175 2956 1850 2956 
Q 1584 2956 1340 2878 
Q 1097 2800 872 2694 
L 634 3219 
Q 916 3366 1250 3442 
Q 1584 3519 1881 3519 
Q 2541 3519 2877 3231 
Q 3213 2944 3213 2328 
L 3213 0 
L 2688 0 
z
M 1594 500 
Q 1994 500 2236 723 
Q 2478 947 2478 1350 
L 2478 1650 
L 2034 1631 
Q 1516 1613 1280 1458 
Q 1044 1303 1044 984 
Q 1044 753 1181 626 
Q 1319 500 1594 500 
z
" transform="scale(0.015625)"/>
       <path id="OpenSans-Semibold-6d" d="M 3438 0 
L 2700 0 
L 2700 2131 
Q 2700 2528 2550 2723 
Q 2400 2919 2081 2919 
Q 1656 2919 1457 2642 
Q 1259 2366 1259 1722 
L 1259 0 
L 525 0 
L 525 3456 
L 1100 3456 
L 1203 3003 
L 1241 3003 
Q 1384 3250 1657 3384 
Q 1931 3519 2259 3519 
Q 3056 3519 3316 2975 
L 3366 2975 
Q 3519 3231 3797 3375 
Q 4075 3519 4434 3519 
Q 5053 3519 5336 3206 
Q 5619 2894 5619 2253 
L 5619 0 
L 4884 0 
L 4884 2131 
Q 4884 2528 4732 2723 
Q 4581 2919 4263 2919 
Q 3834 2919 3636 2651 
Q 3438 2384 3438 1831 
L 3438 0 
z
" transform="scale(0.015625)"/>
       <path id="OpenSans-Semibold-20" transform="scale(0.015625)"/>
       <path id="OpenSans-Semibold-66" d="M 2259 2900 
L 1416 2900 
L 1416 0 
L 678 0 
L 678 2900 
L 109 2900 
L 109 3244 
L 678 3469 
L 678 3694 
Q 678 4306 965 4601 
Q 1253 4897 1844 4897 
Q 2231 4897 2606 4769 
L 2413 4213 
Q 2141 4300 1894 4300 
Q 1644 4300 1530 4145 
Q 1416 3991 1416 3681 
L 1416 3456 
L 2259 3456 
L 2259 2900 
z
" transform="scale(0.015625)"/>
       <path id="OpenSans-Semibold-69" d="M 1259 0 
L 525 0 
L 525 3456 
L 1259 3456 
L 1259 0 
z
M 481 4372 
Q 481 4569 589 4675 
Q 697 4781 897 4781 
Q 1091 4781 1198 4675 
Q 1306 4569 1306 4372 
Q 1306 4184 1198 4076 
Q 1091 3969 897 3969 
Q 697 3969 589 4076 
Q 481 4184 481 4372 
z
" transform="scale(0.015625)"/>
       <path id="OpenSans-Semibold-79" d="M 0 3456 
L 800 3456 
L 1503 1497 
Q 1663 1078 1716 709 
L 1741 709 
Q 1769 881 1844 1126 
Q 1919 1372 2638 3456 
L 3431 3456 
L 1953 -459 
Q 1550 -1538 609 -1538 
Q 366 -1538 134 -1484 
L 134 -903 
Q 300 -941 513 -941 
Q 1044 -941 1259 -325 
L 1388 0 
L 0 3456 
z
" transform="scale(0.015625)"/>
       <path id="OpenSans-Semibold-b7" d="M 416 2259 
Q 416 2488 534 2609 
Q 653 2731 878 2731 
Q 1106 2731 1225 2604 
Q 1344 2478 1344 2259 
Q 1344 2038 1223 1908 
Q 1103 1778 878 1778 
Q 653 1778 534 1906 
Q 416 2034 416 2259 
z
" transform="scale(0.015625)"/>
       <path id="OpenSans-Semibold-6f" d="M 3591 1734 
Q 3591 888 3156 412 
Q 2722 -63 1947 -63 
Q 1463 -63 1091 156 
Q 719 375 519 784 
Q 319 1194 319 1734 
Q 319 2575 750 3047 
Q 1181 3519 1966 3519 
Q 2716 3519 3153 3036 
Q 3591 2553 3591 1734 
z
M 1075 1734 
Q 1075 538 1959 538 
Q 2834 538 2834 1734 
Q 2834 2919 1953 2919 
Q 1491 2919 1283 2612 
Q 1075 2306 1075 1734 
z
" transform="scale(0.015625)"/>
       <path id="OpenSans-Semibold-64" d="M 1691 -63 
Q 1044 -63 681 406 
Q 319 875 319 1722 
Q 319 2572 686 3045 
Q 1053 3519 1703 3519 
Q 2384 3519 2741 3016 
L 2778 3016 
Q 2725 3388 2725 3603 
L 2725 4863 
L 3463 4863 
L 3463 0 
L 2888 0 
L 2759 453 
L 2725 453 
Q 2372 -63 1691 -63 
z
M 1888 531 
Q 2341 531 2547 786 
Q 2753 1041 2759 1613 
L 2759 1716 
Q 2759 2369 2546 2644 
Q 2334 2919 1881 2919 
Q 1494 2919 1284 2605 
Q 1075 2291 1075 1709 
Q 1075 1134 1278 832 
Q 1481 531 1888 531 
z
" transform="scale(0.015625)"/>
       <path id="OpenSans-Semibold-65" d="M 2034 -63 
Q 1228 -63 773 407 
Q 319 878 319 1703 
Q 319 2550 741 3034 
Q 1163 3519 1900 3519 
Q 2584 3519 2981 3103 
Q 3378 2688 3378 1959 
L 3378 1563 
L 1075 1563 
Q 1091 1059 1347 789 
Q 1603 519 2069 519 
Q 2375 519 2639 576 
Q 2903 634 3206 769 
L 3206 172 
Q 2938 44 2663 -9 
Q 2388 -63 2034 -63 
z
M 1900 2963 
Q 1550 2963 1339 2741 
Q 1128 2519 1088 2094 
L 2656 2094 
Q 2650 2522 2450 2742 
Q 2250 2963 1900 2963 
z
" transform="scale(0.015625)"/>
       <path id="OpenSans-Semibold-73" d="M 2847 984 
Q 2847 478 2478 207 
Q 2109 -63 1422 -63 
Q 731 -63 313 147 
L 313 781 
Q 922 500 1447 500 
Q 2125 500 2125 909 
Q 2125 1041 2050 1128 
Q 1975 1216 1803 1309 
Q 1631 1403 1325 1522 
Q 728 1753 517 1984 
Q 306 2216 306 2584 
Q 306 3028 664 3273 
Q 1022 3519 1638 3519 
Q 2247 3519 2791 3272 
L 2553 2719 
Q 1994 2950 1613 2950 
Q 1031 2950 1031 2619 
Q 1031 2456 1182 2343 
Q 1334 2231 1844 2034 
Q 2272 1869 2465 1731 
Q 2659 1594 2753 1414 
Q 2847 1234 2847 984 
z
" transform="scale(0.015625)"/>
       <path id="OpenSans-Semibold-7a" d="M 2834 0 
L 213 0 
L 213 453 
L 1959 2894 
L 319 2894 
L 319 3456 
L 2784 3456 
L 2784 2944 
L 1075 563 
L 2834 563 
L 2834 0 
z
" transform="scale(0.015625)"/>
       <path id="OpenSans-Semibold-28" d="M 256 1753 
Q 256 2581 498 3303 
Q 741 4025 1197 4569 
L 1838 4569 
Q 1403 3981 1172 3251 
Q 941 2522 941 1759 
Q 941 997 1172 281 
Q 1403 -434 1831 -1013 
L 1197 -1013 
Q 738 -481 497 228 
Q 256 938 256 1753 
z
" transform="scale(0.015625)"/>
       <path id="OpenSans-Semibold-70" d="M 2278 -63 
Q 1622 -63 1259 409 
L 1216 409 
Q 1259 -28 1259 -122 
L 1259 -1538 
L 525 -1538 
L 525 3456 
L 1119 3456 
Q 1144 3359 1222 2994 
L 1259 2994 
Q 1603 3519 2291 3519 
Q 2938 3519 3298 3050 
Q 3659 2581 3659 1734 
Q 3659 888 3292 412 
Q 2925 -63 2278 -63 
z
M 2100 2919 
Q 1663 2919 1461 2662 
Q 1259 2406 1259 1844 
L 1259 1734 
Q 1259 1103 1459 820 
Q 1659 538 2113 538 
Q 2494 538 2700 850 
Q 2906 1163 2906 1741 
Q 2906 2322 2701 2620 
Q 2497 2919 2100 2919 
z
" transform="scale(0.015625)"/>
       <path id="OpenSans-Semibold-72" d="M 2278 3519 
Q 2500 3519 2644 3488 
L 2572 2803 
Q 2416 2841 2247 2841 
Q 1806 2841 1532 2553 
Q 1259 2266 1259 1806 
L 1259 0 
L 525 0 
L 525 3456 
L 1100 3456 
L 1197 2847 
L 1234 2847 
Q 1406 3156 1682 3337 
Q 1959 3519 2278 3519 
z
" transform="scale(0.015625)"/>
       <path id="OpenSans-Semibold-74" d="M 1813 531 
Q 2081 531 2350 616 
L 2350 63 
Q 2228 9 2036 -27 
Q 1844 -63 1638 -63 
Q 594 -63 594 1038 
L 594 2900 
L 122 2900 
L 122 3225 
L 628 3494 
L 878 4225 
L 1331 4225 
L 1331 3456 
L 2316 3456 
L 2316 2900 
L 1331 2900 
L 1331 1050 
Q 1331 784 1464 657 
Q 1597 531 1813 531 
z
" transform="scale(0.015625)"/>
       <path id="OpenSans-Semibold-29" d="M 1772 1753 
Q 1772 931 1530 221 
Q 1288 -488 831 -1013 
L 197 -1013 
Q 628 -428 858 284 
Q 1088 997 1088 1759 
Q 1088 2525 856 3251 
Q 625 3978 191 4569 
L 831 4569 
Q 1291 4022 1531 3298 
Q 1772 2575 1772 1753 
z
" transform="scale(0.015625)"/>
      </defs>
      <use xlink:href="#OpenSans-Semibold-4c"/>
      <use xlink:href="#OpenSans-Semibold-6c" transform="translate(54.199219 0)"/>
      <use xlink:href="#OpenSans-Semibold-61" transform="translate(82.080078 0)"/>
      <use xlink:href="#OpenSans-Semibold-6d" transform="translate(140.087891 0)"/>
      <use xlink:href="#OpenSans-Semibold-61" transform="translate(235.693359 0)"/>
      <use xlink:href="#OpenSans-Semibold-20" transform="translate(293.701172 0)"/>
      <use xlink:href="#OpenSans-Semibold-66" transform="translate(319.677734 0)"/>
      <use xlink:href="#OpenSans-Semibold-61" transform="translate(355.957031 0)"/>
      <use xlink:href="#OpenSans-Semibold-6d" transform="translate(413.964844 0)"/>
      <use xlink:href="#OpenSans-Semibold-69" transform="translate(509.570312 0)"/>
      <use xlink:href="#OpenSans-Semibold-6c" transform="translate(537.451172 0)"/>
      <use xlink:href="#OpenSans-Semibold-79" transform="translate(565.332031 0)"/>
      <use xlink:href="#OpenSans-Semibold-20" transform="translate(618.945312 0)"/>
      <use xlink:href="#OpenSans-Semibold-20" transform="translate(644.921875 0)"/>
      <use xlink:href="#OpenSans-Semibold-b7" transform="translate(670.898438 0)"/>
      <use xlink:href="#OpenSans-Semibold-20" transform="translate(698.388672 0)"/>
      <use xlink:href="#OpenSans-Semibold-20" transform="translate(724.365234 0)"/>
      <use xlink:href="#OpenSans-Semibold-6d" transform="translate(750.341797 0)"/>
      <use xlink:href="#OpenSans-Semibold-6f" transform="translate(845.947266 0)"/>
      <use xlink:href="#OpenSans-Semibold-64" transform="translate(907.03125 0)"/>
      <use xlink:href="#OpenSans-Semibold-65" transform="translate(969.335938 0)"/>
      <use xlink:href="#OpenSans-Semibold-6c" transform="translate(1026.953125 0)"/>
      <use xlink:href="#OpenSans-Semibold-20" transform="translate(1054.833984 0)"/>
      <use xlink:href="#OpenSans-Semibold-73" transform="translate(1080.810547 0)"/>
      <use xlink:href="#OpenSans-Semibold-69" transform="translate(1129.492188 0)"/>
      <use xlink:href="#OpenSans-Semibold-7a" transform="translate(1157.373047 0)"/>
      <use xlink:href="#OpenSans-Semibold-65" transform="translate(1205.175781 0)"/>
      <use xlink:href="#OpenSans-Semibold-20" transform="translate(1262.792969 0)"/>
      <use xlink:href="#OpenSans-Semibold-28" transform="translate(1288.769531 0)"/>
      <use xlink:href="#OpenSans-Semibold-70" transform="translate(1320.458984 0)"/>
      <use xlink:href="#OpenSans-Semibold-61" transform="translate(1382.763672 0)"/>
      <use xlink:href="#OpenSans-Semibold-72" transform="translate(1440.771484 0)"/>
      <use xlink:href="#OpenSans-Semibold-61" transform="translate(1481.886719 0)"/>
      <use xlink:href="#OpenSans-Semibold-6d" transform="translate(1539.894531 0)"/>
      <use xlink:href="#OpenSans-Semibold-65" transform="translate(1635.5 0)"/>
      <use xlink:href="#OpenSans-Semibold-74" transform="translate(1693.117188 0)"/>
      <use xlink:href="#OpenSans-Semibold-65" transform="translate(1732.423828 0)"/>
      <use xlink:href="#OpenSans-Semibold-72" transform="translate(1790.041016 0)"/>
      <use xlink:href="#OpenSans-Semibold-73" transform="translate(1833.15625 0)"/>
      <use xlink:href="#OpenSans-Semibold-29" transform="translate(1881.837891 0)"/>
     </g>
    </g>
   </g>
   <g id="matplotlib.axis_2">
    <g id="ytick_1">
     <g id="line2d_4">
      <path d="M 53.958359 176.11875 
L 327.378359 176.11875 
" clip-path="url(#p628973248a)" style="fill: none; stroke: #ffffff; stroke-opacity: 0.09; stroke-width: 0.8; stroke-linecap: square"/>
     </g>
     <g id="line2d_5"/>
     <g id="text_5">
      <!-- 0.80 -->
      <g style="fill: #8a98b8" transform="translate(24.702109 181.057734) scale(0.13 -0.13)">
       <defs>
        <path id="OpenSans-30" d="M 3341 2291 
Q 3341 1106 2967 521 
Q 2594 -63 1825 -63 
Q 1088 -63 703 535 
Q 319 1134 319 2291 
Q 319 3484 691 4062 
Q 1063 4641 1825 4641 
Q 2569 4641 2955 4037 
Q 3341 3434 3341 2291 
z
M 844 2291 
Q 844 1294 1078 839 
Q 1313 384 1825 384 
Q 2344 384 2576 845 
Q 2809 1306 2809 2291 
Q 2809 3275 2576 3733 
Q 2344 4191 1825 4191 
Q 1313 4191 1078 3739 
Q 844 3288 844 2291 
z
" transform="scale(0.015625)"/>
        <path id="OpenSans-2e" d="M 475 331 
Q 475 541 570 648 
Q 666 756 844 756 
Q 1025 756 1126 648 
Q 1228 541 1228 331 
Q 1228 128 1125 18 
Q 1022 -91 844 -91 
Q 684 -91 579 7 
Q 475 106 475 331 
z
" transform="scale(0.015625)"/>
        <path id="OpenSans-38" d="M 1825 4634 
Q 2450 4634 2815 4343 
Q 3181 4053 3181 3541 
Q 3181 3203 2972 2925 
Q 2763 2647 2303 2419 
Q 2859 2153 3093 1861 
Q 3328 1569 3328 1184 
Q 3328 616 2931 276 
Q 2534 -63 1844 -63 
Q 1113 -63 719 257 
Q 325 578 325 1166 
Q 325 1950 1281 2388 
Q 850 2631 662 2914 
Q 475 3197 475 3547 
Q 475 4044 842 4339 
Q 1209 4634 1825 4634 
z
M 838 1153 
Q 838 778 1098 568 
Q 1359 359 1831 359 
Q 2297 359 2556 578 
Q 2816 797 2816 1178 
Q 2816 1481 2572 1717 
Q 2328 1953 1722 2175 
Q 1256 1975 1047 1733 
Q 838 1491 838 1153 
z
M 1819 4213 
Q 1428 4213 1206 4025 
Q 984 3838 984 3525 
Q 984 3238 1168 3031 
Q 1353 2825 1850 2619 
Q 2297 2806 2483 3022 
Q 2669 3238 2669 3525 
Q 2669 3841 2442 4027 
Q 2216 4213 1819 4213 
z
" transform="scale(0.015625)"/>
       </defs>
       <use xlink:href="#OpenSans-30"/>
       <use xlink:href="#OpenSans-2e" transform="translate(57.177734 0)"/>
       <use xlink:href="#OpenSans-38" transform="translate(83.789062 0)"/>
       <use xlink:href="#OpenSans-30" transform="translate(140.966797 0)"/>
      </g>
     </g>
    </g>
    <g id="ytick_2">
     <g id="line2d_6">
      <path d="M 53.958359 131.07375 
L 327.378359 131.07375 
" clip-path="url(#p628973248a)" style="fill: none; stroke: #ffffff; stroke-opacity: 0.09; stroke-width: 0.8; stroke-linecap: square"/>
     </g>
     <g id="line2d_7"/>
     <g id="text_6">
      <!-- 0.82 -->
      <g style="fill: #8a98b8" transform="translate(24.702109 136.012734) scale(0.13 -0.13)">
       <defs>
        <path id="OpenSans-32" d="M 3316 0 
L 313 0 
L 313 447 
L 1516 1656 
Q 2066 2213 2241 2450 
Q 2416 2688 2503 2913 
Q 2591 3138 2591 3397 
Q 2591 3763 2369 3977 
Q 2147 4191 1753 4191 
Q 1469 4191 1214 4097 
Q 959 4003 647 3756 
L 372 4109 
Q 1003 4634 1747 4634 
Q 2391 4634 2756 4304 
Q 3122 3975 3122 3419 
Q 3122 2984 2878 2559 
Q 2634 2134 1966 1484 
L 966 506 
L 966 481 
L 3316 481 
L 3316 0 
z
" transform="scale(0.015625)"/>
       </defs>
       <use xlink:href="#OpenSans-30"/>
       <use xlink:href="#OpenSans-2e" transform="translate(57.177734 0)"/>
       <use xlink:href="#OpenSans-38" transform="translate(83.789062 0)"/>
       <use xlink:href="#OpenSans-32" transform="translate(140.966797 0)"/>
      </g>
     </g>
    </g>
    <g id="ytick_3">
     <g id="line2d_8">
      <path d="M 53.958359 86.02875 
L 327.378359 86.02875 
" clip-path="url(#p628973248a)" style="fill: none; stroke: #ffffff; stroke-opacity: 0.09; stroke-width: 0.8; stroke-linecap: square"/>
     </g>
     <g id="line2d_9"/>
     <g id="text_7">
      <!-- 0.84 -->
      <g style="fill: #8a98b8" transform="translate(24.702109 90.967734) scale(0.13 -0.13)">
       <defs>
        <path id="OpenSans-34" d="M 3531 1050 
L 2853 1050 
L 2853 0 
L 2356 0 
L 2356 1050 
L 134 1050 
L 134 1503 
L 2303 4594 
L 2853 4594 
L 2853 1522 
L 3531 1522 
L 3531 1050 
z
M 2356 1522 
L 2356 3041 
Q 2356 3488 2388 4050 
L 2363 4050 
Q 2213 3750 2081 3553 
L 653 1522 
L 2356 1522 
z
" transform="scale(0.015625)"/>
       </defs>
       <use xlink:href="#OpenSans-30"/>
       <use xlink:href="#OpenSans-2e" transform="translate(57.177734 0)"/>
       <use xlink:href="#OpenSans-38" transform="translate(83.789062 0)"/>
       <use xlink:href="#OpenSans-34" transform="translate(140.966797 0)"/>
      </g>
     </g>
    </g>
    <g id="ytick_4">
     <g id="line2d_10">
      <path d="M 53.958359 40.98375 
L 327.378359 40.98375 
" clip-path="url(#p628973248a)" style="fill: none; stroke: #ffffff; stroke-opacity: 0.09; stroke-width: 0.8; stroke-linecap: square"/>
     </g>
     <g id="line2d_11"/>
     <g id="text_8">
      <!-- 0.86 -->
      <g style="fill: #8a98b8" transform="translate(24.702109 45.922734) scale(0.13 -0.13)">
       <defs>
        <path id="OpenSans-36" d="M 366 1953 
Q 366 3300 889 3967 
Q 1413 4634 2438 4634 
Q 2791 4634 2994 4575 
L 2994 4128 
Q 2753 4206 2444 4206 
Q 1709 4206 1321 3748 
Q 934 3291 897 2309 
L 934 2309 
Q 1278 2847 2022 2847 
Q 2638 2847 2992 2475 
Q 3347 2103 3347 1466 
Q 3347 753 2958 345 
Q 2569 -63 1906 -63 
Q 1197 -63 781 470 
Q 366 1003 366 1953 
z
M 1900 378 
Q 2344 378 2589 658 
Q 2834 938 2834 1466 
Q 2834 1919 2606 2178 
Q 2378 2438 1925 2438 
Q 1644 2438 1409 2322 
Q 1175 2206 1036 2003 
Q 897 1800 897 1581 
Q 897 1259 1022 981 
Q 1147 703 1376 540 
Q 1606 378 1900 378 
z
" transform="scale(0.015625)"/>
       </defs>
       <use xlink:href="#OpenSans-30"/>
       <use xlink:href="#OpenSans-2e" transform="translate(57.177734 0)"/>
       <use xlink:href="#OpenSans-38" transform="translate(83.789062 0)"/>
       <use xlink:href="#OpenSans-36" transform="translate(140.966797 0)"/>
      </g>
     </g>
    </g>
    <g id="text_9">
     <!-- quality (BERTScore F1) -->
     <g style="fill: #8a98b8" transform="translate(17.457891 169.162734) rotate(-90) scale(0.135 -0.135)">
      <defs>
       <path id="OpenSans-Semibold-71" d="M 1894 525 
Q 2356 525 2557 792 
Q 2759 1059 2759 1600 
L 2759 1716 
Q 2759 2356 2551 2637 
Q 2344 2919 1881 2919 
Q 1488 2919 1281 2606 
Q 1075 2294 1075 1709 
Q 1075 525 1894 525 
z
M 1684 -63 
Q 1044 -63 681 407 
Q 319 878 319 1722 
Q 319 2566 687 3042 
Q 1056 3519 1703 3519 
Q 2028 3519 2286 3398 
Q 2544 3278 2747 3003 
L 2772 3003 
L 2853 3456 
L 3463 3456 
L 3463 -1538 
L 2725 -1538 
L 2725 -72 
Q 2725 66 2737 219 
Q 2750 372 2759 453 
L 2719 453 
Q 2394 -63 1684 -63 
z
" transform="scale(0.015625)"/>
       <path id="OpenSans-Semibold-75" d="M 2963 0 
L 2859 453 
L 2822 453 
Q 2669 213 2386 75 
Q 2103 -63 1741 -63 
Q 1113 -63 803 250 
Q 494 563 494 1197 
L 494 3456 
L 1234 3456 
L 1234 1325 
Q 1234 928 1396 729 
Q 1559 531 1906 531 
Q 2369 531 2586 807 
Q 2803 1084 2803 1734 
L 2803 3456 
L 3541 3456 
L 3541 0 
L 2963 0 
z
" transform="scale(0.015625)"/>
       <path id="OpenSans-Semibold-42" d="M 603 4569 
L 1959 4569 
Q 2903 4569 3323 4294 
Q 3744 4019 3744 3425 
Q 3744 3025 3537 2759 
Q 3331 2494 2944 2425 
L 2944 2394 
Q 3425 2303 3651 2036 
Q 3878 1769 3878 1313 
Q 3878 697 3448 348 
Q 3019 0 2253 0 
L 603 0 
L 603 4569 
z
M 1350 2681 
L 2069 2681 
Q 2538 2681 2753 2829 
Q 2969 2978 2969 3334 
Q 2969 3656 2736 3800 
Q 2503 3944 1997 3944 
L 1350 3944 
L 1350 2681 
z
M 1350 2075 
L 1350 628 
L 2144 628 
Q 2613 628 2852 808 
Q 3091 988 3091 1375 
Q 3091 1731 2847 1903 
Q 2603 2075 2106 2075 
L 1350 2075 
z
" transform="scale(0.015625)"/>
       <path id="OpenSans-Semibold-45" d="M 3188 0 
L 603 0 
L 603 4569 
L 3188 4569 
L 3188 3938 
L 1350 3938 
L 1350 2694 
L 3072 2694 
L 3072 2069 
L 1350 2069 
L 1350 634 
L 3188 634 
L 3188 0 
z
" transform="scale(0.015625)"/>
       <path id="OpenSans-Semibold-52" d="M 1350 2444 
L 1869 2444 
Q 2391 2444 2625 2637 
Q 2859 2831 2859 3213 
Q 2859 3600 2606 3769 
Q 2353 3938 1844 3938 
L 1350 3938 
L 1350 2444 
z
M 1350 1825 
L 1350 0 
L 603 0 
L 603 4569 
L 1894 4569 
Q 2778 4569 3203 4237 
Q 3628 3906 3628 3238 
Q 3628 2384 2741 2022 
L 4031 0 
L 3181 0 
L 2088 1825 
L 1350 1825 
z
" transform="scale(0.015625)"/>
       <path id="OpenSans-Semibold-54" d="M 2181 0 
L 1434 0 
L 1434 3928 
L 91 3928 
L 91 4569 
L 3525 4569 
L 3525 3928 
L 2181 3928 
L 2181 0 
z
" transform="scale(0.015625)"/>
       <path id="OpenSans-Semibold-53" d="M 3238 1241 
Q 3238 631 2797 284 
Q 2356 -63 1581 -63 
Q 806 -63 313 178 
L 313 884 
Q 625 738 976 653 
Q 1328 569 1631 569 
Q 2075 569 2286 737 
Q 2497 906 2497 1191 
Q 2497 1447 2303 1625 
Q 2109 1803 1503 2047 
Q 878 2300 622 2625 
Q 366 2950 366 3406 
Q 366 3978 772 4306 
Q 1178 4634 1863 4634 
Q 2519 4634 3169 4347 
L 2931 3738 
Q 2322 3994 1844 3994 
Q 1481 3994 1293 3836 
Q 1106 3678 1106 3419 
Q 1106 3241 1181 3114 
Q 1256 2988 1428 2875 
Q 1600 2763 2047 2578 
Q 2550 2369 2784 2187 
Q 3019 2006 3128 1778 
Q 3238 1550 3238 1241 
z
" transform="scale(0.015625)"/>
       <path id="OpenSans-Semibold-63" d="M 1919 -63 
Q 1134 -63 726 395 
Q 319 853 319 1709 
Q 319 2581 745 3050 
Q 1172 3519 1978 3519 
Q 2525 3519 2963 3316 
L 2741 2725 
Q 2275 2906 1972 2906 
Q 1075 2906 1075 1716 
Q 1075 1134 1298 842 
Q 1522 550 1953 550 
Q 2444 550 2881 794 
L 2881 153 
Q 2684 38 2461 -12 
Q 2238 -63 1919 -63 
z
" transform="scale(0.015625)"/>
       <path id="OpenSans-Semibold-46" d="M 1344 0 
L 603 0 
L 603 4569 
L 3181 4569 
L 3181 3938 
L 1344 3938 
L 1344 2509 
L 3066 2509 
L 3066 1875 
L 1344 1875 
L 1344 0 
z
" transform="scale(0.015625)"/>
       <path id="OpenSans-Semibold-31" d="M 2438 0 
L 1703 0 
L 1703 2950 
Q 1703 3478 1728 3788 
Q 1656 3713 1551 3622 
Q 1447 3531 850 3047 
L 481 3513 
L 1825 4569 
L 2438 4569 
L 2438 0 
z
" transform="scale(0.015625)"/>
      </defs>
      <use xlink:href="#OpenSans-Semibold-71"/>
      <use xlink:href="#OpenSans-Semibold-75" transform="translate(62.304688 0)"/>
      <use xlink:href="#OpenSans-Semibold-61" transform="translate(125.78125 0)"/>
      <use xlink:href="#OpenSans-Semibold-6c" transform="translate(183.789062 0)"/>
      <use xlink:href="#OpenSans-Semibold-69" transform="translate(211.669922 0)"/>
      <use xlink:href="#OpenSans-Semibold-74" transform="translate(239.550781 0)"/>
      <use xlink:href="#OpenSans-Semibold-79" transform="translate(278.857422 0)"/>
      <use xlink:href="#OpenSans-Semibold-20" transform="translate(332.470703 0)"/>
      <use xlink:href="#OpenSans-Semibold-28" transform="translate(358.447266 0)"/>
      <use xlink:href="#OpenSans-Semibold-42" transform="translate(390.136719 0)"/>
      <use xlink:href="#OpenSans-Semibold-45" transform="translate(456.152344 0)"/>
      <use xlink:href="#OpenSans-Semibold-52" transform="translate(511.962891 0)"/>
      <use xlink:href="#OpenSans-Semibold-54" transform="translate(575.878906 0)"/>
      <use xlink:href="#OpenSans-Semibold-53" transform="translate(632.470703 0)"/>
      <use xlink:href="#OpenSans-Semibold-63" transform="translate(687.451172 0)"/>
      <use xlink:href="#OpenSans-Semibold-6f" transform="translate(736.962891 0)"/>
      <use xlink:href="#OpenSans-Semibold-72" transform="translate(798.046875 0)"/>
      <use xlink:href="#OpenSans-Semibold-65" transform="translate(839.162109 0)"/>
      <use xlink:href="#OpenSans-Semibold-20" transform="translate(896.779297 0)"/>
      <use xlink:href="#OpenSans-Semibold-46" transform="translate(922.755859 0)"/>
      <use xlink:href="#OpenSans-Semibold-31" transform="translate(975.978516 0)"/>
      <use xlink:href="#OpenSans-Semibold-29" transform="translate(1033.058594 0)"/>
     </g>
    </g>
   </g>
   <g id="patch_3">
    <path d="M 53.958359 187.38 
L 53.958359 7.2 
" style="fill: none; opacity: 0.18; stroke: #ffffff; stroke-linejoin: miter; stroke-linecap: square"/>
   </g>
   <g id="patch_4">
    <path d="M 53.958359 187.38 
L 327.378359 187.38 
" style="fill: none; opacity: 0.18; stroke: #ffffff; stroke-linejoin: miter; stroke-linecap: square"/>
   </g>
   <g id="patch_5">
    <path d="M 66.386541 1977.91875 
L 122.265188 1977.91875 
L 122.265188 151.569225 
L 66.386541 151.569225 
z
" clip-path="url(#p628973248a)" style="fill: #5aa9ff; stroke: #121826; stroke-width: 1.4; stroke-linejoin: miter"/>
   </g>
   <g id="patch_6">
    <path d="M 162.729036 1977.91875 
L 218.607683 1977.91875 
L 218.607683 50.89365 
L 162.729036 50.89365 
z
" clip-path="url(#p628973248a)" style="fill: #5aa9ff; stroke: #121826; stroke-width: 1.4; stroke-linejoin: miter"/>
   </g>
   <g id="patch_7">
    <path d="M 259.071531 1977.91875 
L 314.950178 1977.91875 
L 314.950178 33.551325 
L 259.071531 33.551325 
z
" clip-path="url(#p628973248a)" style="fill: #5aa9ff; stroke: #121826; stroke-width: 1.4; stroke-linejoin: miter"/>
   </g>
   <g id="text_10">
    <!-- 0.811 -->
    <g style="fill: #e8eefb" transform="translate(75.896177 143.2499) scale(0.14 -0.14)">
     <defs>
      <path id="OpenSans-Extrabold-30" d="M 3525 2278 
Q 3525 1066 3119 501 
Q 2713 -63 1875 -63 
Q 1056 -63 640 526 
Q 225 1116 225 2278 
Q 225 3497 631 4065 
Q 1038 4634 1875 4634 
Q 2691 4634 3108 4042 
Q 3525 3450 3525 2278 
z
M 1453 2278 
Q 1453 1503 1550 1212 
Q 1647 922 1875 922 
Q 2106 922 2201 1222 
Q 2297 1522 2297 2278 
Q 2297 3038 2200 3342 
Q 2103 3647 1875 3647 
Q 1647 3647 1550 3353 
Q 1453 3059 1453 2278 
z
" transform="scale(0.015625)"/>
      <path id="OpenSans-Extrabold-2e" d="M 269 519 
Q 269 806 439 962 
Q 609 1119 934 1119 
Q 1244 1119 1409 962 
Q 1575 806 1575 519 
Q 1575 238 1404 80 
Q 1234 -78 934 -78 
Q 625 -78 447 78 
Q 269 234 269 519 
z
" transform="scale(0.015625)"/>
      <path id="OpenSans-Extrabold-38" d="M 1888 4634 
Q 2609 4634 3011 4343 
Q 3413 4053 3413 3519 
Q 3413 3156 3223 2882 
Q 3034 2609 2625 2406 
Q 3131 2119 3339 1833 
Q 3547 1547 3547 1216 
Q 3547 606 3106 271 
Q 2666 -63 1875 -63 
Q 1069 -63 641 264 
Q 213 591 213 1203 
Q 213 1600 403 1879 
Q 594 2159 1044 2388 
Q 681 2631 514 2911 
Q 347 3191 347 3525 
Q 347 4050 756 4342 
Q 1166 4634 1888 4634 
z
M 1344 1253 
Q 1344 1059 1481 942 
Q 1619 825 1863 825 
Q 2413 825 2413 1228 
Q 2413 1381 2292 1529 
Q 2172 1678 1863 1863 
Q 1584 1716 1464 1567 
Q 1344 1419 1344 1253 
z
M 1881 3744 
Q 1722 3744 1612 3651 
Q 1503 3559 1503 3413 
Q 1503 3144 1869 2938 
Q 2091 3066 2172 3172 
Q 2253 3278 2253 3413 
Q 2253 3563 2143 3653 
Q 2034 3744 1881 3744 
z
" transform="scale(0.015625)"/>
      <path id="OpenSans-Extrabold-31" d="M 2944 0 
L 1691 0 
L 1691 2419 
Q 1691 2859 1709 3225 
Q 1594 3084 1422 2931 
L 903 2503 
L 263 3291 
L 1831 4569 
L 2944 4569 
L 2944 0 
z
" transform="scale(0.015625)"/>
     </defs>
     <use xlink:href="#OpenSans-Extrabold-30"/>
     <use xlink:href="#OpenSans-Extrabold-2e" transform="translate(58.59375 0)"/>
     <use xlink:href="#OpenSans-Extrabold-38" transform="translate(87.5 0)"/>
     <use xlink:href="#OpenSans-Extrabold-31" transform="translate(146.09375 0)"/>
     <use xlink:href="#OpenSans-Extrabold-31" transform="translate(204.6875 0)"/>
    </g>
   </g>
   <g id="text_11">
    <!-- 0.856 -->
    <g style="fill: #e8eefb" transform="translate(172.238672 42.574325) scale(0.14 -0.14)">
     <defs>
      <path id="OpenSans-Extrabold-35" d="M 2075 2994 
Q 2469 2994 2786 2811 
Q 3103 2628 3279 2293 
Q 3456 1959 3456 1522 
Q 3456 756 2995 346 
Q 2534 -63 1600 -63 
Q 800 -63 294 184 
L 294 1197 
Q 566 1072 908 990 
Q 1250 909 1497 909 
Q 1841 909 2025 1054 
Q 2209 1200 2209 1484 
Q 2209 1747 2021 1894 
Q 1834 2041 1453 2041 
Q 1163 2041 825 1931 
L 372 2156 
L 544 4569 
L 3150 4569 
L 3150 3541 
L 1594 3541 
L 1538 2938 
Q 1781 2984 1884 2989 
Q 1988 2994 2075 2994 
z
" transform="scale(0.015625)"/>
      <path id="OpenSans-Extrabold-36" d="M 219 1931 
Q 219 2888 492 3480 
Q 766 4072 1298 4353 
Q 1831 4634 2613 4634 
Q 2891 4634 3263 4581 
L 3263 3616 
Q 2950 3675 2584 3675 
Q 1966 3675 1662 3403 
Q 1359 3131 1331 2516 
L 1369 2516 
Q 1650 3047 2272 3047 
Q 2881 3047 3217 2655 
Q 3553 2263 3553 1563 
Q 3553 809 3128 373 
Q 2703 -63 1941 -63 
Q 1131 -63 675 462 
Q 219 988 219 1931 
z
M 1913 916 
Q 2109 916 2232 1064 
Q 2356 1213 2356 1538 
Q 2356 2094 1925 2094 
Q 1713 2094 1580 1950 
Q 1447 1806 1447 1600 
Q 1447 1300 1575 1108 
Q 1703 916 1913 916 
z
" transform="scale(0.015625)"/>
     </defs>
     <use xlink:href="#OpenSans-Extrabold-30"/>
     <use xlink:href="#OpenSans-Extrabold-2e" transform="translate(58.59375 0)"/>
     <use xlink:href="#OpenSans-Extrabold-38" transform="translate(87.5 0)"/>
     <use xlink:href="#OpenSans-Extrabold-35" transform="translate(146.09375 0)"/>
     <use xlink:href="#OpenSans-Extrabold-36" transform="translate(204.6875 0)"/>
    </g>
   </g>
   <g id="text_12">
    <!-- 0.863 -->
    <g style="fill: #e8eefb" transform="translate(268.581167 25.232) scale(0.14 -0.14)">
     <defs>
      <path id="OpenSans-Extrabold-33" d="M 3353 3578 
Q 3353 3153 3093 2848 
Q 2834 2544 2344 2406 
L 2344 2388 
Q 3488 2244 3488 1306 
Q 3488 669 2983 303 
Q 2478 -63 1581 -63 
Q 1213 -63 898 -9 
Q 584 44 219 184 
L 219 1209 
Q 519 1056 830 982 
Q 1141 909 1403 909 
Q 1809 909 1995 1023 
Q 2181 1138 2181 1381 
Q 2181 1569 2084 1670 
Q 1988 1772 1772 1823 
Q 1556 1875 1209 1875 
L 928 1875 
L 928 2803 
L 1216 2803 
Q 2156 2803 2156 3284 
Q 2156 3466 2017 3553 
Q 1878 3641 1644 3641 
Q 1206 3641 738 3347 
L 225 4172 
Q 588 4422 967 4528 
Q 1347 4634 1838 4634 
Q 2547 4634 2950 4353 
Q 3353 4072 3353 3578 
z
" transform="scale(0.015625)"/>
     </defs>
     <use xlink:href="#OpenSans-Extrabold-30"/>
     <use xlink:href="#OpenSans-Extrabold-2e" transform="translate(58.59375 0)"/>
     <use xlink:href="#OpenSans-Extrabold-38" transform="translate(87.5 0)"/>
     <use xlink:href="#OpenSans-Extrabold-36" transform="translate(146.09375 0)"/>
     <use xlink:href="#OpenSans-Extrabold-33" transform="translate(204.6875 0)"/>
    </g>
   </g>
   <g id="text_13">
    <!-- gains flatten -->
    <g style="fill: #8a98b8" transform="translate(65.423116 57.960773) scale(0.105 -0.105)">
     <defs>
      <path id="OpenSans-Bold-67" d="M 3541 3494 
L 3541 3009 
L 2994 2869 
Q 3144 2634 3144 2344 
Q 3144 1781 2751 1467 
Q 2359 1153 1663 1153 
L 1491 1163 
L 1350 1178 
Q 1203 1066 1203 928 
Q 1203 722 1728 722 
L 2322 722 
Q 2897 722 3198 475 
Q 3500 228 3500 -250 
Q 3500 -863 2989 -1200 
Q 2478 -1538 1522 -1538 
Q 791 -1538 405 -1283 
Q 19 -1028 19 -569 
Q 19 -253 216 -40 
Q 413 172 794 263 
Q 647 325 537 467 
Q 428 609 428 769 
Q 428 969 543 1101 
Q 659 1234 878 1363 
Q 603 1481 442 1743 
Q 281 2006 281 2363 
Q 281 2934 653 3246 
Q 1025 3559 1716 3559 
Q 1863 3559 2064 3532 
Q 2266 3506 2322 3494 
L 3541 3494 
z
M 844 -494 
Q 844 -691 1033 -803 
Q 1222 -916 1563 -916 
Q 2075 -916 2365 -775 
Q 2656 -634 2656 -391 
Q 2656 -194 2484 -119 
Q 2313 -44 1953 -44 
L 1459 -44 
Q 1197 -44 1020 -167 
Q 844 -291 844 -494 
z
M 1191 2350 
Q 1191 2066 1320 1900 
Q 1450 1734 1716 1734 
Q 1984 1734 2109 1900 
Q 2234 2066 2234 2350 
Q 2234 2981 1716 2981 
Q 1191 2981 1191 2350 
z
" transform="scale(0.015625)"/>
      <path id="OpenSans-Bold-61" d="M 2719 0 
L 2534 475 
L 2509 475 
Q 2269 172 2014 54 
Q 1759 -63 1350 -63 
Q 847 -63 558 225 
Q 269 513 269 1044 
Q 269 1600 658 1864 
Q 1047 2128 1831 2156 
L 2438 2175 
L 2438 2328 
Q 2438 2859 1894 2859 
Q 1475 2859 909 2606 
L 594 3250 
Q 1197 3566 1931 3566 
Q 2634 3566 3009 3259 
Q 3384 2953 3384 2328 
L 3384 0 
L 2719 0 
z
M 2438 1619 
L 2069 1606 
Q 1653 1594 1450 1456 
Q 1247 1319 1247 1038 
Q 1247 634 1709 634 
Q 2041 634 2239 825 
Q 2438 1016 2438 1331 
L 2438 1619 
z
" transform="scale(0.015625)"/>
      <path id="OpenSans-Bold-69" d="M 459 4397 
Q 459 4863 978 4863 
Q 1497 4863 1497 4397 
Q 1497 4175 1367 4051 
Q 1238 3928 978 3928 
Q 459 3928 459 4397 
z
M 1453 0 
L 500 0 
L 500 3494 
L 1453 3494 
L 1453 0 
z
" transform="scale(0.015625)"/>
      <path id="OpenSans-Bold-6e" d="M 3725 0 
L 2772 0 
L 2772 2041 
Q 2772 2419 2637 2608 
Q 2503 2797 2209 2797 
Q 1809 2797 1631 2530 
Q 1453 2263 1453 1644 
L 1453 0 
L 500 0 
L 500 3494 
L 1228 3494 
L 1356 3047 
L 1409 3047 
Q 1569 3300 1848 3429 
Q 2128 3559 2484 3559 
Q 3094 3559 3409 3229 
Q 3725 2900 3725 2278 
L 3725 0 
z
" transform="scale(0.015625)"/>
      <path id="OpenSans-Bold-73" d="M 2938 1038 
Q 2938 500 2564 218 
Q 2191 -63 1447 -63 
Q 1066 -63 797 -11 
Q 528 41 294 141 
L 294 928 
Q 559 803 892 718 
Q 1225 634 1478 634 
Q 1997 634 1997 934 
Q 1997 1047 1928 1117 
Q 1859 1188 1690 1277 
Q 1522 1366 1241 1484 
Q 838 1653 648 1797 
Q 459 1941 373 2127 
Q 288 2313 288 2584 
Q 288 3050 648 3304 
Q 1009 3559 1672 3559 
Q 2303 3559 2900 3284 
L 2613 2597 
Q 2350 2709 2122 2781 
Q 1894 2853 1656 2853 
Q 1234 2853 1234 2625 
Q 1234 2497 1370 2403 
Q 1506 2309 1966 2125 
Q 2375 1959 2565 1815 
Q 2756 1672 2847 1484 
Q 2938 1297 2938 1038 
z
" transform="scale(0.015625)"/>
      <path id="OpenSans-Bold-20" transform="scale(0.015625)"/>
      <path id="OpenSans-Bold-66" d="M 2431 2778 
L 1606 2778 
L 1606 0 
L 653 0 
L 653 2778 
L 128 2778 
L 128 3238 
L 653 3494 
L 653 3750 
Q 653 4347 947 4622 
Q 1241 4897 1888 4897 
Q 2381 4897 2766 4750 
L 2522 4050 
Q 2234 4141 1991 4141 
Q 1788 4141 1697 4020 
Q 1606 3900 1606 3713 
L 1606 3494 
L 2431 3494 
L 2431 2778 
z
" transform="scale(0.015625)"/>
      <path id="OpenSans-Bold-6c" d="M 1453 0 
L 500 0 
L 500 4863 
L 1453 4863 
L 1453 0 
z
" transform="scale(0.015625)"/>
      <path id="OpenSans-Bold-74" d="M 1972 697 
Q 2222 697 2572 806 
L 2572 97 
Q 2216 -63 1697 -63 
Q 1125 -63 864 226 
Q 603 516 603 1094 
L 603 2778 
L 147 2778 
L 147 3181 
L 672 3500 
L 947 4238 
L 1556 4238 
L 1556 3494 
L 2534 3494 
L 2534 2778 
L 1556 2778 
L 1556 1094 
Q 1556 891 1670 794 
Q 1784 697 1972 697 
z
" transform="scale(0.015625)"/>
      <path id="OpenSans-Bold-65" d="M 1947 2881 
Q 1644 2881 1472 2689 
Q 1300 2497 1275 2144 
L 2613 2144 
Q 2606 2497 2428 2689 
Q 2250 2881 1947 2881 
z
M 2081 -63 
Q 1238 -63 763 403 
Q 288 869 288 1722 
Q 288 2600 727 3079 
Q 1166 3559 1941 3559 
Q 2681 3559 3093 3137 
Q 3506 2716 3506 1972 
L 3506 1509 
L 1253 1509 
Q 1269 1103 1494 875 
Q 1719 647 2125 647 
Q 2441 647 2722 712 
Q 3003 778 3309 922 
L 3309 184 
Q 3059 59 2775 -2 
Q 2491 -63 2081 -63 
z
" transform="scale(0.015625)"/>
     </defs>
     <use xlink:href="#OpenSans-Bold-67"/>
     <use xlink:href="#OpenSans-Bold-61" transform="translate(56.494141 0)"/>
     <use xlink:href="#OpenSans-Bold-69" transform="translate(116.894531 0)"/>
     <use xlink:href="#OpenSans-Bold-6e" transform="translate(147.412109 0)"/>
     <use xlink:href="#OpenSans-Bold-73" transform="translate(213.134766 0)"/>
     <use xlink:href="#OpenSans-Bold-20" transform="translate(262.841797 0)"/>
     <use xlink:href="#OpenSans-Bold-66" transform="translate(288.818359 0)"/>
     <use xlink:href="#OpenSans-Bold-6c" transform="translate(327.539062 0)"/>
     <use xlink:href="#OpenSans-Bold-61" transform="translate(358.056641 0)"/>
     <use xlink:href="#OpenSans-Bold-74" transform="translate(418.457031 0)"/>
     <use xlink:href="#OpenSans-Bold-74" transform="translate(461.865234 0)"/>
     <use xlink:href="#OpenSans-Bold-65" transform="translate(505.273438 0)"/>
     <use xlink:href="#OpenSans-Bold-6e" transform="translate(564.355469 0)"/>
    </g>
    <!-- past ~8B -->
    <g style="fill: #8a98b8" transform="translate(65.423116 70.058086) scale(0.105 -0.105)">
     <defs>
      <path id="OpenSans-Bold-70" d="M 2419 -63 
Q 1803 -63 1453 384 
L 1403 384 
Q 1453 -53 1453 -122 
L 1453 -1538 
L 500 -1538 
L 500 3494 
L 1275 3494 
L 1409 3041 
L 1453 3041 
Q 1788 3559 2444 3559 
Q 3063 3559 3413 3081 
Q 3763 2603 3763 1753 
Q 3763 1194 3598 781 
Q 3434 369 3131 153 
Q 2828 -63 2419 -63 
z
M 2138 2797 
Q 1784 2797 1621 2580 
Q 1459 2363 1453 1863 
L 1453 1759 
Q 1453 1197 1620 953 
Q 1788 709 2150 709 
Q 2791 709 2791 1766 
Q 2791 2281 2633 2539 
Q 2475 2797 2138 2797 
z
" transform="scale(0.015625)"/>
      <path id="OpenSans-Bold-7e" d="M 1006 2100 
Q 834 2100 639 1995 
Q 444 1891 275 1722 
L 275 2444 
Q 597 2784 1075 2784 
Q 1303 2784 1504 2734 
Q 1706 2684 1941 2584 
Q 2344 2413 2650 2413 
Q 2816 2413 3012 2513 
Q 3209 2613 3378 2791 
L 3378 2069 
Q 3063 1728 2578 1728 
Q 2372 1728 2184 1768 
Q 1997 1809 1716 1925 
Q 1306 2100 1006 2100 
z
" transform="scale(0.015625)"/>
     </defs>
     <use xlink:href="#OpenSans-Bold-70"/>
     <use xlink:href="#OpenSans-Bold-61" transform="translate(63.28125 0)"/>
     <use xlink:href="#OpenSans-Bold-73" transform="translate(123.681641 0)"/>
     <use xlink:href="#OpenSans-Bold-74" transform="translate(173.388672 0)"/>
     <use xlink:href="#OpenSans-Bold-20" transform="translate(216.796875 0)"/>
     <use xlink:href="#OpenSans-Bold-7e" transform="translate(242.773438 0)"/>
     <use xlink:href="#OpenSans-Bold-38" transform="translate(299.853516 0)"/>
     <use xlink:href="#OpenSans-Bold-42" transform="translate(356.933594 0)"/>
    </g>
   </g>
   <g id="line2d_12">
    <path d="M 94.325865 151.569225 
L 190.668359 50.89365 
L 287.010854 33.551325 
" clip-path="url(#p628973248a)" style="fill: none; stroke: #c6d1e8; stroke-width: 1.8; stroke-linecap: square"/>
    <defs>
     <path id="m6c83f83d3e" d="M 0 3.5 
C 0.928211 3.5 1.81853 3.131218 2.474874 2.474874 
C 3.131218 1.81853 3.5 0.928211 3.5 0 
C 3.5 -0.928211 3.131218 -1.81853 2.474874 -2.474874 
C 1.81853 -3.131218 0.928211 -3.5 0 -3.5 
C -0.928211 -3.5 -1.81853 -3.131218 -2.474874 -2.474874 
C -3.131218 -1.81853 -3.5 -0.928211 -3.5 0 
C -3.5 0.928211 -3.131218 1.81853 -2.474874 2.474874 
C -1.81853 3.131218 -0.928211 3.5 0 3.5 
z
" style="stroke: #121826; stroke-width: 1.3"/>
    </defs>
    <g clip-path="url(#p628973248a)">
     <use xlink:href="#m6c83f83d3e" x="94.325865" y="151.569225" style="fill: #fbbf77; stroke: #121826; stroke-width: 1.3"/>
     <use xlink:href="#m6c83f83d3e" x="190.668359" y="50.89365" style="fill: #fbbf77; stroke: #121826; stroke-width: 1.3"/>
     <use xlink:href="#m6c83f83d3e" x="287.010854" y="33.551325" style="fill: #fbbf77; stroke: #121826; stroke-width: 1.3"/>
    </g>
   </g>
  </g>
 </g>
 <defs>
  <clipPath id="p628973248a">
   <rect x="53.958359" y="7.2" width="273.42" height="180.18"/>
  </clipPath>
 </defs>
</svg>
