<?xml version="1.0" encoding="utf-8" standalone="no"?>
<!DOCTYPE svg PUBLIC "-//W3C//DTD SVG 1.1//EN"
  "http://www.w3.org/Graphics/SVG/1.1/DTD/svg11.dtd">
<svg xmlns:xlink="http://www.w3.org/1999/xlink" width="370.445156pt" height="224.983516pt" viewBox="0 0 370.445156 224.983516" xmlns="http://www.w3.org/2000/svg" version="1.1">
 <metadata>
  <rdf:RDF xmlns:dc="http://purl.org/dc/elements/1.1/" xmlns:cc="http://creativecommons.org/ns#" xmlns:rdf="http://www.w3.org/1999/02/22-rdf-syntax-ns#">
   <cc:Work>
    <dc:type rdf:resource="http://purl.org/dc/dcmitype/StillImage"/>
    <dc:date>2026-07-13T12:06:21.997986</dc:date>
    <dc:format>image/svg+xml</dc:format>
    <dc:creator>
     <cc:Agent>
      <dc:title>Matplotlib v3.10.9, https://matplotlib.org/</dc:title>
     </cc:Agent>
    </dc:creator>
   </cc:Work>
  </rdf:RDF>
 </metadata>
 <defs>
  <style type="text/css">*{stroke-linejoin: round; stroke-linecap: butt}</style>
 </defs>
 <g id="figure_1">
  <g id="patch_1">
   <path d="M 0 224.983516 
L 370.445156 224.983516 
L 370.445156 0 
L 0 0 
L 0 224.983516 
z
" style="fill: none"/>
  </g>
  <g id="axes_1">
   <g id="patch_2">
    <path d="M 43.066797 187.38 
L 316.486797 187.38 
L 316.486797 7.2 
L 43.066797 7.2 
L 43.066797 187.38 
z
" style="fill: none"/>
   </g>
   <g id="matplotlib.axis_1">
    <g id="xtick_1">
     <g id="line2d_1"/>
     <g id="text_1">
      <!-- A -->
      <g style="fill: #3f3f46" transform="translate(79.862898 200.378047) scale(0.125 -0.125)">
       <defs>
        <path id="OpenSans-Bold-41" d="M 3372 0 
L 3041 1088 
L 1375 1088 
L 1044 0 
L 0 0 
L 1613 4588 
L 2797 4588 
L 4416 0 
L 3372 0 
z
M 2809 1900 
Q 2350 3378 2292 3572 
Q 2234 3766 2209 3878 
Q 2106 3478 1619 1900 
L 2809 1900 
z
" transform="scale(0.015625)"/>
       </defs>
       <use xlink:href="#OpenSans-Bold-41"/>
      </g>
      <!-- Structured -->
      <g style="fill: #3f3f46" transform="translate(50.680281 214.779609) scale(0.125 -0.125)">
       <defs>
        <path id="OpenSans-Bold-53" d="M 3272 1269 
Q 3272 650 2826 293 
Q 2381 -63 1588 -63 
Q 856 -63 294 213 
L 294 1113 
Q 756 906 1076 822 
Q 1397 738 1663 738 
Q 1981 738 2151 859 
Q 2322 981 2322 1222 
Q 2322 1356 2247 1461 
Q 2172 1566 2026 1662 
Q 1881 1759 1434 1972 
Q 1016 2169 806 2350 
Q 597 2531 472 2772 
Q 347 3013 347 3334 
Q 347 3941 758 4287 
Q 1169 4634 1894 4634 
Q 2250 4634 2573 4550 
Q 2897 4466 3250 4313 
L 2938 3559 
Q 2572 3709 2333 3768 
Q 2094 3828 1863 3828 
Q 1588 3828 1441 3700 
Q 1294 3572 1294 3366 
Q 1294 3238 1353 3142 
Q 1413 3047 1542 2958 
Q 1672 2869 2156 2638 
Q 2797 2331 3034 2023 
Q 3272 1716 3272 1269 
z
" transform="scale(0.015625)"/>
        <path id="OpenSans-Bold-74" d="M 1972 697 
Q 2222 697 2572 806 
L 2572 97 
Q 2216 -63 1697 -63 
Q 1125 -63 864 226 
Q 603 516 603 1094 
L 603 2778 
L 147 2778 
L 147 3181 
L 672 3500 
L 947 4238 
L 1556 4238 
L 1556 3494 
L 2534 3494 
L 2534 2778 
L 1556 2778 
L 1556 1094 
Q 1556 891 1670 794 
Q 1784 697 1972 697 
z
" transform="scale(0.015625)"/>
        <path id="OpenSans-Bold-72" d="M 2450 3559 
Q 2644 3559 2772 3531 
L 2700 2638 
Q 2584 2669 2419 2669 
Q 1963 2669 1708 2434 
Q 1453 2200 1453 1778 
L 1453 0 
L 500 0 
L 500 3494 
L 1222 3494 
L 1363 2906 
L 1409 2906 
Q 1572 3200 1848 3379 
Q 2125 3559 2450 3559 
z
" transform="scale(0.015625)"/>
        <path id="OpenSans-Bold-75" d="M 2975 0 
L 2847 447 
L 2797 447 
Q 2644 203 2362 70 
Q 2081 -63 1722 -63 
Q 1106 -63 793 267 
Q 481 597 481 1216 
L 481 3494 
L 1434 3494 
L 1434 1453 
Q 1434 1075 1568 886 
Q 1703 697 1997 697 
Q 2397 697 2575 964 
Q 2753 1231 2753 1850 
L 2753 3494 
L 3706 3494 
L 3706 0 
L 2975 0 
z
" transform="scale(0.015625)"/>
        <path id="OpenSans-Bold-63" d="M 1919 -63 
Q 288 -63 288 1728 
Q 288 2619 731 3089 
Q 1175 3559 2003 3559 
Q 2609 3559 3091 3322 
L 2809 2584 
Q 2584 2675 2390 2733 
Q 2197 2791 2003 2791 
Q 1259 2791 1259 1734 
Q 1259 709 2003 709 
Q 2278 709 2512 782 
Q 2747 856 2981 1013 
L 2981 197 
Q 2750 50 2514 -6 
Q 2278 -63 1919 -63 
z
" transform="scale(0.015625)"/>
        <path id="OpenSans-Bold-65" d="M 1947 2881 
Q 1644 2881 1472 2689 
Q 1300 2497 1275 2144 
L 2613 2144 
Q 2606 2497 2428 2689 
Q 2250 2881 1947 2881 
z
M 2081 -63 
Q 1238 -63 763 403 
Q 288 869 288 1722 
Q 288 2600 727 3079 
Q 1166 3559 1941 3559 
Q 2681 3559 3093 3137 
Q 3506 2716 3506 1972 
L 3506 1509 
L 1253 1509 
Q 1269 1103 1494 875 
Q 1719 647 2125 647 
Q 2441 647 2722 712 
Q 3003 778 3309 922 
L 3309 184 
Q 3059 59 2775 -2 
Q 2491 -63 2081 -63 
z
" transform="scale(0.015625)"/>
        <path id="OpenSans-Bold-64" d="M 1606 -63 
Q 991 -63 639 415 
Q 288 894 288 1741 
Q 288 2600 645 3079 
Q 1003 3559 1631 3559 
Q 2291 3559 2638 3047 
L 2669 3047 
Q 2597 3438 2597 3744 
L 2597 4863 
L 3553 4863 
L 3553 0 
L 2822 0 
L 2638 453 
L 2597 453 
Q 2272 -63 1606 -63 
z
M 1941 697 
Q 2306 697 2476 909 
Q 2647 1122 2663 1631 
L 2663 1734 
Q 2663 2297 2489 2540 
Q 2316 2784 1925 2784 
Q 1606 2784 1429 2514 
Q 1253 2244 1253 1728 
Q 1253 1213 1431 955 
Q 1609 697 1941 697 
z
" transform="scale(0.015625)"/>
       </defs>
       <use xlink:href="#OpenSans-Bold-53"/>
       <use xlink:href="#OpenSans-Bold-74" transform="translate(55.078125 0)"/>
       <use xlink:href="#OpenSans-Bold-72" transform="translate(98.486328 0)"/>
       <use xlink:href="#OpenSans-Bold-75" transform="translate(143.896484 0)"/>
       <use xlink:href="#OpenSans-Bold-63" transform="translate(209.619141 0)"/>
       <use xlink:href="#OpenSans-Bold-74" transform="translate(261.035156 0)"/>
       <use xlink:href="#OpenSans-Bold-75" transform="translate(304.443359 0)"/>
       <use xlink:href="#OpenSans-Bold-72" transform="translate(370.166016 0)"/>
       <use xlink:href="#OpenSans-Bold-65" transform="translate(413.576172 0)"/>
       <use xlink:href="#OpenSans-Bold-64" transform="translate(472.658203 0)"/>
      </g>
     </g>
    </g>
    <g id="xtick_2">
     <g id="line2d_2"/>
     <g id="text_2">
      <!-- B -->
      <g style="fill: #3f3f46" transform="translate(175.577578 200.378047) scale(0.125 -0.125)">
       <defs>
        <path id="OpenSans-Bold-42" d="M 575 4569 
L 1997 4569 
Q 2969 4569 3408 4292 
Q 3847 4016 3847 3413 
Q 3847 3003 3655 2740 
Q 3463 2478 3144 2425 
L 3144 2394 
Q 3578 2297 3770 2031 
Q 3963 1766 3963 1325 
Q 3963 700 3511 350 
Q 3059 0 2284 0 
L 575 0 
L 575 4569 
z
M 1544 2759 
L 2106 2759 
Q 2500 2759 2676 2881 
Q 2853 3003 2853 3284 
Q 2853 3547 2661 3661 
Q 2469 3775 2053 3775 
L 1544 3775 
L 1544 2759 
z
M 1544 1991 
L 1544 800 
L 2175 800 
Q 2575 800 2765 953 
Q 2956 1106 2956 1422 
Q 2956 1991 2144 1991 
L 1544 1991 
z
" transform="scale(0.015625)"/>
       </defs>
       <use xlink:href="#OpenSans-Bold-42"/>
      </g>
      <!-- Per-constraint -->
      <g style="fill: #3f3f46" transform="translate(135.084414 214.779609) scale(0.125 -0.125)">
       <defs>
        <path id="OpenSans-Bold-50" d="M 1544 2419 
L 1863 2419 
Q 2309 2419 2531 2595 
Q 2753 2772 2753 3109 
Q 2753 3450 2567 3612 
Q 2381 3775 1984 3775 
L 1544 3775 
L 1544 2419 
z
M 3731 3144 
Q 3731 2406 3270 2015 
Q 2809 1625 1959 1625 
L 1544 1625 
L 1544 0 
L 575 0 
L 575 4569 
L 2034 4569 
Q 2866 4569 3298 4211 
Q 3731 3853 3731 3144 
z
" transform="scale(0.015625)"/>
        <path id="OpenSans-Bold-2d" d="M 191 1325 
L 191 2106 
L 1869 2106 
L 1869 1325 
L 191 1325 
z
" transform="scale(0.015625)"/>
        <path id="OpenSans-Bold-6f" d="M 1259 1753 
Q 1259 1234 1429 968 
Q 1600 703 1984 703 
Q 2366 703 2533 967 
Q 2700 1231 2700 1753 
Q 2700 2272 2531 2531 
Q 2363 2791 1978 2791 
Q 1597 2791 1428 2533 
Q 1259 2275 1259 1753 
z
M 3675 1753 
Q 3675 900 3225 418 
Q 2775 -63 1972 -63 
Q 1469 -63 1084 157 
Q 700 378 494 790 
Q 288 1203 288 1753 
Q 288 2609 734 3084 
Q 1181 3559 1991 3559 
Q 2494 3559 2878 3340 
Q 3263 3122 3469 2712 
Q 3675 2303 3675 1753 
z
" transform="scale(0.015625)"/>
        <path id="OpenSans-Bold-6e" d="M 3725 0 
L 2772 0 
L 2772 2041 
Q 2772 2419 2637 2608 
Q 2503 2797 2209 2797 
Q 1809 2797 1631 2530 
Q 1453 2263 1453 1644 
L 1453 0 
L 500 0 
L 500 3494 
L 1228 3494 
L 1356 3047 
L 1409 3047 
Q 1569 3300 1848 3429 
Q 2128 3559 2484 3559 
Q 3094 3559 3409 3229 
Q 3725 2900 3725 2278 
L 3725 0 
z
" transform="scale(0.015625)"/>
        <path id="OpenSans-Bold-73" d="M 2938 1038 
Q 2938 500 2564 218 
Q 2191 -63 1447 -63 
Q 1066 -63 797 -11 
Q 528 41 294 141 
L 294 928 
Q 559 803 892 718 
Q 1225 634 1478 634 
Q 1997 634 1997 934 
Q 1997 1047 1928 1117 
Q 1859 1188 1690 1277 
Q 1522 1366 1241 1484 
Q 838 1653 648 1797 
Q 459 1941 373 2127 
Q 288 2313 288 2584 
Q 288 3050 648 3304 
Q 1009 3559 1672 3559 
Q 2303 3559 2900 3284 
L 2613 2597 
Q 2350 2709 2122 2781 
Q 1894 2853 1656 2853 
Q 1234 2853 1234 2625 
Q 1234 2497 1370 2403 
Q 1506 2309 1966 2125 
Q 2375 1959 2565 1815 
Q 2756 1672 2847 1484 
Q 2938 1297 2938 1038 
z
" transform="scale(0.015625)"/>
        <path id="OpenSans-Bold-61" d="M 2719 0 
L 2534 475 
L 2509 475 
Q 2269 172 2014 54 
Q 1759 -63 1350 -63 
Q 847 -63 558 225 
Q 269 513 269 1044 
Q 269 1600 658 1864 
Q 1047 2128 1831 2156 
L 2438 2175 
L 2438 2328 
Q 2438 2859 1894 2859 
Q 1475 2859 909 2606 
L 594 3250 
Q 1197 3566 1931 3566 
Q 2634 3566 3009 3259 
Q 3384 2953 3384 2328 
L 3384 0 
L 2719 0 
z
M 2438 1619 
L 2069 1606 
Q 1653 1594 1450 1456 
Q 1247 1319 1247 1038 
Q 1247 634 1709 634 
Q 2041 634 2239 825 
Q 2438 1016 2438 1331 
L 2438 1619 
z
" transform="scale(0.015625)"/>
        <path id="OpenSans-Bold-69" d="M 459 4397 
Q 459 4863 978 4863 
Q 1497 4863 1497 4397 
Q 1497 4175 1367 4051 
Q 1238 3928 978 3928 
Q 459 3928 459 4397 
z
M 1453 0 
L 500 0 
L 500 3494 
L 1453 3494 
L 1453 0 
z
" transform="scale(0.015625)"/>
       </defs>
       <use xlink:href="#OpenSans-Bold-50"/>
       <use xlink:href="#OpenSans-Bold-65" transform="translate(62.792969 0)"/>
       <use xlink:href="#OpenSans-Bold-72" transform="translate(121.875 0)"/>
       <use xlink:href="#OpenSans-Bold-2d" transform="translate(167.285156 0)"/>
       <use xlink:href="#OpenSans-Bold-63" transform="translate(199.462891 0)"/>
       <use xlink:href="#OpenSans-Bold-6f" transform="translate(250.878906 0)"/>
       <use xlink:href="#OpenSans-Bold-6e" transform="translate(312.792969 0)"/>
       <use xlink:href="#OpenSans-Bold-73" transform="translate(378.515625 0)"/>
       <use xlink:href="#OpenSans-Bold-74" transform="translate(428.222656 0)"/>
       <use xlink:href="#OpenSans-Bold-72" transform="translate(471.630859 0)"/>
       <use xlink:href="#OpenSans-Bold-61" transform="translate(515.041016 0)"/>
       <use xlink:href="#OpenSans-Bold-69" transform="translate(575.441406 0)"/>
       <use xlink:href="#OpenSans-Bold-6e" transform="translate(605.958984 0)"/>
       <use xlink:href="#OpenSans-Bold-74" transform="translate(671.681641 0)"/>
      </g>
     </g>
    </g>
    <g id="xtick_3">
     <g id="line2d_3"/>
     <g id="text_3">
      <!-- C -->
      <g style="fill: #3f3f46" transform="translate(271.395774 200.378047) scale(0.125 -0.125)">
       <defs>
        <path id="OpenSans-Bold-43" d="M 2516 3828 
Q 1969 3828 1669 3417 
Q 1369 3006 1369 2272 
Q 1369 744 2516 744 
Q 2997 744 3681 984 
L 3681 172 
Q 3119 -63 2425 -63 
Q 1428 -63 900 542 
Q 372 1147 372 2278 
Q 372 2991 631 3527 
Q 891 4063 1377 4348 
Q 1863 4634 2516 4634 
Q 3181 4634 3853 4313 
L 3541 3525 
Q 3284 3647 3025 3737 
Q 2766 3828 2516 3828 
z
" transform="scale(0.015625)"/>
       </defs>
       <use xlink:href="#OpenSans-Bold-43"/>
      </g>
      <!-- Raw Turtle -->
      <g style="fill: #3f3f46" transform="translate(241.938742 214.779609) scale(0.125 -0.125)">
       <defs>
        <path id="OpenSans-Bold-52" d="M 1544 2541 
L 1856 2541 
Q 2316 2541 2534 2694 
Q 2753 2847 2753 3175 
Q 2753 3500 2529 3637 
Q 2306 3775 1838 3775 
L 1544 3775 
L 1544 2541 
z
M 1544 1753 
L 1544 0 
L 575 0 
L 575 4569 
L 1906 4569 
Q 2838 4569 3284 4230 
Q 3731 3891 3731 3200 
Q 3731 2797 3509 2483 
Q 3288 2169 2881 1991 
Q 3913 450 4225 0 
L 3150 0 
L 2059 1753 
L 1544 1753 
z
" transform="scale(0.015625)"/>
        <path id="OpenSans-Bold-77" d="M 3372 0 
L 3103 1222 
L 2741 2766 
L 2719 2766 
L 2081 0 
L 1056 0 
L 63 3494 
L 1013 3494 
L 1416 1947 
Q 1513 1531 1613 800 
L 1631 800 
Q 1644 1038 1741 1553 
L 1791 1819 
L 2222 3494 
L 3272 3494 
L 3681 1819 
Q 3694 1750 3720 1615 
Q 3747 1481 3772 1329 
Q 3797 1178 3817 1033 
Q 3838 888 3841 800 
L 3859 800 
Q 3888 1025 3959 1417 
Q 4031 1809 4063 1947 
L 4481 3494 
L 5416 3494 
L 4409 0 
L 3372 0 
z
" transform="scale(0.015625)"/>
        <path id="OpenSans-Bold-20" transform="scale(0.015625)"/>
        <path id="OpenSans-Bold-54" d="M 2338 0 
L 1369 0 
L 1369 3763 
L 128 3763 
L 128 4569 
L 3578 4569 
L 3578 3763 
L 2338 3763 
L 2338 0 
z
" transform="scale(0.015625)"/>
        <path id="OpenSans-Bold-6c" d="M 1453 0 
L 500 0 
L 500 4863 
L 1453 4863 
L 1453 0 
z
" transform="scale(0.015625)"/>
       </defs>
       <use xlink:href="#OpenSans-Bold-52"/>
       <use xlink:href="#OpenSans-Bold-61" transform="translate(66.015625 0)"/>
       <use xlink:href="#OpenSans-Bold-77" transform="translate(126.416016 0)"/>
       <use xlink:href="#OpenSans-Bold-20" transform="translate(212.011719 0)"/>
       <use xlink:href="#OpenSans-Bold-54" transform="translate(237.988281 0)"/>
       <use xlink:href="#OpenSans-Bold-75" transform="translate(290.898438 0)"/>
       <use xlink:href="#OpenSans-Bold-72" transform="translate(356.621094 0)"/>
       <use xlink:href="#OpenSans-Bold-74" transform="translate(402.03125 0)"/>
       <use xlink:href="#OpenSans-Bold-6c" transform="translate(445.439453 0)"/>
       <use xlink:href="#OpenSans-Bold-65" transform="translate(475.957031 0)"/>
      </g>
     </g>
    </g>
   </g>
   <g id="matplotlib.axis_2">
    <g id="ytick_1">
     <g id="line2d_4">
      <path d="M 43.066797 187.38 
L 316.486797 187.38 
" clip-path="url(#pb8aa92c6a6)" style="fill: none; stroke: #1f2933; stroke-opacity: 0.1; stroke-width: 0.8; stroke-linecap: square"/>
     </g>
     <g id="line2d_5"/>
     <g id="text_4">
      <!-- 0 -->
      <g style="fill: #6b7a8d" transform="translate(32.134453 192.318984) scale(0.13 -0.13)">
       <defs>
        <path id="OpenSans-30" d="M 3341 2291 
Q 3341 1106 2967 521 
Q 2594 -63 1825 -63 
Q 1088 -63 703 535 
Q 319 1134 319 2291 
Q 319 3484 691 4062 
Q 1063 4641 1825 4641 
Q 2569 4641 2955 4037 
Q 3341 3434 3341 2291 
z
M 844 2291 
Q 844 1294 1078 839 
Q 1313 384 1825 384 
Q 2344 384 2576 845 
Q 2809 1306 2809 2291 
Q 2809 3275 2576 3733 
Q 2344 4191 1825 4191 
Q 1313 4191 1078 3739 
Q 844 3288 844 2291 
z
" transform="scale(0.015625)"/>
       </defs>
       <use xlink:href="#OpenSans-30"/>
      </g>
     </g>
    </g>
    <g id="ytick_2">
     <g id="line2d_6">
      <path d="M 43.066797 118.08 
L 316.486797 118.08 
" clip-path="url(#pb8aa92c6a6)" style="fill: none; stroke: #1f2933; stroke-opacity: 0.1; stroke-width: 0.8; stroke-linecap: square"/>
     </g>
     <g id="line2d_7"/>
     <g id="text_5">
      <!-- 10 -->
      <g style="fill: #6b7a8d" transform="translate(24.702109 123.018984) scale(0.13 -0.13)">
       <defs>
        <path id="OpenSans-31" d="M 2234 0 
L 1728 0 
L 1728 3256 
Q 1728 3663 1753 4025 
Q 1688 3959 1606 3887 
Q 1525 3816 863 3278 
L 588 3634 
L 1797 4569 
L 2234 4569 
L 2234 0 
z
" transform="scale(0.015625)"/>
       </defs>
       <use xlink:href="#OpenSans-31"/>
       <use xlink:href="#OpenSans-30" transform="translate(57.177734 0)"/>
      </g>
     </g>
    </g>
    <g id="ytick_3">
     <g id="line2d_8">
      <path d="M 43.066797 48.78 
L 316.486797 48.78 
" clip-path="url(#pb8aa92c6a6)" style="fill: none; stroke: #1f2933; stroke-opacity: 0.1; stroke-width: 0.8; stroke-linecap: square"/>
     </g>
     <g id="line2d_9"/>
     <g id="text_6">
      <!-- 20 -->
      <g style="fill: #6b7a8d" transform="translate(24.702109 53.718984) scale(0.13 -0.13)">
       <defs>
        <path id="OpenSans-32" d="M 3316 0 
L 313 0 
L 313 447 
L 1516 1656 
Q 2066 2213 2241 2450 
Q 2416 2688 2503 2913 
Q 2591 3138 2591 3397 
Q 2591 3763 2369 3977 
Q 2147 4191 1753 4191 
Q 1469 4191 1214 4097 
Q 959 4003 647 3756 
L 372 4109 
Q 1003 4634 1747 4634 
Q 2391 4634 2756 4304 
Q 3122 3975 3122 3419 
Q 3122 2984 2878 2559 
Q 2634 2134 1966 1484 
L 966 506 
L 966 481 
L 3316 481 
L 3316 0 
z
" transform="scale(0.015625)"/>
       </defs>
       <use xlink:href="#OpenSans-32"/>
       <use xlink:href="#OpenSans-30" transform="translate(57.177734 0)"/>
      </g>
     </g>
    </g>
    <g id="text_7">
     <!-- cost per 1,000  (USD) -->
     <g style="fill: #6b7a8d" transform="translate(17.457891 163.882969) rotate(-90) scale(0.135 -0.135)">
      <defs>
       <path id="OpenSans-Semibold-63" d="M 1919 -63 
Q 1134 -63 726 395 
Q 319 853 319 1709 
Q 319 2581 745 3050 
Q 1172 3519 1978 3519 
Q 2525 3519 2963 3316 
L 2741 2725 
Q 2275 2906 1972 2906 
Q 1075 2906 1075 1716 
Q 1075 1134 1298 842 
Q 1522 550 1953 550 
Q 2444 550 2881 794 
L 2881 153 
Q 2684 38 2461 -12 
Q 2238 -63 1919 -63 
z
" transform="scale(0.015625)"/>
       <path id="OpenSans-Semibold-6f" d="M 3591 1734 
Q 3591 888 3156 412 
Q 2722 -63 1947 -63 
Q 1463 -63 1091 156 
Q 719 375 519 784 
Q 319 1194 319 1734 
Q 319 2575 750 3047 
Q 1181 3519 1966 3519 
Q 2716 3519 3153 3036 
Q 3591 2553 3591 1734 
z
M 1075 1734 
Q 1075 538 1959 538 
Q 2834 538 2834 1734 
Q 2834 2919 1953 2919 
Q 1491 2919 1283 2612 
Q 1075 2306 1075 1734 
z
" transform="scale(0.015625)"/>
       <path id="OpenSans-Semibold-73" d="M 2847 984 
Q 2847 478 2478 207 
Q 2109 -63 1422 -63 
Q 731 -63 313 147 
L 313 781 
Q 922 500 1447 500 
Q 2125 500 2125 909 
Q 2125 1041 2050 1128 
Q 1975 1216 1803 1309 
Q 1631 1403 1325 1522 
Q 728 1753 517 1984 
Q 306 2216 306 2584 
Q 306 3028 664 3273 
Q 1022 3519 1638 3519 
Q 2247 3519 2791 3272 
L 2553 2719 
Q 1994 2950 1613 2950 
Q 1031 2950 1031 2619 
Q 1031 2456 1182 2343 
Q 1334 2231 1844 2034 
Q 2272 1869 2465 1731 
Q 2659 1594 2753 1414 
Q 2847 1234 2847 984 
z
" transform="scale(0.015625)"/>
       <path id="OpenSans-Semibold-74" d="M 1813 531 
Q 2081 531 2350 616 
L 2350 63 
Q 2228 9 2036 -27 
Q 1844 -63 1638 -63 
Q 594 -63 594 1038 
L 594 2900 
L 122 2900 
L 122 3225 
L 628 3494 
L 878 4225 
L 1331 4225 
L 1331 3456 
L 2316 3456 
L 2316 2900 
L 1331 2900 
L 1331 1050 
Q 1331 784 1464 657 
Q 1597 531 1813 531 
z
" transform="scale(0.015625)"/>
       <path id="OpenSans-Semibold-20" transform="scale(0.015625)"/>
       <path id="OpenSans-Semibold-70" d="M 2278 -63 
Q 1622 -63 1259 409 
L 1216 409 
Q 1259 -28 1259 -122 
L 1259 -1538 
L 525 -1538 
L 525 3456 
L 1119 3456 
Q 1144 3359 1222 2994 
L 1259 2994 
Q 1603 3519 2291 3519 
Q 2938 3519 3298 3050 
Q 3659 2581 3659 1734 
Q 3659 888 3292 412 
Q 2925 -63 2278 -63 
z
M 2100 2919 
Q 1663 2919 1461 2662 
Q 1259 2406 1259 1844 
L 1259 1734 
Q 1259 1103 1459 820 
Q 1659 538 2113 538 
Q 2494 538 2700 850 
Q 2906 1163 2906 1741 
Q 2906 2322 2701 2620 
Q 2497 2919 2100 2919 
z
" transform="scale(0.015625)"/>
       <path id="OpenSans-Semibold-65" d="M 2034 -63 
Q 1228 -63 773 407 
Q 319 878 319 1703 
Q 319 2550 741 3034 
Q 1163 3519 1900 3519 
Q 2584 3519 2981 3103 
Q 3378 2688 3378 1959 
L 3378 1563 
L 1075 1563 
Q 1091 1059 1347 789 
Q 1603 519 2069 519 
Q 2375 519 2639 576 
Q 2903 634 3206 769 
L 3206 172 
Q 2938 44 2663 -9 
Q 2388 -63 2034 -63 
z
M 1900 2963 
Q 1550 2963 1339 2741 
Q 1128 2519 1088 2094 
L 2656 2094 
Q 2650 2522 2450 2742 
Q 2250 2963 1900 2963 
z
" transform="scale(0.015625)"/>
       <path id="OpenSans-Semibold-72" d="M 2278 3519 
Q 2500 3519 2644 3488 
L 2572 2803 
Q 2416 2841 2247 2841 
Q 1806 2841 1532 2553 
Q 1259 2266 1259 1806 
L 1259 0 
L 525 0 
L 525 3456 
L 1100 3456 
L 1197 2847 
L 1234 2847 
Q 1406 3156 1682 3337 
Q 1959 3519 2278 3519 
z
" transform="scale(0.015625)"/>
       <path id="OpenSans-Semibold-31" d="M 2438 0 
L 1703 0 
L 1703 2950 
Q 1703 3478 1728 3788 
Q 1656 3713 1551 3622 
Q 1447 3531 850 3047 
L 481 3513 
L 1825 4569 
L 2438 4569 
L 2438 0 
z
" transform="scale(0.015625)"/>
       <path id="OpenSans-Semibold-2c" d="M 1288 672 
Q 1138 91 738 -825 
L 197 -825 
Q 413 19 519 744 
L 1241 744 
L 1288 672 
z
" transform="scale(0.015625)"/>
       <path id="OpenSans-Semibold-30" d="M 3378 2284 
Q 3378 1094 2995 515 
Q 2613 -63 1825 -63 
Q 1063 -63 669 534 
Q 275 1131 275 2284 
Q 275 3494 658 4067 
Q 1041 4641 1825 4641 
Q 2591 4641 2984 4041 
Q 3378 3441 3378 2284 
z
M 1019 2284 
Q 1019 1350 1211 950 
Q 1403 550 1825 550 
Q 2247 550 2442 956 
Q 2638 1363 2638 2284 
Q 2638 3203 2442 3614 
Q 2247 4025 1825 4025 
Q 1403 4025 1211 3622 
Q 1019 3219 1019 2284 
z
" transform="scale(0.015625)"/>
       <path id="OpenSans-Semibold-28" d="M 256 1753 
Q 256 2581 498 3303 
Q 741 4025 1197 4569 
L 1838 4569 
Q 1403 3981 1172 3251 
Q 941 2522 941 1759 
Q 941 997 1172 281 
Q 1403 -434 1831 -1013 
L 1197 -1013 
Q 738 -481 497 228 
Q 256 938 256 1753 
z
" transform="scale(0.015625)"/>
       <path id="OpenSans-Semibold-55" d="M 4184 4569 
L 4184 1613 
Q 4184 1106 3967 726 
Q 3750 347 3339 142 
Q 2928 -63 2356 -63 
Q 1506 -63 1034 387 
Q 563 838 563 1625 
L 563 4569 
L 1313 4569 
L 1313 1678 
Q 1313 1113 1575 844 
Q 1838 575 2381 575 
Q 3438 575 3438 1684 
L 3438 4569 
L 4184 4569 
z
" transform="scale(0.015625)"/>
       <path id="OpenSans-Semibold-53" d="M 3238 1241 
Q 3238 631 2797 284 
Q 2356 -63 1581 -63 
Q 806 -63 313 178 
L 313 884 
Q 625 738 976 653 
Q 1328 569 1631 569 
Q 2075 569 2286 737 
Q 2497 906 2497 1191 
Q 2497 1447 2303 1625 
Q 2109 1803 1503 2047 
Q 878 2300 622 2625 
Q 366 2950 366 3406 
Q 366 3978 772 4306 
Q 1178 4634 1863 4634 
Q 2519 4634 3169 4347 
L 2931 3738 
Q 2322 3994 1844 3994 
Q 1481 3994 1293 3836 
Q 1106 3678 1106 3419 
Q 1106 3241 1181 3114 
Q 1256 2988 1428 2875 
Q 1600 2763 2047 2578 
Q 2550 2369 2784 2187 
Q 3019 2006 3128 1778 
Q 3238 1550 3238 1241 
z
" transform="scale(0.015625)"/>
       <path id="OpenSans-Semibold-44" d="M 4319 2328 
Q 4319 1197 3691 598 
Q 3063 0 1881 0 
L 603 0 
L 603 4569 
L 2016 4569 
Q 3106 4569 3712 3981 
Q 4319 3394 4319 2328 
z
M 3531 2303 
Q 3531 3944 1997 3944 
L 1350 3944 
L 1350 628 
L 1881 628 
Q 3531 628 3531 2303 
z
" transform="scale(0.015625)"/>
       <path id="OpenSans-Semibold-29" d="M 1772 1753 
Q 1772 931 1530 221 
Q 1288 -488 831 -1013 
L 197 -1013 
Q 628 -428 858 284 
Q 1088 997 1088 1759 
Q 1088 2525 856 3251 
Q 625 3978 191 4569 
L 831 4569 
Q 1291 4022 1531 3298 
Q 1772 2575 1772 1753 
z
" transform="scale(0.015625)"/>
      </defs>
      <use xlink:href="#OpenSans-Semibold-63"/>
      <use xlink:href="#OpenSans-Semibold-6f" transform="translate(49.511719 0)"/>
      <use xlink:href="#OpenSans-Semibold-73" transform="translate(110.595703 0)"/>
      <use xlink:href="#OpenSans-Semibold-74" transform="translate(159.277344 0)"/>
      <use xlink:href="#OpenSans-Semibold-20" transform="translate(198.583984 0)"/>
      <use xlink:href="#OpenSans-Semibold-70" transform="translate(224.560547 0)"/>
      <use xlink:href="#OpenSans-Semibold-65" transform="translate(286.865234 0)"/>
      <use xlink:href="#OpenSans-Semibold-72" transform="translate(344.482422 0)"/>
      <use xlink:href="#OpenSans-Semibold-20" transform="translate(387.597656 0)"/>
      <use xlink:href="#OpenSans-Semibold-31" transform="translate(413.574219 0)"/>
      <use xlink:href="#OpenSans-Semibold-2c" transform="translate(470.654297 0)"/>
      <use xlink:href="#OpenSans-Semibold-30" transform="translate(497.363281 0)"/>
      <use xlink:href="#OpenSans-Semibold-30" transform="translate(554.443359 0)"/>
      <use xlink:href="#OpenSans-Semibold-30" transform="translate(611.523438 0)"/>
      <use xlink:href="#OpenSans-Semibold-20" transform="translate(668.603516 0)"/>
      <use xlink:href="#OpenSans-Semibold-20" transform="translate(694.580078 0)"/>
      <use xlink:href="#OpenSans-Semibold-28" transform="translate(720.556641 0)"/>
      <use xlink:href="#OpenSans-Semibold-55" transform="translate(752.246094 0)"/>
      <use xlink:href="#OpenSans-Semibold-53" transform="translate(826.464844 0)"/>
      <use xlink:href="#OpenSans-Semibold-44" transform="translate(881.445312 0)"/>
      <use xlink:href="#OpenSans-Semibold-29" transform="translate(954.833984 0)"/>
     </g>
    </g>
   </g>
   <g id="patch_3">
    <path d="M 43.066797 187.38 
L 43.066797 7.2 
" style="fill: none; opacity: 0.3; stroke: #1f2933; stroke-linejoin: miter; stroke-linecap: square"/>
   </g>
   <g id="patch_4">
    <path d="M 316.486797 187.38 
L 316.486797 7.2 
" style="fill: none; opacity: 0.3; stroke: #1f2933; stroke-linejoin: miter; stroke-linecap: square"/>
   </g>
   <g id="patch_5">
    <path d="M 43.066797 187.38 
L 316.486797 187.38 
" style="fill: none; opacity: 0.3; stroke: #1f2933; stroke-linejoin: miter; stroke-linecap: square"/>
   </g>
   <g id="patch_6">
    <path d="M 55.494979 187.38 
L 112.855818 187.38 
L 112.855818 171.303982 
L 55.494979 171.303982 
z
" clip-path="url(#pb8aa92c6a6)" style="fill: #0065bd; stroke: #ffffff; stroke-width: 1.4; stroke-linejoin: miter"/>
   </g>
   <g id="patch_7">
    <path d="M 151.096377 187.38 
L 208.457216 187.38 
L 208.457216 40.396442 
L 151.096377 40.396442 
z
" clip-path="url(#pb8aa92c6a6)" style="fill: #c0392b; stroke: #ffffff; stroke-width: 1.4; stroke-linejoin: miter"/>
   </g>
   <g id="patch_8">
    <path d="M 246.697776 187.38 
L 304.058615 187.38 
L 304.058615 173.281912 
L 246.697776 173.281912 
z
" clip-path="url(#pb8aa92c6a6)" style="fill: #e3720f; stroke: #ffffff; stroke-width: 1.4; stroke-linejoin: miter"/>
   </g>
   <g id="text_8">
    <!-- $2.32 -->
    <g style="fill: #1f2933" transform="translate(67.062117 165.061419) scale(0.13 -0.13)">
     <defs>
      <path id="OpenSans-Extrabold-24" d="M 1575 213 
Q 891 244 256 519 
L 256 1556 
Q 619 1372 1044 1248 
Q 1469 1125 1791 1125 
Q 2056 1125 2179 1189 
Q 2303 1253 2303 1403 
Q 2303 1506 2214 1578 
Q 2125 1650 1917 1740 
Q 1709 1831 1356 1959 
Q 959 2106 715 2289 
Q 472 2472 361 2698 
Q 250 2925 250 3263 
Q 250 3778 581 4068 
Q 913 4359 1575 4428 
L 1575 4856 
L 2222 4856 
L 2222 4434 
Q 2844 4400 3475 4128 
L 3103 3238 
Q 2450 3531 1925 3531 
Q 1675 3531 1573 3470 
Q 1472 3409 1472 3291 
Q 1472 3188 1545 3120 
Q 1619 3053 1800 2970 
Q 1981 2888 2303 2778 
Q 2956 2547 3240 2251 
Q 3525 1956 3525 1491 
Q 3525 966 3192 637 
Q 2859 309 2222 231 
L 2222 -372 
L 1575 -372 
L 1575 213 
z
M 1916 4569 
L 1916 4569 
z
" transform="scale(0.015625)"/>
      <path id="OpenSans-Extrabold-32" d="M 3506 0 
L 191 0 
L 191 813 
L 1306 1941 
Q 1784 2441 1931 2623 
Q 2078 2806 2136 2937 
Q 2194 3069 2194 3213 
Q 2194 3391 2078 3494 
Q 1963 3597 1753 3597 
Q 1538 3597 1317 3473 
Q 1097 3350 819 3109 
L 141 3903 
Q 494 4219 734 4355 
Q 975 4491 1258 4562 
Q 1541 4634 1894 4634 
Q 2338 4634 2686 4478 
Q 3034 4322 3226 4033 
Q 3419 3744 3419 3384 
Q 3419 3116 3351 2887 
Q 3284 2659 3143 2439 
Q 3003 2219 2770 1975 
Q 2538 1731 1778 1050 
L 1778 1019 
L 3506 1019 
L 3506 0 
z
" transform="scale(0.015625)"/>
      <path id="OpenSans-Extrabold-2e" d="M 269 519 
Q 269 806 439 962 
Q 609 1119 934 1119 
Q 1244 1119 1409 962 
Q 1575 806 1575 519 
Q 1575 238 1404 80 
Q 1234 -78 934 -78 
Q 625 -78 447 78 
Q 269 234 269 519 
z
" transform="scale(0.015625)"/>
      <path id="OpenSans-Extrabold-33" d="M 3353 3578 
Q 3353 3153 3093 2848 
Q 2834 2544 2344 2406 
L 2344 2388 
Q 3488 2244 3488 1306 
Q 3488 669 2983 303 
Q 2478 -63 1581 -63 
Q 1213 -63 898 -9 
Q 584 44 219 184 
L 219 1209 
Q 519 1056 830 982 
Q 1141 909 1403 909 
Q 1809 909 1995 1023 
Q 2181 1138 2181 1381 
Q 2181 1569 2084 1670 
Q 1988 1772 1772 1823 
Q 1556 1875 1209 1875 
L 928 1875 
L 928 2803 
L 1216 2803 
Q 2156 2803 2156 3284 
Q 2156 3466 2017 3553 
Q 1878 3641 1644 3641 
Q 1206 3641 738 3347 
L 225 4172 
Q 588 4422 967 4528 
Q 1347 4634 1838 4634 
Q 2547 4634 2950 4353 
Q 3353 4072 3353 3578 
z
" transform="scale(0.015625)"/>
     </defs>
     <use xlink:href="#OpenSans-Extrabold-24"/>
     <use xlink:href="#OpenSans-Extrabold-32" transform="translate(58.59375 0)"/>
     <use xlink:href="#OpenSans-Extrabold-2e" transform="translate(117.1875 0)"/>
     <use xlink:href="#OpenSans-Extrabold-33" transform="translate(146.09375 0)"/>
     <use xlink:href="#OpenSans-Extrabold-32" transform="translate(204.6875 0)"/>
    </g>
   </g>
   <g id="text_9">
    <!-- $21.21 -->
    <g style="fill: #c0392b" transform="translate(158.854922 34.153879) scale(0.13 -0.13)">
     <defs>
      <path id="OpenSans-Extrabold-31" d="M 2944 0 
L 1691 0 
L 1691 2419 
Q 1691 2859 1709 3225 
Q 1594 3084 1422 2931 
L 903 2503 
L 263 3291 
L 1831 4569 
L 2944 4569 
L 2944 0 
z
" transform="scale(0.015625)"/>
     </defs>
     <use xlink:href="#OpenSans-Extrabold-24"/>
     <use xlink:href="#OpenSans-Extrabold-32" transform="translate(58.59375 0)"/>
     <use xlink:href="#OpenSans-Extrabold-31" transform="translate(117.1875 0)"/>
     <use xlink:href="#OpenSans-Extrabold-2e" transform="translate(175.78125 0)"/>
     <use xlink:href="#OpenSans-Extrabold-32" transform="translate(204.6875 0)"/>
     <use xlink:href="#OpenSans-Extrabold-31" transform="translate(263.28125 0)"/>
    </g>
   </g>
   <g id="text_10">
    <!-- $2.03 -->
    <g style="fill: #1f2933" transform="translate(258.264914 167.039349) scale(0.13 -0.13)">
     <defs>
      <path id="OpenSans-Extrabold-30" d="M 3525 2278 
Q 3525 1066 3119 501 
Q 2713 -63 1875 -63 
Q 1056 -63 640 526 
Q 225 1116 225 2278 
Q 225 3497 631 4065 
Q 1038 4634 1875 4634 
Q 2691 4634 3108 4042 
Q 3525 3450 3525 2278 
z
M 1453 2278 
Q 1453 1503 1550 1212 
Q 1647 922 1875 922 
Q 2106 922 2201 1222 
Q 2297 1522 2297 2278 
Q 2297 3038 2200 3342 
Q 2103 3647 1875 3647 
Q 1647 3647 1550 3353 
Q 1453 3059 1453 2278 
z
" transform="scale(0.015625)"/>
     </defs>
     <use xlink:href="#OpenSans-Extrabold-24"/>
     <use xlink:href="#OpenSans-Extrabold-32" transform="translate(58.59375 0)"/>
     <use xlink:href="#OpenSans-Extrabold-2e" transform="translate(117.1875 0)"/>
     <use xlink:href="#OpenSans-Extrabold-30" transform="translate(146.09375 0)"/>
     <use xlink:href="#OpenSans-Extrabold-33" transform="translate(204.6875 0)"/>
    </g>
   </g>
  </g>
  <g id="axes_2">
   <g id="matplotlib.axis_3">
    <g id="ytick_4">
     <g id="line2d_10"/>
     <g id="text_11">
      <!-- 0.82 -->
      <g style="fill: #6b7a8d" transform="translate(319.986797 156.282984) scale(0.13 -0.13)">
       <defs>
        <path id="OpenSans-2e" d="M 475 331 
Q 475 541 570 648 
Q 666 756 844 756 
Q 1025 756 1126 648 
Q 1228 541 1228 331 
Q 1228 128 1125 18 
Q 1022 -91 844 -91 
Q 684 -91 579 7 
Q 475 106 475 331 
z
" transform="scale(0.015625)"/>
        <path id="OpenSans-38" d="M 1825 4634 
Q 2450 4634 2815 4343 
Q 3181 4053 3181 3541 
Q 3181 3203 2972 2925 
Q 2763 2647 2303 2419 
Q 2859 2153 3093 1861 
Q 3328 1569 3328 1184 
Q 3328 616 2931 276 
Q 2534 -63 1844 -63 
Q 1113 -63 719 257 
Q 325 578 325 1166 
Q 325 1950 1281 2388 
Q 850 2631 662 2914 
Q 475 3197 475 3547 
Q 475 4044 842 4339 
Q 1209 4634 1825 4634 
z
M 838 1153 
Q 838 778 1098 568 
Q 1359 359 1831 359 
Q 2297 359 2556 578 
Q 2816 797 2816 1178 
Q 2816 1481 2572 1717 
Q 2328 1953 1722 2175 
Q 1256 1975 1047 1733 
Q 838 1491 838 1153 
z
M 1819 4213 
Q 1428 4213 1206 4025 
Q 984 3838 984 3525 
Q 984 3238 1168 3031 
Q 1353 2825 1850 2619 
Q 2297 2806 2483 3022 
Q 2669 3238 2669 3525 
Q 2669 3841 2442 4027 
Q 2216 4213 1819 4213 
z
" transform="scale(0.015625)"/>
       </defs>
       <use xlink:href="#OpenSans-30"/>
       <use xlink:href="#OpenSans-2e" transform="translate(57.177734 0)"/>
       <use xlink:href="#OpenSans-38" transform="translate(83.789062 0)"/>
       <use xlink:href="#OpenSans-32" transform="translate(140.966797 0)"/>
      </g>
     </g>
    </g>
    <g id="ytick_5">
     <g id="line2d_11"/>
     <g id="text_12">
      <!-- 0.85 -->
      <g style="fill: #6b7a8d" transform="translate(319.986797 102.228984) scale(0.13 -0.13)">
       <defs>
        <path id="OpenSans-35" d="M 1741 2791 
Q 2463 2791 2877 2433 
Q 3291 2075 3291 1453 
Q 3291 744 2839 340 
Q 2388 -63 1594 -63 
Q 822 -63 416 184 
L 416 684 
Q 634 544 959 464 
Q 1284 384 1600 384 
Q 2150 384 2454 643 
Q 2759 903 2759 1394 
Q 2759 2350 1588 2350 
Q 1291 2350 794 2259 
L 525 2431 
L 697 4569 
L 2969 4569 
L 2969 4091 
L 1141 4091 
L 1025 2719 
Q 1384 2791 1741 2791 
z
" transform="scale(0.015625)"/>
       </defs>
       <use xlink:href="#OpenSans-30"/>
       <use xlink:href="#OpenSans-2e" transform="translate(57.177734 0)"/>
       <use xlink:href="#OpenSans-38" transform="translate(83.789062 0)"/>
       <use xlink:href="#OpenSans-35" transform="translate(140.966797 0)"/>
      </g>
     </g>
    </g>
    <g id="ytick_6">
     <g id="line2d_12"/>
     <g id="text_13">
      <!-- 0.88 -->
      <g style="fill: #6b7a8d" transform="translate(319.986797 48.174984) scale(0.13 -0.13)">
       <use xlink:href="#OpenSans-30"/>
       <use xlink:href="#OpenSans-2e" transform="translate(57.177734 0)"/>
       <use xlink:href="#OpenSans-38" transform="translate(83.789062 0)"/>
       <use xlink:href="#OpenSans-38" transform="translate(140.966797 0)"/>
      </g>
     </g>
    </g>
    <g id="text_14">
     <!-- quality (BERTScore F1) -->
     <g style="fill: #6b7a8d" transform="translate(360.000938 169.162734) rotate(-90) scale(0.135 -0.135)">
      <defs>
       <path id="OpenSans-Semibold-71" d="M 1894 525 
Q 2356 525 2557 792 
Q 2759 1059 2759 1600 
L 2759 1716 
Q 2759 2356 2551 2637 
Q 2344 2919 1881 2919 
Q 1488 2919 1281 2606 
Q 1075 2294 1075 1709 
Q 1075 525 1894 525 
z
M 1684 -63 
Q 1044 -63 681 407 
Q 319 878 319 1722 
Q 319 2566 687 3042 
Q 1056 3519 1703 3519 
Q 2028 3519 2286 3398 
Q 2544 3278 2747 3003 
L 2772 3003 
L 2853 3456 
L 3463 3456 
L 3463 -1538 
L 2725 -1538 
L 2725 -72 
Q 2725 66 2737 219 
Q 2750 372 2759 453 
L 2719 453 
Q 2394 -63 1684 -63 
z
" transform="scale(0.015625)"/>
       <path id="OpenSans-Semibold-75" d="M 2963 0 
L 2859 453 
L 2822 453 
Q 2669 213 2386 75 
Q 2103 -63 1741 -63 
Q 1113 -63 803 250 
Q 494 563 494 1197 
L 494 3456 
L 1234 3456 
L 1234 1325 
Q 1234 928 1396 729 
Q 1559 531 1906 531 
Q 2369 531 2586 807 
Q 2803 1084 2803 1734 
L 2803 3456 
L 3541 3456 
L 3541 0 
L 2963 0 
z
" transform="scale(0.015625)"/>
       <path id="OpenSans-Semibold-61" d="M 2688 0 
L 2541 481 
L 2516 481 
Q 2266 166 2012 51 
Q 1759 -63 1363 -63 
Q 853 -63 567 212 
Q 281 488 281 991 
Q 281 1525 678 1797 
Q 1075 2069 1888 2094 
L 2484 2113 
L 2484 2297 
Q 2484 2628 2329 2792 
Q 2175 2956 1850 2956 
Q 1584 2956 1340 2878 
Q 1097 2800 872 2694 
L 634 3219 
Q 916 3366 1250 3442 
Q 1584 3519 1881 3519 
Q 2541 3519 2877 3231 
Q 3213 2944 3213 2328 
L 3213 0 
L 2688 0 
z
M 1594 500 
Q 1994 500 2236 723 
Q 2478 947 2478 1350 
L 2478 1650 
L 2034 1631 
Q 1516 1613 1280 1458 
Q 1044 1303 1044 984 
Q 1044 753 1181 626 
Q 1319 500 1594 500 
z
" transform="scale(0.015625)"/>
       <path id="OpenSans-Semibold-6c" d="M 1259 0 
L 525 0 
L 525 4863 
L 1259 4863 
L 1259 0 
z
" transform="scale(0.015625)"/>
       <path id="OpenSans-Semibold-69" d="M 1259 0 
L 525 0 
L 525 3456 
L 1259 3456 
L 1259 0 
z
M 481 4372 
Q 481 4569 589 4675 
Q 697 4781 897 4781 
Q 1091 4781 1198 4675 
Q 1306 4569 1306 4372 
Q 1306 4184 1198 4076 
Q 1091 3969 897 3969 
Q 697 3969 589 4076 
Q 481 4184 481 4372 
z
" transform="scale(0.015625)"/>
       <path id="OpenSans-Semibold-79" d="M 0 3456 
L 800 3456 
L 1503 1497 
Q 1663 1078 1716 709 
L 1741 709 
Q 1769 881 1844 1126 
Q 1919 1372 2638 3456 
L 3431 3456 
L 1953 -459 
Q 1550 -1538 609 -1538 
Q 366 -1538 134 -1484 
L 134 -903 
Q 300 -941 513 -941 
Q 1044 -941 1259 -325 
L 1388 0 
L 0 3456 
z
" transform="scale(0.015625)"/>
       <path id="OpenSans-Semibold-42" d="M 603 4569 
L 1959 4569 
Q 2903 4569 3323 4294 
Q 3744 4019 3744 3425 
Q 3744 3025 3537 2759 
Q 3331 2494 2944 2425 
L 2944 2394 
Q 3425 2303 3651 2036 
Q 3878 1769 3878 1313 
Q 3878 697 3448 348 
Q 3019 0 2253 0 
L 603 0 
L 603 4569 
z
M 1350 2681 
L 2069 2681 
Q 2538 2681 2753 2829 
Q 2969 2978 2969 3334 
Q 2969 3656 2736 3800 
Q 2503 3944 1997 3944 
L 1350 3944 
L 1350 2681 
z
M 1350 2075 
L 1350 628 
L 2144 628 
Q 2613 628 2852 808 
Q 3091 988 3091 1375 
Q 3091 1731 2847 1903 
Q 2603 2075 2106 2075 
L 1350 2075 
z
" transform="scale(0.015625)"/>
       <path id="OpenSans-Semibold-45" d="M 3188 0 
L 603 0 
L 603 4569 
L 3188 4569 
L 3188 3938 
L 1350 3938 
L 1350 2694 
L 3072 2694 
L 3072 2069 
L 1350 2069 
L 1350 634 
L 3188 634 
L 3188 0 
z
" transform="scale(0.015625)"/>
       <path id="OpenSans-Semibold-52" d="M 1350 2444 
L 1869 2444 
Q 2391 2444 2625 2637 
Q 2859 2831 2859 3213 
Q 2859 3600 2606 3769 
Q 2353 3938 1844 3938 
L 1350 3938 
L 1350 2444 
z
M 1350 1825 
L 1350 0 
L 603 0 
L 603 4569 
L 1894 4569 
Q 2778 4569 3203 4237 
Q 3628 3906 3628 3238 
Q 3628 2384 2741 2022 
L 4031 0 
L 3181 0 
L 2088 1825 
L 1350 1825 
z
" transform="scale(0.015625)"/>
       <path id="OpenSans-Semibold-54" d="M 2181 0 
L 1434 0 
L 1434 3928 
L 91 3928 
L 91 4569 
L 3525 4569 
L 3525 3928 
L 2181 3928 
L 2181 0 
z
" transform="scale(0.015625)"/>
       <path id="OpenSans-Semibold-46" d="M 1344 0 
L 603 0 
L 603 4569 
L 3181 4569 
L 3181 3938 
L 1344 3938 
L 1344 2509 
L 3066 2509 
L 3066 1875 
L 1344 1875 
L 1344 0 
z
" transform="scale(0.015625)"/>
      </defs>
      <use xlink:href="#OpenSans-Semibold-71"/>
      <use xlink:href="#OpenSans-Semibold-75" transform="translate(62.304688 0)"/>
      <use xlink:href="#OpenSans-Semibold-61" transform="translate(125.78125 0)"/>
      <use xlink:href="#OpenSans-Semibold-6c" transform="translate(183.789062 0)"/>
      <use xlink:href="#OpenSans-Semibold-69" transform="translate(211.669922 0)"/>
      <use xlink:href="#OpenSans-Semibold-74" transform="translate(239.550781 0)"/>
      <use xlink:href="#OpenSans-Semibold-79" transform="translate(278.857422 0)"/>
      <use xlink:href="#OpenSans-Semibold-20" transform="translate(332.470703 0)"/>
      <use xlink:href="#OpenSans-Semibold-28" transform="translate(358.447266 0)"/>
      <use xlink:href="#OpenSans-Semibold-42" transform="translate(390.136719 0)"/>
      <use xlink:href="#OpenSans-Semibold-45" transform="translate(456.152344 0)"/>
      <use xlink:href="#OpenSans-Semibold-52" transform="translate(511.962891 0)"/>
      <use xlink:href="#OpenSans-Semibold-54" transform="translate(575.878906 0)"/>
      <use xlink:href="#OpenSans-Semibold-53" transform="translate(632.470703 0)"/>
      <use xlink:href="#OpenSans-Semibold-63" transform="translate(687.451172 0)"/>
      <use xlink:href="#OpenSans-Semibold-6f" transform="translate(736.962891 0)"/>
      <use xlink:href="#OpenSans-Semibold-72" transform="translate(798.046875 0)"/>
      <use xlink:href="#OpenSans-Semibold-65" transform="translate(839.162109 0)"/>
      <use xlink:href="#OpenSans-Semibold-20" transform="translate(896.779297 0)"/>
      <use xlink:href="#OpenSans-Semibold-46" transform="translate(922.755859 0)"/>
      <use xlink:href="#OpenSans-Semibold-31" transform="translate(975.978516 0)"/>
      <use xlink:href="#OpenSans-Semibold-29" transform="translate(1033.058594 0)"/>
     </g>
    </g>
   </g>
   <g id="patch_9">
    <path d="M 316.486797 187.38 
L 316.486797 7.2 
" style="fill: none; opacity: 0.3; stroke: #1f2933; stroke-linejoin: miter; stroke-linecap: square"/>
   </g>
   <g id="text_15">
    <!-- 0.869 -->
    <g style="fill: #3f3f46" transform="translate(70.049851 51.269497) scale(0.11 -0.11)">
     <defs>
      <path id="OpenSans-Bold-30" d="M 3425 2284 
Q 3425 1088 3033 512 
Q 2641 -63 1825 -63 
Q 1034 -63 632 531 
Q 231 1125 231 2284 
Q 231 3494 622 4067 
Q 1013 4641 1825 4641 
Q 2616 4641 3020 4041 
Q 3425 3441 3425 2284 
z
M 1191 2284 
Q 1191 1444 1336 1080 
Q 1481 716 1825 716 
Q 2163 716 2313 1084 
Q 2463 1453 2463 2284 
Q 2463 3125 2311 3492 
Q 2159 3859 1825 3859 
Q 1484 3859 1337 3492 
Q 1191 3125 1191 2284 
z
" transform="scale(0.015625)"/>
      <path id="OpenSans-Bold-2e" d="M 366 447 
Q 366 709 506 843 
Q 647 978 916 978 
Q 1175 978 1317 840 
Q 1459 703 1459 447 
Q 1459 200 1315 58 
Q 1172 -84 916 -84 
Q 653 -84 509 55 
Q 366 194 366 447 
z
" transform="scale(0.015625)"/>
      <path id="OpenSans-Bold-38" d="M 1831 4628 
Q 2488 4628 2889 4329 
Q 3291 4031 3291 3525 
Q 3291 3175 3097 2901 
Q 2903 2628 2472 2413 
Q 2984 2138 3207 1839 
Q 3431 1541 3431 1184 
Q 3431 622 2990 279 
Q 2550 -63 1831 -63 
Q 1081 -63 653 256 
Q 225 575 225 1159 
Q 225 1550 433 1853 
Q 641 2156 1100 2388 
Q 709 2634 537 2915 
Q 366 3197 366 3531 
Q 366 4022 772 4325 
Q 1178 4628 1831 4628 
z
M 1119 1216 
Q 1119 947 1306 797 
Q 1494 647 1819 647 
Q 2178 647 2356 801 
Q 2534 956 2534 1209 
Q 2534 1419 2357 1601 
Q 2181 1784 1784 1991 
Q 1119 1684 1119 1216 
z
M 1825 3922 
Q 1578 3922 1426 3795 
Q 1275 3669 1275 3456 
Q 1275 3269 1395 3120 
Q 1516 2972 1831 2816 
Q 2138 2959 2259 3109 
Q 2381 3259 2381 3456 
Q 2381 3672 2225 3797 
Q 2069 3922 1825 3922 
z
" transform="scale(0.015625)"/>
      <path id="OpenSans-Bold-36" d="M 225 1941 
Q 225 3297 798 3959 
Q 1372 4622 2516 4622 
Q 2906 4622 3128 4575 
L 3128 3803 
Q 2850 3866 2578 3866 
Q 2081 3866 1767 3716 
Q 1453 3566 1297 3272 
Q 1141 2978 1113 2438 
L 1153 2438 
Q 1463 2969 2144 2969 
Q 2756 2969 3103 2584 
Q 3450 2200 3450 1522 
Q 3450 791 3037 364 
Q 2625 -63 1894 -63 
Q 1388 -63 1011 171 
Q 634 406 429 856 
Q 225 1306 225 1941 
z
M 1875 709 
Q 2184 709 2350 917 
Q 2516 1125 2516 1509 
Q 2516 1844 2361 2036 
Q 2206 2228 1894 2228 
Q 1600 2228 1392 2037 
Q 1184 1847 1184 1594 
Q 1184 1222 1379 965 
Q 1575 709 1875 709 
z
" transform="scale(0.015625)"/>
      <path id="OpenSans-Bold-39" d="M 3431 2619 
Q 3431 1269 2862 603 
Q 2294 -63 1141 -63 
Q 734 -63 525 -19 
L 525 756 
Q 788 691 1075 691 
Q 1559 691 1871 833 
Q 2184 975 2350 1279 
Q 2516 1584 2541 2119 
L 2503 2119 
Q 2322 1825 2084 1706 
Q 1847 1588 1491 1588 
Q 894 1588 550 1970 
Q 206 2353 206 3034 
Q 206 3769 623 4195 
Q 1041 4622 1759 4622 
Q 2266 4622 2645 4384 
Q 3025 4147 3228 3695 
Q 3431 3244 3431 2619 
z
M 1778 3847 
Q 1478 3847 1309 3640 
Q 1141 3434 1141 3047 
Q 1141 2716 1294 2522 
Q 1447 2328 1759 2328 
Q 2053 2328 2262 2520 
Q 2472 2713 2472 2963 
Q 2472 3334 2276 3590 
Q 2081 3847 1778 3847 
z
" transform="scale(0.015625)"/>
     </defs>
     <use xlink:href="#OpenSans-Bold-30"/>
     <use xlink:href="#OpenSans-Bold-2e" transform="translate(57.080078 0)"/>
     <use xlink:href="#OpenSans-Bold-38" transform="translate(85.595703 0)"/>
     <use xlink:href="#OpenSans-Bold-36" transform="translate(142.675781 0)"/>
     <use xlink:href="#OpenSans-Bold-39" transform="translate(199.755859 0)"/>
    </g>
   </g>
   <g id="text_16">
    <!-- 0.855 -->
    <g style="fill: #3f3f46" transform="translate(165.65125 105.783227) scale(0.11 -0.11)">
     <defs>
      <path id="OpenSans-Bold-35" d="M 1919 2919 
Q 2581 2919 2973 2547 
Q 3366 2175 3366 1528 
Q 3366 763 2894 350 
Q 2422 -63 1544 -63 
Q 781 -63 313 184 
L 313 1019 
Q 559 888 887 805 
Q 1216 722 1509 722 
Q 2394 722 2394 1447 
Q 2394 2138 1478 2138 
Q 1313 2138 1113 2105 
Q 913 2072 788 2034 
L 403 2241 
L 575 4569 
L 3053 4569 
L 3053 3750 
L 1422 3750 
L 1338 2853 
L 1447 2875 
Q 1638 2919 1919 2919 
z
" transform="scale(0.015625)"/>
     </defs>
     <use xlink:href="#OpenSans-Bold-30"/>
     <use xlink:href="#OpenSans-Bold-2e" transform="translate(57.080078 0)"/>
     <use xlink:href="#OpenSans-Bold-38" transform="translate(85.595703 0)"/>
     <use xlink:href="#OpenSans-Bold-35" transform="translate(142.675781 0)"/>
     <use xlink:href="#OpenSans-Bold-35" transform="translate(199.755859 0)"/>
    </g>
   </g>
   <g id="text_17">
    <!-- 0.868 -->
    <g style="fill: #3f3f46" transform="translate(261.252649 53.583177) scale(0.11 -0.11)">
     <use xlink:href="#OpenSans-Bold-30"/>
     <use xlink:href="#OpenSans-Bold-2e" transform="translate(57.080078 0)"/>
     <use xlink:href="#OpenSans-Bold-38" transform="translate(85.595703 0)"/>
     <use xlink:href="#OpenSans-Bold-36" transform="translate(142.675781 0)"/>
     <use xlink:href="#OpenSans-Bold-38" transform="translate(199.755859 0)"/>
    </g>
   </g>
   <g id="text_18">
    <!-- A ≈ C on quality  ·  B costs ~10× more -->
    <g style="fill: #3f3f46" transform="translate(85.446602 20.583759) scale(0.105 -0.105)">
     <defs>
      <path id="OpenSans-Bold-2248" d="M 1006 2740 
Q 834 2740 639 2635 
Q 444 2531 275 2362 
L 275 3084 
Q 597 3424 1075 3424 
Q 1303 3424 1504 3374 
Q 1706 3324 1941 3224 
Q 2344 3053 2650 3053 
Q 2816 3053 3012 3153 
Q 3209 3253 3378 3431 
L 3378 2709 
Q 3063 2368 2578 2368 
Q 2372 2368 2184 2408 
Q 1997 2449 1716 2565 
Q 1306 2740 1006 2740 
z
M 1006 1460 
Q 834 1460 639 1355 
Q 444 1251 275 1082 
L 275 1804 
Q 597 2144 1075 2144 
Q 1303 2144 1504 2094 
Q 1706 2044 1941 1944 
Q 2344 1773 2650 1773 
Q 2816 1773 3012 1873 
Q 3209 1973 3378 2151 
L 3378 1429 
Q 3063 1088 2578 1088 
Q 2372 1088 2184 1128 
Q 1997 1169 1716 1285 
Q 1306 1460 1006 1460 
z
" transform="scale(0.015625)"/>
      <path id="OpenSans-Bold-71" d="M 1947 684 
Q 2309 684 2478 892 
Q 2647 1100 2663 1619 
L 2663 1734 
Q 2663 2297 2489 2540 
Q 2316 2784 1931 2784 
Q 1259 2784 1259 1728 
Q 1259 1203 1426 943 
Q 1594 684 1947 684 
z
M 1606 -63 
Q 988 -63 638 414 
Q 288 891 288 1741 
Q 288 2597 645 3078 
Q 1003 3559 1625 3559 
Q 1956 3559 2203 3434 
Q 2450 3309 2638 3047 
L 2663 3047 
L 2747 3494 
L 3553 3494 
L 3553 -1538 
L 2597 -1538 
L 2597 -72 
Q 2597 119 2638 453 
L 2597 453 
Q 2444 200 2191 68 
Q 1938 -63 1606 -63 
z
" transform="scale(0.015625)"/>
      <path id="OpenSans-Bold-79" d="M 0 3494 
L 1044 3494 
L 1703 1528 
Q 1788 1272 1819 922 
L 1838 922 
Q 1872 1244 1972 1528 
L 2619 3494 
L 3641 3494 
L 2163 -447 
Q 1959 -994 1582 -1266 
Q 1206 -1538 703 -1538 
Q 456 -1538 219 -1484 
L 219 -728 
Q 391 -769 594 -769 
Q 847 -769 1036 -614 
Q 1225 -459 1331 -147 
L 1388 25 
L 0 3494 
z
" transform="scale(0.015625)"/>
      <path id="OpenSans-Bold-b7" d="M 366 2259 
Q 366 2522 506 2656 
Q 647 2791 916 2791 
Q 1175 2791 1317 2653 
Q 1459 2516 1459 2259 
Q 1459 2006 1314 1867 
Q 1169 1728 916 1728 
Q 653 1728 509 1865 
Q 366 2003 366 2259 
z
" transform="scale(0.015625)"/>
      <path id="OpenSans-Bold-7e" d="M 1006 2100 
Q 834 2100 639 1995 
Q 444 1891 275 1722 
L 275 2444 
Q 597 2784 1075 2784 
Q 1303 2784 1504 2734 
Q 1706 2684 1941 2584 
Q 2344 2413 2650 2413 
Q 2816 2413 3012 2513 
Q 3209 2613 3378 2791 
L 3378 2069 
Q 3063 1728 2578 1728 
Q 2372 1728 2184 1768 
Q 1997 1809 1716 1925 
Q 1306 2100 1006 2100 
z
" transform="scale(0.015625)"/>
      <path id="OpenSans-Bold-31" d="M 2644 0 
L 1678 0 
L 1678 2644 
L 1688 3078 
L 1703 3553 
Q 1463 3313 1369 3238 
L 844 2816 
L 378 3397 
L 1850 4569 
L 2644 4569 
L 2644 0 
z
" transform="scale(0.015625)"/>
      <path id="OpenSans-Bold-d7" d="M 1338 2259 
L 403 3200 
L 878 3681 
L 1819 2747 
L 2772 3681 
L 3250 3213 
L 2297 2259 
L 3238 1313 
L 2772 838 
L 1819 1778 
L 878 844 
L 409 1319 
L 1338 2259 
z
" transform="scale(0.015625)"/>
      <path id="OpenSans-Bold-6d" d="M 3628 0 
L 2675 0 
L 2675 2041 
Q 2675 2419 2548 2608 
Q 2422 2797 2150 2797 
Q 1784 2797 1618 2528 
Q 1453 2259 1453 1644 
L 1453 0 
L 500 0 
L 500 3494 
L 1228 3494 
L 1356 3047 
L 1409 3047 
Q 1550 3288 1815 3423 
Q 2081 3559 2425 3559 
Q 3209 3559 3488 3047 
L 3572 3047 
Q 3713 3291 3986 3425 
Q 4259 3559 4603 3559 
Q 5197 3559 5501 3254 
Q 5806 2950 5806 2278 
L 5806 0 
L 4850 0 
L 4850 2041 
Q 4850 2419 4723 2608 
Q 4597 2797 4325 2797 
Q 3975 2797 3801 2547 
Q 3628 2297 3628 1753 
L 3628 0 
z
" transform="scale(0.015625)"/>
     </defs>
     <use xlink:href="#OpenSans-Bold-41"/>
     <use xlink:href="#OpenSans-Bold-20" transform="translate(68.994141 0)"/>
     <use xlink:href="#OpenSans-Bold-2248" transform="translate(94.970703 0)"/>
     <use xlink:href="#OpenSans-Bold-20" transform="translate(152.050781 0)"/>
     <use xlink:href="#OpenSans-Bold-43" transform="translate(178.027344 0)"/>
     <use xlink:href="#OpenSans-Bold-20" transform="translate(241.748047 0)"/>
     <use xlink:href="#OpenSans-Bold-6f" transform="translate(267.724609 0)"/>
     <use xlink:href="#OpenSans-Bold-6e" transform="translate(329.638672 0)"/>
     <use xlink:href="#OpenSans-Bold-20" transform="translate(395.361328 0)"/>
     <use xlink:href="#OpenSans-Bold-71" transform="translate(421.337891 0)"/>
     <use xlink:href="#OpenSans-Bold-75" transform="translate(484.619141 0)"/>
     <use xlink:href="#OpenSans-Bold-61" transform="translate(550.341797 0)"/>
     <use xlink:href="#OpenSans-Bold-6c" transform="translate(610.742188 0)"/>
     <use xlink:href="#OpenSans-Bold-69" transform="translate(641.259766 0)"/>
     <use xlink:href="#OpenSans-Bold-74" transform="translate(671.777344 0)"/>
     <use xlink:href="#OpenSans-Bold-79" transform="translate(715.185547 0)"/>
     <use xlink:href="#OpenSans-Bold-20" transform="translate(772.070312 0)"/>
     <use xlink:href="#OpenSans-Bold-20" transform="translate(798.046875 0)"/>
     <use xlink:href="#OpenSans-Bold-b7" transform="translate(824.023438 0)"/>
     <use xlink:href="#OpenSans-Bold-20" transform="translate(852.539062 0)"/>
     <use xlink:href="#OpenSans-Bold-20" transform="translate(878.515625 0)"/>
     <use xlink:href="#OpenSans-Bold-42" transform="translate(904.492188 0)"/>
     <use xlink:href="#OpenSans-Bold-20" transform="translate(971.679688 0)"/>
     <use xlink:href="#OpenSans-Bold-63" transform="translate(997.65625 0)"/>
     <use xlink:href="#OpenSans-Bold-6f" transform="translate(1049.072266 0)"/>
     <use xlink:href="#OpenSans-Bold-73" transform="translate(1110.986328 0)"/>
     <use xlink:href="#OpenSans-Bold-74" transform="translate(1160.693359 0)"/>
     <use xlink:href="#OpenSans-Bold-73" transform="translate(1204.101562 0)"/>
     <use xlink:href="#OpenSans-Bold-20" transform="translate(1253.808594 0)"/>
     <use xlink:href="#OpenSans-Bold-7e" transform="translate(1279.785156 0)"/>
     <use xlink:href="#OpenSans-Bold-31" transform="translate(1336.865234 0)"/>
     <use xlink:href="#OpenSans-Bold-30" transform="translate(1393.945312 0)"/>
     <use xlink:href="#OpenSans-Bold-d7" transform="translate(1451.025391 0)"/>
     <use xlink:href="#OpenSans-Bold-20" transform="translate(1508.105469 0)"/>
     <use xlink:href="#OpenSans-Bold-6d" transform="translate(1534.082031 0)"/>
     <use xlink:href="#OpenSans-Bold-6f" transform="translate(1632.275391 0)"/>
     <use xlink:href="#OpenSans-Bold-72" transform="translate(1694.189453 0)"/>
     <use xlink:href="#OpenSans-Bold-65" transform="translate(1737.599609 0)"/>
    </g>
   </g>
   <g id="line2d_13">
    <path d="M 84.175398 62.269497 
L 179.776797 88.783227 
L 275.378195 64.583177 
" clip-path="url(#pb8aa92c6a6)" style="fill: none; stroke: #3f3f46; stroke-width: 2.2; stroke-linecap: square"/>
    <defs>
     <path id="m5490e3e025" d="M 0 4 
C 1.060812 4 2.078319 3.578535 2.828427 2.828427 
C 3.578535 2.078319 4 1.060812 4 0 
C 4 -1.060812 3.578535 -2.078319 2.828427 -2.828427 
C 2.078319 -3.578535 1.060812 -4 0 -4 
C -1.060812 -4 -2.078319 -3.578535 -2.828427 -2.828427 
C -3.578535 -2.078319 -4 -1.060812 -4 0 
C -4 1.060812 -3.578535 2.078319 -2.828427 2.828427 
C -2.078319 3.578535 -1.060812 4 0 4 
z
" style="stroke: #ffffff; stroke-width: 1.4"/>
    </defs>
    <g clip-path="url(#pb8aa92c6a6)">
     <use xlink:href="#m5490e3e025" x="84.175398" y="62.269497" style="fill: #e3720f; stroke: #ffffff; stroke-width: 1.4"/>
     <use xlink:href="#m5490e3e025" x="179.776797" y="88.783227" style="fill: #e3720f; stroke: #ffffff; stroke-width: 1.4"/>
     <use xlink:href="#m5490e3e025" x="275.378195" y="64.583177" style="fill: #e3720f; stroke: #ffffff; stroke-width: 1.4"/>
    </g>
   </g>
  </g>
 </g>
 <defs>
  <clipPath id="pb8aa92c6a6">
   <rect x="43.066797" y="7.2" width="273.42" height="180.18"/>
  </clipPath>
 </defs>
</svg>
